<svg width="21" height="21" viewBox="0 0 21 21" fill="none" xmlns="http://www.w3.org/2000/svg">
<path fill-rule="evenodd" clip-rule="evenodd" d="M6.76701 3.72281C7.41008 3.67149 8.02057 3.41862 8.51158 3.00019C9.65738 2.02374 11.3426 2.02374 12.4884 3.00019C12.9794 3.41862 13.5899 3.67149 14.233 3.72281C15.7336 3.84256 16.9253 5.03421 17.045 6.53487C17.0964 7.17793 17.3492 7.78842 17.7677 8.27943C18.7441 9.42523 18.7441 11.1105 17.7677 12.2563C17.3492 12.7473 17.0964 13.3578 17.045 14.0008C16.9253 15.5015 15.7336 16.6931 14.233 16.8129C13.5899 16.8642 12.9794 17.1171 12.4884 17.5355C11.3426 18.512 9.65738 18.512 8.51158 17.5355C8.02057 17.1171 7.41008 16.8642 6.76701 16.8129C5.26636 16.6931 4.07471 15.5015 3.95496 14.0008C3.90364 13.3578 3.65077 12.7473 3.23234 12.2563C2.25589 11.1105 2.25589 9.42523 3.23234 8.27943C3.65077 7.78842 3.90364 7.17793 3.95496 6.53487C4.07471 5.03421 5.26636 3.84256 6.76701 3.72281ZM14.2071 8.97496C14.5976 8.58444 14.5976 7.95127 14.2071 7.56075C13.8166 7.17022 13.1834 7.17022 12.7929 7.56075L9.5 10.8536L8.20711 9.56075C7.81658 9.17022 7.18342 9.17022 6.79289 9.56075C6.40237 9.95127 6.40237 10.5844 6.79289 10.975L8.79289 12.975C9.18342 13.3655 9.81658 13.3655 10.2071 12.975L14.2071 8.97496Z" fill="#862633"/>
</svg>
