<svg width="21" height="21" viewBox="0 0 21 21" fill="none" xmlns="http://www.w3.org/2000/svg">
<path d="M11.25 9.75H15V11.25H11.25V15H9.75V11.25H6V9.75H9.75V6H11.25V9.75ZM10.5 0C11.4688 0 12.3984 0.125 13.2891 0.375C14.1797 0.625 15.0156 0.976562 15.7969 1.42969C16.5781 1.88281 17.2852 2.42969 17.918 3.07031C18.5508 3.71094 19.0977 4.41797 19.5586 5.19141C20.0195 5.96484 20.375 6.80078 20.625 7.69922C20.875 8.59766 21 9.53125 21 10.5C21 11.4688 20.875 12.3984 20.625 13.2891C20.375 14.1797 20.0234 15.0156 19.5703 15.7969C19.1172 16.5781 18.5703 17.2852 17.9297 17.918C17.2891 18.5508 16.582 19.0977 15.8086 19.5586C15.0352 20.0195 14.1992 20.375 13.3008 20.625C12.4023 20.875 11.4688 21 10.5 21C9.53125 21 8.60156 20.875 7.71094 20.625C6.82031 20.375 5.98438 20.0234 5.20312 19.5703C4.42188 19.1172 3.71484 18.5703 3.08203 17.9297C2.44922 17.2891 1.90234 16.582 1.44141 15.8086C0.980469 15.0352 0.625 14.1992 0.375 13.3008C0.125 12.4023 0 11.4688 0 10.5C0 9.53125 0.125 8.60156 0.375 7.71094C0.625 6.82031 0.976562 5.98438 1.42969 5.20312C1.88281 4.42188 2.42969 3.71484 3.07031 3.08203C3.71094 2.44922 4.41797 1.90234 5.19141 1.44141C5.96484 0.980469 6.80078 0.625 7.69922 0.375C8.59766 0.125 9.53125 0 10.5 0ZM10.5 19.5C11.3281 19.5 12.125 19.3945 12.8906 19.1836C13.6562 18.9727 14.3711 18.668 15.0352 18.2695C15.6992 17.8711 16.3086 17.4023 16.8633 16.8633C17.418 16.3242 17.8867 15.7188 18.2695 15.0469C18.6523 14.375 18.9531 13.6562 19.1719 12.8906C19.3906 12.125 19.5 11.3281 19.5 10.5C19.5 9.67188 19.3945 8.875 19.1836 8.10938C18.9727 7.34375 18.668 6.62891 18.2695 5.96484C17.8711 5.30078 17.4023 4.69141 16.8633 4.13672C16.3242 3.58203 15.7188 3.11328 15.0469 2.73047C14.375 2.34766 13.6562 2.04688 12.8906 1.82812C12.125 1.60938 11.3281 1.5 10.5 1.5C9.67188 1.5 8.875 1.60547 8.10938 1.81641C7.34375 2.02734 6.62891 2.33203 5.96484 2.73047C5.30078 3.12891 4.69141 3.59766 4.13672 4.13672C3.58203 4.67578 3.11328 5.28125 2.73047 5.95312C2.34766 6.625 2.04688 7.34375 1.82812 8.10938C1.60938 8.875 1.5 9.67188 1.5 10.5C1.5 11.3281 1.60547 12.125 1.81641 12.8906C2.02734 13.6562 2.33203 14.3711 2.73047 15.0352C3.12891 15.6992 3.59766 16.3086 4.13672 16.8633C4.67578 17.418 5.28125 17.8867 5.95312 18.2695C6.625 18.6523 7.34375 18.9531 8.10938 19.1719C8.875 19.3906 9.67188 19.5 10.5 19.5Z" fill="white"/>
</svg>
