<svg width="42" height="42" viewBox="0 0 42 42" fill="none" xmlns="http://www.w3.org/2000/svg">
<path d="M21 0C22.9396 0 24.799 0.247917 26.5781 0.74375C28.3573 1.23958 30.0344 1.93958 31.6094 2.84375C33.1844 3.74792 34.599 4.84167 35.8531 6.125C37.1073 7.40833 38.201 8.83021 39.1344 10.3906C40.0677 11.951 40.775 13.6208 41.2562 15.4C41.7375 17.1792 41.9854 19.0458 42 21C42 22.9396 41.7521 24.799 41.2562 26.5781C40.7604 28.3573 40.0604 30.0344 39.1562 31.6094C38.2521 33.1844 37.1583 34.599 35.875 35.8531C34.5917 37.1073 33.1698 38.201 31.6094 39.1344C30.049 40.0677 28.3792 40.775 26.6 41.2562C24.8208 41.7375 22.9542 41.9854 21 42C19.0604 42 17.201 41.7521 15.4219 41.2562C13.6427 40.7604 11.9656 40.0604 10.3906 39.1562C8.81563 38.2521 7.40104 37.1583 6.14687 35.875C4.89271 34.5917 3.79896 33.1698 2.86562 31.6094C1.93229 30.049 1.225 28.3792 0.74375 26.6C0.2625 24.8208 0.0145833 22.9542 0 21C0 19.0604 0.247917 17.201 0.74375 15.4219C1.23958 13.6427 1.93958 11.9656 2.84375 10.3906C3.74792 8.81563 4.84167 7.40104 6.125 6.14687C7.40833 4.89271 8.83021 3.79896 10.3906 2.86562C11.951 1.93229 13.6208 1.225 15.4 0.74375C17.1792 0.2625 19.0458 0.0145833 21 0ZM21 39.2C22.6625 39.2 24.2667 38.9813 25.8125 38.5438C27.3583 38.1063 28.8094 37.4937 30.1656 36.7062C31.5219 35.9188 32.7542 34.9708 33.8625 33.8625C34.9708 32.7542 35.9188 31.5292 36.7062 30.1875C37.4937 28.8458 38.1063 27.3948 38.5438 25.8344C38.9813 24.274 39.2 22.6625 39.2 21C39.2 19.3375 38.9813 17.7333 38.5438 16.1875C38.1063 14.6417 37.4937 13.1906 36.7062 11.8344C35.9188 10.4781 34.9708 9.24583 33.8625 8.1375C32.7542 7.02917 31.5292 6.08125 30.1875 5.29375C28.8458 4.50625 27.3948 3.89375 25.8344 3.45625C24.274 3.01875 22.6625 2.8 21 2.8C19.3229 2.8 17.7115 3.01875 16.1656 3.45625C14.6198 3.89375 13.176 4.50625 11.8344 5.29375C10.4927 6.08125 9.26042 7.02917 8.1375 8.1375C7.01458 9.24583 6.06667 10.4708 5.29375 11.8125C4.52083 13.1542 3.90833 14.6052 3.45625 16.1656C3.00417 17.726 2.78542 19.3375 2.8 21C2.8 22.6625 3.01875 24.2667 3.45625 25.8125C3.89375 27.3583 4.50625 28.8094 5.29375 30.1656C6.08125 31.5219 7.02917 32.7542 8.1375 33.8625C9.24583 34.9708 10.4708 35.9188 11.8125 36.7062C13.1542 37.4937 14.6052 38.1063 16.1656 38.5438C17.726 38.9813 19.3375 39.2 21 39.2ZM19.6 11.2H22.4V25.2H19.6V11.2ZM19.6 28H22.4V30.8H19.6V28Z" fill="#862633"/>
</svg>
