<svg width="42" height="42" viewBox="0 0 42 42" fill="none" xmlns="http://www.w3.org/2000/svg">
<path d="M30.5771 12.2021L32.4229 14.0479L17.0625 29.4082L9.57715 21.9229L11.4229 20.0771L17.0625 25.7168L30.5771 12.2021ZM21 0C22.9277 0 24.7871 0.246094 26.5781 0.738281C28.3691 1.23047 30.0439 1.93457 31.6025 2.85059C33.1611 3.7666 34.5762 4.86035 35.8477 6.13184C37.1191 7.40332 38.2129 8.8252 39.1289 10.3975C40.0449 11.9697 40.749 13.6445 41.2412 15.4219C41.7334 17.1992 41.9863 19.0586 42 21C42 22.9277 41.7539 24.7871 41.2617 26.5781C40.7695 28.3691 40.0654 30.0439 39.1494 31.6025C38.2334 33.1611 37.1396 34.5762 35.8682 35.8477C34.5967 37.1191 33.1748 38.2129 31.6025 39.1289C30.0303 40.0449 28.3555 40.749 26.5781 41.2412C24.8008 41.7334 22.9414 41.9863 21 42C19.0723 42 17.2129 41.7539 15.4219 41.2617C13.6309 40.7695 11.9561 40.0654 10.3975 39.1494C8.83887 38.2334 7.42383 37.1396 6.15234 35.8682C4.88086 34.5967 3.78711 33.1748 2.87109 31.6025C1.95508 30.0303 1.25098 28.3623 0.758789 26.5986C0.266602 24.835 0.0136719 22.9688 0 21C0 19.0723 0.246094 17.2129 0.738281 15.4219C1.23047 13.6309 1.93457 11.9561 2.85059 10.3975C3.7666 8.83887 4.86035 7.42383 6.13184 6.15234C7.40332 4.88086 8.8252 3.78711 10.3975 2.87109C11.9697 1.95508 13.6377 1.25098 15.4014 0.758789C17.165 0.266602 19.0312 0.0136719 21 0ZM21 39.375C22.6816 39.375 24.3018 39.1562 25.8604 38.7188C27.4189 38.2812 28.8818 37.666 30.249 36.873C31.6162 36.0801 32.8604 35.1162 33.9814 33.9814C35.1025 32.8467 36.0596 31.6094 36.8525 30.2695C37.6455 28.9297 38.2676 27.4668 38.7188 25.8809C39.1699 24.2949 39.3887 22.668 39.375 21C39.375 19.3184 39.1562 17.6982 38.7188 16.1396C38.2812 14.5811 37.666 13.1182 36.873 11.751C36.0801 10.3838 35.1162 9.13965 33.9814 8.01855C32.8467 6.89746 31.6094 5.94043 30.2695 5.14746C28.9297 4.35449 27.4668 3.73242 25.8809 3.28125C24.2949 2.83008 22.668 2.61133 21 2.625C19.3184 2.625 17.6982 2.84375 16.1396 3.28125C14.5811 3.71875 13.1182 4.33398 11.751 5.12695C10.3838 5.91992 9.13965 6.88379 8.01855 8.01855C6.89746 9.15332 5.94043 10.3906 5.14746 11.7305C4.35449 13.0703 3.73242 14.5332 3.28125 16.1191C2.83008 17.7051 2.61133 19.332 2.625 21C2.625 22.6816 2.84375 24.3018 3.28125 25.8604C3.71875 27.4189 4.33398 28.8818 5.12695 30.249C5.91992 31.6162 6.88379 32.8604 8.01855 33.9814C9.15332 35.1025 10.3906 36.0596 11.7305 36.8525C13.0703 37.6455 14.5332 38.2676 16.1191 38.7188C17.7051 39.1699 19.332 39.3887 21 39.375Z" fill="#862633"/>
</svg>
