<svg width="14" height="18" viewBox="0 0 14 18" fill="none" xmlns="http://www.w3.org/2000/svg">
<path d="M13.5 7.875V18H0V7.875H2.25V4.58789C2.25 3.95508 2.36426 3.36035 2.59277 2.80371C2.82129 2.24707 3.1377 1.76074 3.54199 1.34473C3.94629 0.928711 4.4209 0.600586 4.96582 0.360352C5.51074 0.120117 6.10547 0 6.75 0C7.38867 0 7.98047 0.120117 8.52539 0.360352C9.07031 0.600586 9.54785 0.928711 9.95801 1.34473C10.3682 1.76074 10.6846 2.24707 10.9072 2.80371C11.1299 3.36035 11.2441 3.95508 11.25 4.58789V7.875H13.5ZM3.375 7.875H10.125V4.58789C10.125 4.11328 10.04 3.66797 9.87012 3.25195C9.7002 2.83594 9.46582 2.4668 9.16699 2.14453C8.86816 1.82227 8.51074 1.57324 8.09473 1.39746C7.67871 1.22168 7.23047 1.13086 6.75 1.125C6.26953 1.125 5.82422 1.21582 5.41406 1.39746C5.00391 1.5791 4.64648 1.82812 4.3418 2.14453C4.03711 2.46094 3.7998 2.82715 3.62988 3.24316C3.45996 3.65918 3.375 4.10742 3.375 4.58789V7.875ZM12.375 9H1.125V16.875H12.375V9Z" fill="#862633"/>
</svg>
