<svg width="140" height="77" viewBox="0 0 140 77" fill="none" xmlns="http://www.w3.org/2000/svg">
<path fill-rule="evenodd" clip-rule="evenodd" d="M93.2356 0.413545C93.0531 0.75493 92.7297 4.56712 92.4864 9.24249C92.2511 13.7679 91.9496 18.0139 91.8166 18.6776C91.6832 19.3417 91.5522 21.1443 91.5251 22.6834C91.4982 24.2226 91.3552 26.6405 91.2075 28.0569C91.0599 29.4732 90.9385 31.7262 90.938 33.064C90.9374 34.4015 90.8075 37.2985 90.6497 39.5015C90.4918 41.7047 90.235 45.7604 90.079 48.5143C89.393 60.6203 89.1019 64.5714 88.8868 64.7042C88.6361 64.8592 88.4469 64.1656 88.2558 62.3909C88.188 61.7614 87.9185 59.7013 87.6567 57.813C86.6829 50.7866 85.7881 43.7322 85.625 41.7904C85.3404 38.4057 84.9487 36.8308 84.3438 36.639C84.0459 36.5443 82.1467 36.4965 80.124 36.5325C78.101 36.5685 76.2925 36.5035 76.1055 36.3877C75.918 36.2721 75.7648 35.6232 75.7648 34.9458C75.7648 34.2685 75.646 33.0851 75.5002 32.3161C75.3549 31.5472 75.023 28.6658 74.7632 25.913C74.5031 23.1602 74.2339 20.8513 74.1646 20.7821C73.6718 20.2889 73.3591 22.3532 72.7347 30.2316C71.5137 45.6333 71.4543 46.3538 71.3558 46.9405C71.3032 47.2553 71.2438 47.674 71.2236 47.8704C71.2034 48.0674 71.0841 48.2282 70.9582 48.2282C70.6917 48.2282 70.0426 44.0239 70.0426 42.2979C70.0426 40.9644 69.4944 38.2354 69.1284 37.7485C68.767 37.2669 0.682324 37.3616 0.199585 37.8443C-0.0705505 38.1141 -0.0673113 38.2846 0.214445 38.6242C0.533541 39.0085 4.5429 39.0601 34.7876 39.0689C53.6044 39.0744 69.0478 39.1268 69.1061 39.1851C69.2526 39.3316 69.6712 43.3667 70.1909 49.6411C70.4309 52.5427 70.6911 54.9804 70.769 55.0583C71.236 55.5254 71.5625 54.1031 71.7884 50.6165C71.9296 48.4375 72.1744 45.3026 72.3323 43.6501C72.4902 41.9979 72.7551 39.0365 72.9204 37.0695C73.4184 31.1446 73.6057 29.7709 73.9051 29.83C74.2404 29.8961 74.1941 29.5987 74.6342 34.4945C74.8325 36.703 75.1518 38.6326 75.3798 39.0009C75.7608 39.6166 75.9449 39.6446 79.6138 39.6446C82.5813 39.6446 83.543 39.7385 83.8638 40.0591C84.2762 40.4718 84.6005 42.3513 85.1984 47.7989C85.371 49.3725 85.7069 52.2695 85.9448 54.2365C86.183 56.2036 86.5676 59.68 86.7998 61.9616C87.0319 64.2435 87.4022 67.1403 87.622 68.3994C87.8421 69.6582 88.1023 71.5896 88.2 72.6911C88.4515 75.5199 88.6315 76.2676 89.0613 76.2676C89.6947 76.2676 89.8172 75.4719 90.0961 69.5437C90.2442 66.3966 90.4882 62.7915 90.6383 61.5324C90.7882 60.2736 91.0475 55.7028 91.2144 51.3753C91.3811 47.0478 91.6415 42.4772 91.7931 41.2182C91.9444 39.9593 92.2024 36.3542 92.3662 33.207C92.5298 30.0597 92.8529 24.2194 93.084 20.2287C93.3151 16.238 93.5041 12.6653 93.5041 12.289C93.5041 11.9132 93.6159 11.6053 93.7531 11.6053C94.1158 11.6053 94.6385 14.5334 95.2346 19.9026C95.5227 22.4991 95.9541 25.9753 96.1936 27.6277C96.4331 29.28 96.8183 32.306 97.0494 34.352C97.2806 36.398 97.6045 38.4257 97.7689 38.8584L98.0676 39.6446H102.367C104.731 39.6446 106.675 39.677 106.686 39.716C106.773 40.0204 107.289 44.9732 107.679 49.2294C108.397 57.0895 108.968 57.7458 109.49 51.312C109.672 49.0652 109.946 45.8105 110.098 44.0793C110.381 40.8638 110.499 39.3443 110.954 33.0573C111.206 29.5808 111.553 27.8251 111.882 28.3656C111.97 28.5107 112.262 30.3672 112.53 32.4917C112.799 34.616 113.07 36.4077 113.132 36.4736C113.331 36.6819 113.238 34.1377 112.97 32.0625C112.828 30.961 112.565 28.1973 112.387 25.9214C112.058 21.7337 111.719 20.2156 111.427 21.6232C111.147 22.9743 110.962 24.7033 110.674 28.6618C110.515 30.8469 110.263 33.9866 110.113 35.639C109.963 37.2913 109.703 40.1883 109.535 42.0766C108.988 48.2242 108.577 48.3371 108.112 42.4671C107.942 40.3214 107.667 38.175 107.5 37.6972C107.209 36.8602 107.123 36.8232 105.143 36.682C104.013 36.6015 102.084 36.5409 100.855 36.5474C99.6259 36.5536 98.5755 36.5131 98.5208 36.4567C98.3669 36.2987 96.407 19.7839 95.6394 12.1774C95.3933 9.73838 95.0586 7.16332 94.8955 6.45522C94.7326 5.74692 94.4989 4.09696 94.3762 2.78819C94.1333 0.19828 93.7633 -0.572126 93.2356 0.413545ZM3.61153 15.9993C3.52656 27.3471 3.48599 28.1787 2.9901 28.7262C2.69844 29.0483 2.08673 29.3939 1.63104 29.4941L0.802343 29.676V31.9512C0.802343 33.5511 0.912645 34.2685 1.17345 34.3685C1.86384 34.6335 5.71108 33.6423 6.52282 32.9904C8.63476 31.2934 8.85689 29.5631 8.75535 15.6109L8.67057 4.02324L6.18658 3.94074L3.7024 3.85845L3.61153 15.9993ZM37.3697 4.07715L34.5962 4.1865L34.4506 5.39258C34.3704 6.05554 34.2317 7.43517 34.1422 8.458C34.0525 9.48082 33.8534 11.5085 33.6995 12.9642C33.5455 14.42 33.2866 16.8661 33.1241 18.4004C32.9616 19.935 32.7052 22.4776 32.5542 24.0512C32.2812 26.8981 31.8615 28.486 31.3822 28.486C31.2437 28.486 31.1307 28.2499 31.1307 27.9617C31.1307 27.6729 31.0341 27.3406 30.9162 27.2231C30.7983 27.1056 30.4135 25.0563 30.0612 22.6693C29.709 20.2819 29.2857 17.4921 29.1201 16.4693C28.9548 15.4463 28.7016 13.7725 28.5577 12.7497C28.4135 11.7269 28.1529 10.1175 27.9782 9.17334C27.8037 8.22901 27.5726 6.74841 27.4644 5.88294L27.2682 4.30918L24.9469 4.22689C22.6388 4.14478 22.6243 4.14877 22.3286 4.94223C22.165 5.38077 21.8918 6.83432 21.7213 8.17185C21.5504 9.50939 21.361 10.99 21.3001 11.4623C21.0738 13.2138 19.969 19.8951 19.2068 24.1228C18.052 30.5274 17.8963 30.2923 16.6979 20.3318C16.4708 18.4433 16.2071 15.9328 16.1125 14.7525C15.9538 12.7764 15.2904 7.3003 14.9428 5.09616L14.7961 4.1663H12.7775H10.7589L10.9082 5.38229C11.0547 6.5739 11.5506 9.90773 12.3869 15.3247C12.6178 16.8196 12.9466 19.3303 13.1173 20.9041C13.2882 22.4776 13.6751 25.3102 13.9773 27.1985C14.2796 29.0868 14.6012 31.2433 14.6919 31.9911L14.8572 33.3501H17.8339C21.3447 33.3501 21.218 33.4637 21.6942 29.8915C21.8712 28.5677 22.1315 26.7766 22.2732 25.9111C22.4147 25.0454 22.8483 22.213 23.2368 19.6164C23.625 17.02 24.1243 14.123 24.3461 13.1789C24.741 11.4979 24.756 11.4788 25.0774 12.2639C25.2578 12.7051 25.5381 14.1213 25.6996 15.4112C25.8615 16.7013 26.1202 18.4004 26.2746 19.1872C26.6664 21.1847 27.0886 23.9359 27.4159 26.6262C27.5688 27.8853 27.8599 29.8808 28.0621 31.061L28.4301 33.207L31.4717 33.288L34.5139 33.369L34.8539 32.0004C35.0408 31.2477 35.2582 30.0849 35.3369 29.416L35.4799 28.2H39.1609C43.3958 28.2 43.2927 28.1358 43.6099 30.9595C43.8972 33.5157 44.0115 33.6361 46.145 33.6361C47.1529 33.6361 48.0462 33.5258 48.1294 33.3907C48.2131 33.2558 48.0172 31.6142 47.6949 29.7427C47.3724 27.8714 46.8708 24.8595 46.5805 23.0499C45.2886 15.0028 44.86 12.3934 44.3085 9.21639C43.9848 7.35154 43.7198 5.52479 43.7198 5.15617C43.7198 4.78773 43.5876 4.40462 43.4263 4.30461C43.0032 4.04324 40.5628 3.9516 37.3697 4.07715ZM51.5486 4.30918C51.4884 4.46673 51.4728 11.0974 51.5138 19.0442L51.5881 33.493H53.5908H55.5936L55.6654 21.9053C55.7051 15.5322 55.8045 10.1382 55.887 9.91916C56.1009 9.34803 56.3482 9.70294 56.6052 10.95C56.7281 11.5466 57.2403 13.8369 57.7438 16.0401C58.2472 18.2431 58.8932 21.1401 59.1797 22.4776C60.2151 27.3159 61.167 31.5123 61.4688 32.5717L61.777 33.6536L65.2659 33.5732L68.755 33.493L68.8291 18.8552L68.9032 4.21736L67.1125 4.10763C66.1276 4.04724 65.1608 4.04952 64.964 4.11239C64.6853 4.20193 64.6064 6.88138 64.6064 16.2374C64.6064 29.4362 64.4336 30.5758 63.2948 24.8907C62.3824 20.3375 60.678 12.3894 60.0465 9.74543C59.7461 8.48657 59.4146 6.86633 59.3098 6.14469C59.205 5.42344 59.0257 4.68143 58.9109 4.49607C58.6449 4.06553 51.709 3.8895 51.5486 4.30918ZM40.1898 10.4608C40.5186 11.9658 41.9914 21.1412 42.0962 22.3346C42.1423 22.8621 41.9474 22.9133 39.5937 22.9901C38.19 23.0362 36.8929 23.0166 36.7112 22.9468C36.3515 22.8087 37.0522 16.4552 37.8582 12.5472C38.0923 11.4129 38.2836 10.179 38.2836 9.80524C38.2836 8.95121 38.5332 8.69746 39.2679 8.80357C39.7162 8.86834 39.9235 9.24078 40.1898 10.4608ZM113.25 37.7132C113.247 38.5456 113.358 38.7865 113.747 38.7873C114.022 38.7879 120.041 38.7947 127.123 38.8027L139.998 38.8174V38.1579V37.4987L126.852 37.4242C116.771 37.3671 113.653 37.2669 113.48 36.995C113.347 36.7857 113.253 37.0802 113.25 37.7132Z" fill="black"/>
<path d="M34.6026 4.18897L39.571 4.00418L38.2929 9.80696C38.2929 10.1805 38.1012 11.4144 37.8671 12.5485C37.0605 16.456 36.3593 22.8085 36.7191 22.9468L35.4871 28.1991L35.3439 29.4149C35.2652 30.0837 35.0476 31.2464 34.8605 31.9991L34.5201 33.3673L31.476 33.2863L28.4322 33.2053L28.0639 31.0599C27.8614 29.8799 27.5703 27.8843 27.4171 26.6257C27.0895 23.9357 26.6671 21.1849 26.2749 19.1878C26.1206 18.401 25.8619 16.7021 25.6997 15.4122C25.538 14.1225 25.2576 12.7064 25.077 12.2652C24.7554 11.4803 24.7402 11.4994 24.3451 13.18C24.1231 14.1242 23.6236 17.0206 23.235 19.6168C22.8462 22.213 22.4124 25.0451 22.2707 25.9105C22.1289 26.7758 21.8685 28.5667 21.6915 29.8904C21.2147 33.4619 21.3416 33.3484 17.8281 33.3484H14.8495L14.684 31.9895C14.5933 31.2422 14.2714 29.0858 13.9688 27.1978C13.6663 25.3097 13.2792 22.4776 13.1083 20.9042C12.9374 19.3307 12.6084 16.8204 12.3774 15.3257C11.5405 9.90945 11.0442 6.576 10.8977 5.38458L10.7482 4.16877H12.7683H14.7882L14.9351 5.09844C15.2829 7.30239 15.9467 12.7777 16.1055 14.7536C16.2004 15.9336 16.4641 18.4439 16.6913 20.332C17.8908 30.2912 18.0466 30.5263 19.2022 24.1224C19.965 19.8955 21.0705 13.2151 21.297 11.4636C21.358 10.9917 21.5475 9.51129 21.7184 8.17376C21.8891 6.83641 22.1625 5.38306 22.3263 4.94451C22.622 4.15125 22.6366 4.14725 24.9463 4.22936L27.2693 4.31184L27.4657 5.88522C27.5739 6.7505 27.8054 8.2311 27.9799 9.17505C28.1546 10.1192 28.4156 11.7282 28.5598 12.751C28.7038 13.7736 28.9572 15.4472 29.1227 16.4701C29.2883 17.4927 29.712 20.2822 30.0644 22.6693C30.4168 25.0559 30.802 27.1048 30.92 27.2225C31.0379 27.3401 31.1347 27.6721 31.1347 27.9607C31.1347 28.2492 31.2478 28.4852 31.3863 28.4852C31.866 28.4852 32.2861 26.8975 32.5593 24.051C32.7103 22.4776 32.9669 19.9351 33.1294 18.401C33.2921 16.8669 33.5512 14.4212 33.7053 12.9655C33.8594 11.5101 34.0587 9.48252 34.1483 8.45989C34.2378 7.43707 34.3767 6.05763 34.4569 5.39486L34.6026 4.18897Z" fill="#EA5929"/>
<path fill-rule="evenodd" clip-rule="evenodd" d="M93.2378 0.413743C93.0551 0.755128 92.7316 4.56732 92.4884 9.24269C92.2533 13.7681 91.9517 18.0141 91.8185 18.678C91.6852 19.3421 91.5543 21.1445 91.5271 22.6836C91.5002 24.2228 91.3571 26.6409 91.2095 28.0571C91.0619 29.4733 90.9405 31.7266 90.9399 33.0642C90.9394 34.4017 90.8094 37.2987 90.6519 39.5017C90.494 41.7049 90.237 45.7605 90.0809 48.5145C89.3949 60.6207 89.1038 64.5716 88.8888 64.7044C88.6381 64.8594 88.4491 64.1658 88.2578 62.3911C88.19 61.7616 87.9206 59.7015 87.6587 57.8132C86.6848 50.7868 85.7902 43.7326 85.6271 41.7906C85.3423 38.4059 84.9507 36.8312 84.3458 36.6392C84.048 36.5445 82.1487 36.4967 80.1259 36.5327C78.103 36.5689 76.2945 36.5039 76.1074 36.3879C75.92 36.2725 75.767 35.6234 75.767 34.946C75.767 34.2687 75.6479 33.0853 75.5022 32.3162C75.3568 31.5474 75.025 28.666 74.7651 25.9132C74.5051 23.1606 74.2359 20.8515 74.1667 20.7823C73.6737 20.2891 73.3613 22.3534 72.7366 30.2319C71.5159 45.6335 71.4562 46.354 71.3577 46.9407C71.3052 47.2554 71.2457 47.6742 71.2257 47.8708C71.2053 48.0676 71.0861 48.2283 70.9602 48.2283C70.6938 48.2283 70.0446 44.0241 70.0446 42.2983C70.0446 40.9648 69.4963 38.2358 69.1304 37.7487C68.769 37.2673 0.684279 37.362 0.20154 37.8445C-0.0685959 38.1145 -0.0653597 38.285 0.216397 38.6246C0.535492 39.0089 4.54486 39.0603 34.7896 39.0693C53.6063 39.0746 69.0498 39.127 69.1081 39.1853C69.2546 39.3318 69.6731 43.3669 70.1928 49.6415C70.4328 52.5429 70.6933 54.9806 70.771 55.0585C71.2379 55.5256 71.5644 54.1035 71.7904 50.6169C71.9315 48.4377 72.1763 45.3028 72.3343 43.6505C72.4922 41.9981 72.757 39.0369 72.9224 37.0697C73.4205 31.1448 73.6076 29.7713 73.9071 29.8302C74.2424 29.8963 74.1961 29.5991 74.6361 34.4947C74.8345 36.7032 75.1537 38.6328 75.3818 39.0011C75.763 39.6168 75.9468 39.6448 79.6157 39.6448C82.5832 39.6448 83.5449 39.7387 83.8657 40.0595C84.2784 40.4719 84.6024 42.3515 85.2004 47.7991C85.373 49.3727 85.7089 52.2697 85.947 54.2367C86.1849 56.2038 86.5696 59.6802 86.8018 61.9618C87.0338 64.2437 87.4042 67.1405 87.6242 68.3996C87.8442 69.6584 88.1043 71.5898 88.2022 72.6913C88.4537 75.5201 88.6335 76.2678 89.0633 76.2678C89.6967 76.2678 89.8192 75.4721 90.0981 69.5439C90.2461 66.3968 90.4902 62.7917 90.6405 61.5328C90.7904 60.2738 91.0495 55.7032 91.2164 51.3757C91.383 47.0482 91.6435 42.4774 91.7951 41.2185C91.9466 39.9595 92.2043 36.3546 92.3681 33.2072C92.532 30.0599 92.8549 24.2198 93.0862 20.2289C93.3171 16.2382 93.506 12.6655 93.506 12.2892C93.506 11.9134 93.618 11.6055 93.755 11.6055C94.1177 11.6055 94.6405 14.5336 95.2366 19.9028C95.5246 22.4993 95.9561 25.9757 96.1956 27.6279C96.435 29.2804 96.8202 32.3061 97.0513 34.3522C97.2826 36.3982 97.6065 38.4259 97.7711 38.8586L98.0698 39.6448H102.369C104.733 39.6448 106.677 39.6772 106.688 39.7164C106.774 40.0208 107.291 44.9734 107.681 49.2297C108.399 57.0897 108.97 57.746 109.492 51.3124C109.674 49.0654 109.948 45.8107 110.1 44.0797C110.383 40.864 110.501 39.3447 110.956 33.0575C111.208 29.581 111.555 27.8253 111.884 28.3658C111.972 28.5109 112.264 30.3676 112.532 32.4919C112.801 34.6164 113.072 36.4081 113.134 36.4738C113.333 36.682 113.24 34.138 112.972 32.0627C112.83 30.9612 112.568 28.1975 112.389 25.9216C112.06 21.7339 111.721 20.2158 111.429 21.6236C111.149 22.9745 110.964 24.7035 110.676 28.662C110.517 30.8471 110.265 33.987 110.115 35.6392C109.965 37.2915 109.705 40.1885 109.538 42.0768C108.99 48.2244 108.579 48.3373 108.114 42.4673C107.944 40.3218 107.669 38.1754 107.502 37.6974C107.211 36.8604 107.125 36.8234 105.145 36.6824C104.015 36.6017 102.086 36.5411 100.857 36.5476C99.6279 36.5538 98.5775 36.5133 98.5228 36.4569C98.3689 36.2989 96.4091 19.7841 95.6414 12.1776C95.3953 9.73857 95.0605 7.16352 94.8975 6.45542C94.7348 5.74712 94.5008 4.09715 94.3782 2.78838C94.1353 0.198472 93.7653 -0.571929 93.2378 0.413743ZM113.252 37.7136C113.249 38.5459 113.36 38.7867 113.749 38.7877C114.024 38.7883 120.043 38.7951 127.125 38.8031L140 38.8176V38.1583V37.4989L126.854 37.4246C116.773 37.3673 113.655 37.2673 113.482 36.9954C113.349 36.7859 113.255 37.0804 113.252 37.7136Z" fill="#EA5929"/>
</svg>
