<?xml version="1.0" encoding="UTF-8" standalone="no"?>
<svg
   width="35"
   height="35"
   viewBox="0 0 35 35"
   fill="none"
   version="1.1"
   id="svg59"
   sodipodi:docname="swap.svg"
   inkscape:version="1.1.1 (1:1.1+202109281946+c3084ef5ed)"
   xmlns:inkscape="http://www.inkscape.org/namespaces/inkscape"
   xmlns:sodipodi="http://sodipodi.sourceforge.net/DTD/sodipodi-0.dtd"
   xmlns="http://www.w3.org/2000/svg"
   xmlns:svg="http://www.w3.org/2000/svg">
  <defs
     id="defs63" />
  <sodipodi:namedview
     id="namedview61"
     pagecolor="#ffffff"
     bordercolor="#666666"
     borderopacity="1.0"
     inkscape:pageshadow="2"
     inkscape:pageopacity="0.0"
     inkscape:pagecheckerboard="0"
     showgrid="true"
     inkscape:zoom="22.628571"
     inkscape:cx="17.477904"
     inkscape:cy="17.5"
     inkscape:window-width="2560"
     inkscape:window-height="1043"
     inkscape:window-x="0"
     inkscape:window-y="0"
     inkscape:window-maximized="1"
     inkscape:current-layer="svg59" />
  <circle
     cx="17.5"
     cy="17.5"
     r="17"
     stroke="#C4C4C4"
     id="circle57" />
  <path
     d="m 26.495659,12.000792 c -1.4341,-2.4004005 -3.7172,-4.0985704 -6.4286,-4.7817867 -2.7115,-0.683218 -5.52663,-0.26969 -7.92703,1.1645363 -1.19529,0.71418 -2.2320105,1.6569104 -3.0524908,2.7672804 l -0.4737304,-1.8247605 -1.192292,0.30952 1.020252,3.9302605 3.9303012,-1.02025 -0.30952,-1.19233 -1.97012,0.51141 c 0.72173,-0.97163 1.63116,-1.79741 2.67941,-2.4237205 2.11794,-1.2653799 4.60192,-1.6302939 6.99422,-1.0274699 2.3923,0.60282 4.4068,2.1011804 5.6722,4.2190804 0.8612,1.44142 1.3138,3.08576 1.3089,4.7552 l 1.2318,0.0036 c 0.0056,-1.89309 -0.5073,-3.75715 -1.4833,-5.39057 z"
     fill="#c4c4c4"
     id="path185" />
  <path
     d="m 27.546559,25.166762 -1.0174,-3.9311 -3.931,1.0174 0.3086,1.1925 1.9705,-0.5099 c -0.7224,0.9711 -1.6324,1.7961 -2.6811,2.4217 -2.1189,1.2638 -4.603,1.627 -6.99499,1.0223 -2.3919,-0.6045 -4.40526,-2.1043 -5.6690808,-4.2232 -0.8601504,-1.4421 -1.3115404,-3.0867 -1.3054204,-4.7562 l -1.2318403,-0.0045 c -0.00694,1.8932 0.5046013,3.7576 1.4793103,5.3917 1.4324307,2.4015 3.7142412,4.1014 6.4251912,4.7866 0.85629,0.2164 1.7228,0.3234 2.58353,0.3234 1.8645,0 3.7014,-0.5022 5.3443,-1.4822 1.1958,-0.7133 2.2332,-1.6553 3.0545,-2.7651 l 0.4724,1.8252 z"
     fill="#c4c4c4"
     id="path187" />
  <path
     d="m 17.052359,17.868662 v 1.4125 h 1.1551 c 0.3894,0 0.7063,-0.3168 0.7063,-0.7062 0,-0.3894 -0.3169,-0.7063 -0.7063,-0.7063 z"
     fill="#c4c4c4"
     id="path189" />
  <path
     d="m 17.489559,11.198002 c -3.42348,0 -6.20867,2.78518 -6.20867,6.20866 0,3.4234 2.78519,6.2086 6.20867,6.2086 3.4234,0 6.2086,-2.7852 6.2086,-6.2086 0,-3.42348 -2.7852,-6.20866 -6.2086,-6.20866 z m 0.7181,9.31516 h -0.1019 v 0.7833 h -1.23187 v -0.7833 h -1.7922 v -1.2319 h 0.73906 v -3.80558 h -0.73906 v -1.23184 h 1.7922 v -0.78333 h 1.23187 v 0.79643 c 0.8986,0.10643 1.5981,0.87251 1.5981,1.79934 0,0.36771 -0.1104,0.70999 -0.2993,0.99598 0.4508,0.3552 0.7412,0.9055 0.7412,1.5227 0,1.0687 -0.8695,1.9382 -1.9381,1.9382 z"
     fill="#c4c4c4"
     id="path191" />
  <path
     d="m 18.471859,16.056192 c 0,-0.32015 -0.2605,-0.58061 -0.5806,-0.58061 h -0.8389 v 1.16122 h 0.8389 c 0.3201,-4e-5 0.5806,-0.2605 0.5806,-0.58061 z"
     fill="#c4c4c4"
     id="path193" />
</svg>
