<svg xmlns="http://www.w3.org/2000/svg" width="256" height="256" viewBox="0 0 545.26 244.9">
	<defs>
		<style>.b{fill:#43464d;}</style>
	</defs>
	<polygon class="b" points="124.72 58.83 151.41 58.83 206.62 187.94 165.67 187.94 136.42 123.39 109.12 187.94 70.12 187.94 124.72 58.83"/>
	<polygon class="b" points="269.9 58.83 296.59 58.83 351.8 187.94 310.85 187.94 281.6 123.39 254.3 187.94 215.29 187.94 269.9 58.83"/>
	<polygon class="b" points="467.1 104.21 427.92 104.21 427.92 58.83 389.57 58.83 389.57 104.21 348.24 104.21 348.24 142.56 389.57 142.56 389.57 187.94 427.92 187.94 427.92 142.56 467.1 142.56 467.1 104.21"/>
</svg>