<svg width="124" height="124" viewBox="0 0 124 124" fill="none" xmlns="http://www.w3.org/2000/svg">
<circle cx="62" cy="62" r="62" fill="#F9DFBF"/>
<path d="M81.1942 76.3343C81.1568 76.3389 81.1191 76.3421 81.0804 76.3421C80.5729 76.3421 80.1599 75.9313 80.1599 75.4264C80.1599 75.4243 80.1599 75.4223 80.1599 75.4203L75.932 73.045C75.8177 73.1301 75.6765 73.1811 75.5231 73.1811C75.4397 73.1811 75.3601 73.1654 75.2861 73.1381L74.4053 74.0558C74.4283 74.1238 74.4412 74.1963 74.4412 74.2719C74.4412 74.292 74.4399 74.3117 74.4382 74.3313L83.22 79.9647L81.1938 76.3343H81.1942Z" fill="#862633"/>
<path d="M45.6436 80.697L47.9664 87.0054L47.5414 83.7406L45.6436 80.697Z" fill="#862633"/>
<path d="M73.0376 82.2722C73.0573 82.2994 73.0757 82.3274 73.0924 82.3566L82.962 80.7821C82.9595 80.7091 82.9639 80.6361 82.9752 80.5637L74.1163 74.8807L74.4472 80.0693C74.4516 80.1389 74.4325 80.209 74.3935 80.2668L73.0376 82.2722Z" fill="#862633"/>
<path d="M82.46 65.1437L79.2964 70.7816C79.3497 70.8786 79.3802 70.9897 79.3802 71.1077C79.3802 71.263 79.3271 71.4059 79.2388 71.5207L80.9167 74.527C80.9702 74.5174 81.025 74.5115 81.0811 74.5115C81.5887 74.5115 82.0017 74.9223 82.0017 75.4272C82.0017 75.6636 81.9103 75.8787 81.7619 76.0413L83.6755 79.47L82.46 65.1437Z" fill="#862633"/>
<path d="M85.4346 50.1459C85.4346 50.0755 85.4441 50.0072 85.4597 49.9413L79.82 46.2143C79.7033 46.287 79.5659 46.3298 79.4183 46.3298C78.9994 46.3298 78.6586 45.9908 78.6586 45.5741C78.6586 45.5331 78.6628 45.4931 78.6691 45.4538L76.6079 44.0916L81.3462 51.6249L85.4346 50.1459Z" fill="#862633"/>
<path fill-rule="evenodd" clip-rule="evenodd" d="M50.8494 73.7988C50.9713 73.9023 51.1236 73.9705 51.2892 73.9977L52.4475 78.4548C52.2938 78.5836 52.2037 78.7658 52.2188 78.9626C52.2314 79.1268 52.3157 79.2734 52.4441 79.3823L50.863 85.2837L48.1914 83.4934L49.6494 74.28C49.7279 74.1974 49.7825 74.102 49.812 74L50.8166 73.7681C50.8194 73.7707 50.8222 73.7734 50.825 73.7761C50.8329 73.7838 50.8408 73.7915 50.8494 73.7988ZM51.7719 79.4997C51.6699 79.3463 51.609 79.1747 51.5952 78.9968C51.5773 78.7634 51.6418 78.5332 51.7763 78.3337L50.9789 75.2658L50.8493 82.2767L51.0368 82.2432L51.7719 79.4997Z" fill="#862633"/>
<path d="M51.8078 36.5474C51.8078 36.8337 51.7026 37.1032 51.5122 37.3148L55.2292 43.3102L60.5676 31.5898L62.5925 27.1442L51.7044 36.0725C51.7714 36.2199 51.8078 36.3807 51.8078 36.5474Z" fill="#862633"/>
<path d="M79.4197 44.8182C79.5713 44.8182 79.7123 44.8631 79.831 44.9395L84.5676 41.6474L81.7533 41.6415C81.7093 41.7578 81.641 41.8672 81.547 41.9606C81.3755 42.1312 81.1475 42.2251 80.9051 42.2251C80.6626 42.2251 80.4346 42.1312 80.2631 41.9606C80.2467 41.9443 80.2317 41.9269 80.2168 41.9097L76.309 43.1122C76.3081 43.1176 76.3072 43.1228 76.3066 43.128L79.0289 44.9271C79.1433 44.8585 79.2767 44.8182 79.4197 44.8182Z" fill="#862633"/>
<path d="M50.4869 66.4932L49.8291 71.3632L50.542 70.0172L50.4869 66.4932Z" fill="#862633"/>
<path d="M49.6145 65.6345L44.8081 77.4198C44.8332 77.4498 44.8568 77.4812 44.8767 77.5156C44.9702 77.6765 44.995 77.864 44.9466 78.0436C44.928 78.1128 44.8991 78.1773 44.8618 78.2362L47.6519 82.7109L48.7549 74.543C48.6029 74.5199 48.4624 74.4503 48.3515 74.34C48.0674 74.0574 48.0674 73.5975 48.3515 73.3147C48.4891 73.1778 48.6722 73.1024 48.8668 73.1024C48.8805 73.1024 48.8939 73.1037 48.9074 73.1044L48.9636 72.9982L49.9718 65.533C49.8644 65.5967 49.7423 65.632 49.6145 65.6345Z" fill="#862633"/>
<path fill-rule="evenodd" clip-rule="evenodd" d="M94.7336 52.0159C94.7312 52.04 94.7298 52.0644 94.7298 52.0891C94.7298 52.435 94.9648 52.7265 95.2842 52.8159L96.52 59.3762C96.4745 59.3939 96.4303 59.4143 96.3875 59.4377L87.1952 50.5231C87.2461 50.4094 87.2751 50.284 87.2751 50.1518C87.2751 49.8193 87.0954 49.5285 86.8281 49.3681L87.2943 46.9071C87.4265 46.8847 87.5494 46.8352 87.6561 46.763L94.7336 52.0159ZM94.7128 57.0728L95.7314 58.0607L94.8125 53.1822C94.4955 52.9869 94.2743 52.661 94.2145 52.291L93.8914 52.0512L93.3911 54.0523L94.7128 57.0728Z" fill="#862633"/>
<path fill-rule="evenodd" clip-rule="evenodd" d="M52.9306 79.5566C52.9603 79.5516 52.9893 79.5457 53.0179 79.5388L55.4403 80.9759C55.404 81.0637 55.3882 81.1561 55.3969 81.2502C55.4043 81.3316 55.4296 81.4093 55.4689 81.4819L51.2129 84.9044L52.9306 79.5566ZM52.9586 81.8609L54.2369 81.6714L54.6572 81.3334C54.6547 81.317 54.6529 81.3005 54.6513 81.2841C54.6488 81.2545 54.6473 81.225 54.6474 81.1954L53.4083 80.4604L52.9586 81.8609Z" fill="#862633"/>
<path d="M78.6943 70.4257C78.7169 70.4257 78.7393 70.4269 78.7614 70.429L80.413 67.4856L81.9528 64.7414C81.9125 64.703 81.8757 64.6611 81.8428 64.6161L76.7152 65.8778C76.68 66.0166 76.6125 66.1462 76.5149 66.2568C76.4718 66.3056 76.4242 66.3489 76.373 66.3869L78.629 70.429C78.6505 70.4269 78.6723 70.4257 78.6943 70.4257Z" fill="#862633"/>
<path d="M80.1717 45.4784C80.1758 45.51 80.1786 45.542 80.1786 45.5747C80.1786 45.6114 80.1751 45.6472 80.1699 45.6825L85.8145 49.4127C85.8676 49.374 85.9248 49.3406 85.9856 49.3139L85.5646 42.2233C85.4109 42.193 85.2685 42.1228 85.1487 42.0191L80.1717 45.4784Z" fill="#862633"/>
<path d="M81.9986 58.5003L95.8459 60.0819C95.869 60.0134 95.8983 59.9474 95.9339 59.8843L89.4749 53.6204L86.7493 50.9772C86.6297 51.034 86.4964 51.0666 86.3552 51.0666C86.2934 51.0666 86.233 51.0603 86.1745 51.0487L81.7993 58.112C81.8947 58.2217 81.964 58.3541 81.9986 58.5003Z" fill="#862633"/>
<path d="M86.8924 46.7885C86.7345 46.7437 86.5914 46.6889 86.4668 46.6256L86.584 47.558L86.8924 46.7885Z" fill="#862633"/>
<path d="M76.4426 64.5339L76.3252 64.8865C76.4603 64.9743 76.5707 65.0966 76.6444 65.2409L81.6724 64.0037C81.71 63.56 82.0689 63.1968 82.5289 63.1671C82.5491 63.1657 82.5692 63.1651 82.5892 63.1651C82.912 63.1651 83.1984 63.3334 83.3628 63.5878L89.0279 62.1939L93.8006 61.0195L77.3466 61.8186L76.4426 64.5339Z" fill="#862633"/>
<path fill-rule="evenodd" clip-rule="evenodd" d="M94.1348 46.7051L95.0265 51.4389L88.0732 46.2782C89.3287 46.2355 91.6436 46.1754 93.349 46.1335C93.4772 46.4501 93.7778 46.679 94.1348 46.7051Z" fill="#862633"/>
<path d="M84.3287 79.6078C84.4004 79.6207 84.4702 79.6405 84.5376 79.6664L96.1939 61.3263C96.1707 61.3065 96.1476 61.2866 96.1258 61.2648C96.0834 61.2227 96.0459 61.1771 96.0111 61.13L83.5005 64.2085C83.4621 64.4791 83.3034 64.715 83.0771 64.8563L83.9662 75.3356L84.3287 79.6078Z" fill="#862633"/>
<path d="M87.1411 45.0897C87.5201 45.0897 87.8461 45.3189 87.9871 45.645C88.0704 45.6423 88.1595 45.6394 88.2567 45.6362C88.8488 45.6168 89.6756 45.5928 90.7141 45.5651C91.5632 45.5424 92.4113 45.5209 93.0673 45.5045L86.4 41.9596C86.3948 41.9649 86.3904 41.9708 86.385 41.9761C86.3287 42.0322 86.2658 42.079 86.1987 42.1179L86.3976 45.4677C86.5652 45.2391 86.8355 45.0897 87.1411 45.0897Z" fill="#862633"/>
<path fill-rule="evenodd" clip-rule="evenodd" d="M80.7535 40.4329L75.8848 34.2107V34.2105C75.9114 34.1545 75.9303 34.0945 75.9411 34.0319C77.343 33.5499 80.4763 32.371 81.9335 31.8199C82.0503 31.9063 82.1942 31.9577 82.3485 31.9577C82.3669 31.9577 82.3854 31.9571 82.404 31.9556H82.4051L85.2996 40.5499C85.2281 40.59 85.1613 40.6394 85.1017 40.6987C85.0091 40.7908 84.9412 40.8983 84.8971 41.0128L81.7543 41.0062C81.7103 40.8888 81.6417 40.7783 81.5469 40.684C81.3754 40.5134 81.1475 40.4195 80.905 40.4195C80.8537 40.4195 80.8031 40.4247 80.7535 40.4329ZM82.0066 32.4397C81.969 32.4288 81.932 32.4161 81.8956 32.4016C81.344 32.61 80.5669 32.9026 79.7418 33.2107L82.005 33.736L82.7051 36.1311L83.6419 37.2952L82.0066 32.4397Z" fill="#862633"/>
<path d="M65.4574 48.1956C65.4584 48.1956 65.4584 48.1966 65.4587 48.197L74.7953 43.0658C74.7944 43.0548 74.7936 43.0441 74.7936 43.0332C74.7936 42.892 74.8334 42.7603 74.9014 42.6471L63.8271 27.1038L64.8994 47.8884C65.109 47.9364 65.3017 48.0407 65.4574 48.1956Z" fill="#862633"/>
<path d="M63.8075 48.2053C63.8106 48.2022 63.8132 48.1987 63.8164 48.1955C63.9433 48.0692 64.0951 47.977 64.2602 47.9208L63.1989 27.3498L55.6851 43.8459L63.8075 48.2053Z" fill="#862633"/>
<path d="M81.5579 54.7372L81.4688 57.4042L84.9691 51.7771L81.5579 54.7372Z" fill="#862633"/>
<path d="M75.5526 42.2776C75.7679 42.2776 75.9621 42.3675 76.1005 42.5112L79.9972 41.3119C79.9995 41.1149 80.0658 40.9187 80.1965 40.7571L75.378 34.5992C75.3546 34.6034 75.3307 34.6066 75.3065 34.6084C75.288 34.6099 75.2694 34.6106 75.2511 34.6106C74.8888 34.6106 74.5827 34.329 74.5542 33.9694C74.5506 33.925 74.5518 33.8811 74.5565 33.8383L72.1793 32.2482C72.0646 32.3175 71.9305 32.3582 71.7867 32.3582C71.3678 32.3582 71.027 32.0192 71.027 31.6026C71.027 31.5622 71.0312 31.523 71.0373 31.4843L68.5921 29.8488C68.5921 29.8488 68.5921 29.8487 68.5921 29.8488L65.3459 27.6777L64.7207 27.2594L75.4288 42.2888C75.4693 42.2821 75.5105 42.2778 75.5528 42.2778" fill="#862633"/>
<path d="M81.1026 59.6263C80.8975 59.6263 80.7072 59.558 80.5533 59.4434L78.1768 61.1418L83.6966 60.8737L87.0747 60.7097L93.1486 60.4147L81.9196 59.132C81.8856 59.1968 81.8446 59.2584 81.7949 59.3147C81.6327 59.4985 81.4082 59.6084 81.1629 59.6243C81.1427 59.6256 81.1225 59.6263 81.1026 59.6263Z" fill="#862633"/>
<path d="M70.0813 29.425L69.2475 28.0623C69.2217 28.0673 69.1954 28.0712 69.1688 28.0733C69.1503 28.0748 69.1317 28.0755 69.1134 28.0755C68.8276 28.0755 68.5773 27.8999 68.4701 27.6493L66.502 27.6843L68.8864 29.2791L70.0813 29.425Z" fill="#862633"/>
<path fill-rule="evenodd" clip-rule="evenodd" d="M72.5473 31.0006C72.5473 30.4449 72.2065 29.9928 71.7876 29.9928C71.7588 29.9928 71.7304 29.9953 71.7024 29.9994L71.313 29.1507L81.1592 30.7538L75.7286 33.4068C75.603 33.2512 75.435 33.1561 75.2528 33.1561C75.2345 33.1561 75.2159 33.1571 75.1973 33.159C75.0931 33.1699 74.9964 33.2115 74.9107 33.2756L72.537 31.1582C72.5431 31.1067 72.5473 31.0544 72.5473 31.0006ZM76.6709 32.1943L78.9107 31.1L72.8964 30.1208C72.9861 30.319 73.0466 30.543 73.0696 30.7823L73.5795 31.2372L76.6709 32.1943Z" fill="#862633"/>
<path d="M70.7577 30.5306L70.5046 30.1169L70.0576 30.0623L70.7577 30.5306Z" fill="#862633"/>
<path fill-rule="evenodd" clip-rule="evenodd" d="M50.6475 35.3933C50.3377 35.3933 50.0465 35.5133 49.8275 35.7312C49.7686 35.7899 49.7178 35.8534 49.6742 35.9203L39.0767 32.9227L59.8178 28.5946L51.2908 35.5867C51.102 35.4609 50.88 35.3933 50.6475 35.3933ZM55.8219 31.1845L57.8087 29.5553L45.656 32.0912L55.8219 31.1845Z" fill="#862633"/>
<path fill-rule="evenodd" clip-rule="evenodd" d="M65.0365 84.5181C65.1115 84.3856 65.1469 84.2342 65.1368 84.0788H65.1371C65.1098 83.6627 64.7603 83.3367 64.3414 83.3367C64.3242 83.3367 64.3067 83.3372 64.2893 83.3385C64.0766 83.3522 63.882 83.4475 63.7415 83.6067C63.6338 83.7288 63.568 83.8773 63.5492 84.0351L59.198 85.5625L55.6841 81.5838C55.7561 81.455 55.7936 81.3053 55.7833 81.1476C55.7561 80.7315 55.4066 80.4056 54.9877 80.4056C54.9704 80.4056 54.9529 80.406 54.9355 80.4072C54.828 80.4142 54.7254 80.442 54.6318 80.4883L52.9253 79.0663C52.9392 79.0055 52.9445 78.9423 52.9403 78.8783C52.9213 78.5884 52.7124 78.3523 52.4397 78.2859L51.4522 73.8333C51.4538 73.8319 51.4554 73.8306 51.457 73.8292C51.468 73.8196 51.4792 73.8099 51.4897 73.7995C51.6273 73.6625 51.7031 73.4805 51.7031 73.2868C51.7031 73.0932 51.6273 72.9111 51.4897 72.7742C51.352 72.6373 51.169 72.5619 50.9743 72.5619C50.7797 72.5619 50.5966 72.6373 50.459 72.7742C50.3527 72.88 50.2838 73.0127 50.2577 73.1569L49.5612 73.3453L49.5816 73.1946L51.1452 70.2425C51.1701 70.1954 51.1829 70.1424 51.182 70.0892L51.0647 62.5962C51.1678 62.5536 51.2625 62.4908 51.3438 62.4098C51.6808 62.0747 51.6808 61.5292 51.3438 61.1939C51.1805 61.0316 50.9635 60.9422 50.7326 60.9422C50.624 60.9422 50.5188 60.9626 50.4205 61.0005L48.4075 59.0756C48.4491 58.981 48.476 58.8783 48.4831 58.7698C48.4991 58.5258 48.4185 58.2901 48.2563 58.1063C48.1274 57.9603 47.9589 57.8618 47.772 57.8192L47.3433 54.7103L50.4695 51.8629C50.5457 51.8895 50.6265 51.9042 50.7097 51.9042C50.9033 51.9042 51.0853 51.8292 51.2222 51.693C51.5047 51.4119 51.5047 50.9545 51.2222 50.6734C51.154 50.6056 51.0746 50.5529 50.9881 50.5172C50.9644 48.4696 50.8773 40.6928 50.8851 37.6763C50.9143 37.6703 50.9431 37.663 50.9716 37.6549L54.9998 44.1523C55.001 44.1543 55.0025 44.156 55.004 44.1577C55.0058 44.1596 55.0076 44.1615 55.0091 44.1638C55.0193 44.1787 55.0307 44.1927 55.0436 44.2059L55.0464 44.2088C55.0502 44.2126 55.0539 44.2165 55.058 44.2202C55.0749 44.2354 55.0932 44.2493 55.1137 44.2609L55.1139 44.261C55.1149 44.2615 55.1157 44.262 55.1167 44.2629C55.1179 44.2635 55.1188 44.2642 55.12 44.2651L63.5046 48.7651C63.4872 48.8453 63.4774 48.9277 63.4774 49.0118C63.4774 49.3199 63.598 49.6096 63.8171 49.8275C64.0361 50.0454 64.3274 50.1654 64.6371 50.1654C64.9468 50.1654 65.238 50.0454 65.4571 49.8275C65.6761 49.6096 65.7967 49.3199 65.7967 49.0118C65.7967 48.9239 65.7859 48.8377 65.7667 48.7541L75.0891 43.6308C75.2176 43.7297 75.3783 43.7893 75.553 43.7893C75.5891 43.7893 75.6244 43.7858 75.6592 43.781L80.9424 52.1805C81.0011 52.2741 81.1025 52.3299 81.2132 52.3299C81.2504 52.3299 81.2872 52.3234 81.3224 52.3106L84.8537 51.0333L81.0329 54.3488C80.9663 54.4065 80.9265 54.49 80.9236 54.5778L80.8146 57.8423C80.4267 57.9703 80.1576 58.3457 80.1853 58.7698C80.1884 58.8175 80.1962 58.8637 80.2063 58.909L76.9257 61.2535C76.9246 61.2543 76.9237 61.2551 76.9227 61.256C76.922 61.2567 76.9212 61.2574 76.9204 61.258C76.9181 61.2597 76.916 61.2616 76.9139 61.2634C76.9126 61.2646 76.9114 61.2657 76.9101 61.2668C76.9009 61.2743 76.8918 61.2817 76.8837 61.2899C76.8625 61.3114 76.8446 61.3361 76.8302 61.3629L76.8256 61.3614L76.8088 61.4116V61.4117L76.0942 63.5583L75.6985 64.7469C75.4789 64.7765 75.2794 64.8818 75.1318 65.0491C74.9695 65.2328 74.889 65.4686 74.9049 65.7126C74.9345 66.1656 75.2952 66.5255 75.7416 66.5649L78.0942 70.7801C78.0403 70.8774 78.0095 70.9889 78.0095 71.1076C78.0095 71.4706 78.2963 71.7673 78.6563 71.7873L79.6215 73.5166L80.33 74.7859L76.2073 72.47C76.1914 72.1083 75.8913 71.8187 75.5237 71.8187C75.146 71.8187 74.8387 72.1244 74.8387 72.5002C74.8387 72.5566 74.8463 72.6111 74.8594 72.6636L73.9437 73.6175C73.8842 73.6007 73.8216 73.5911 73.7567 73.5911C73.379 73.5911 73.0716 73.8968 73.0716 74.2726C73.0716 74.5489 73.238 74.7868 73.4762 74.8937L73.802 80.0021L72.5071 81.9176C72.4376 81.9009 72.3656 81.8911 72.291 81.8911C71.7835 81.8911 71.3706 82.3019 71.3706 82.8068C71.3706 82.9155 71.3907 83.0193 71.4258 83.1162L67.8628 86.102C67.8603 86.1041 67.8581 86.1064 67.8558 86.1088C67.8542 86.1104 67.8526 86.1121 67.8509 86.1137C67.8459 86.1184 67.841 86.1231 67.8362 86.1281C67.828 86.1367 67.8207 86.1457 67.8137 86.1551L67.8124 86.1568C67.8091 86.1611 67.8057 86.1653 67.8027 86.1699C67.7954 86.1808 67.7892 86.1922 67.7833 86.204C67.7811 86.2083 67.7786 86.2124 67.7766 86.2168C67.7616 86.2504 67.7529 86.2864 67.7503 86.323C67.7503 86.3236 67.7501 86.3242 67.7498 86.3249C67.7496 86.3255 67.7494 86.3261 67.7494 86.3268L67.6434 88.1599L65.0365 84.5181ZM64.2546 82.8095C64.2835 82.8077 64.3125 82.8067 64.3414 82.8067L64.3416 82.8065C65.0404 82.8065 65.6233 83.35 65.6687 84.044C65.6774 84.1779 65.6658 84.311 65.6348 84.4394L66.7188 85.9539L67.2169 86.3415L67.2228 86.2467C67.2327 86.1623 67.2551 86.0803 67.2896 86.0024L67.3106 85.96C67.3264 85.9291 67.342 85.9022 67.3595 85.876C67.3683 85.8629 67.3773 85.8506 67.3864 85.8386C67.4066 85.8119 67.4267 85.7877 67.4484 85.7648C67.4579 85.7547 67.4678 85.7448 67.4781 85.735C67.4914 85.7216 67.5051 85.7088 67.5196 85.6965L70.842 82.9125C70.8392 82.8772 70.8379 82.8419 70.8379 82.8065C70.8379 82.0284 71.4594 81.3922 72.2344 81.3625L72.2664 81.3239L73.259 79.8557L72.9613 75.1884C72.6977 74.9616 72.5391 74.6287 72.5391 74.2724C72.5391 73.6096 73.0767 73.0694 73.741 73.0612L74.3063 72.4724C74.3212 71.8171 74.8615 71.2887 75.5236 71.2887C75.6562 71.2887 75.7836 71.3099 75.903 71.3487L76.4556 68.9355L75.3938 67.0329C74.8321 66.8577 74.4127 66.3482 74.3735 65.7467C74.3482 65.3614 74.4755 64.9895 74.7315 64.6993C74.8828 64.5279 75.0719 64.3958 75.2822 64.3121L76.231 61.4616C76.2363 61.4457 76.2412 61.4286 76.2463 61.4112L76.2481 61.4048C76.2809 61.2915 76.3305 61.1206 76.4555 60.9719C76.537 60.8753 76.6271 60.8127 76.6868 60.7712L76.6875 60.7708L76.7128 60.7531L79.652 58.6526C79.6704 58.1889 79.9127 57.7665 80.2927 57.5121L80.3912 54.56C80.3991 54.326 80.5052 54.1034 80.6827 53.9494L82.3505 52.5022L81.5043 52.8083C81.4101 52.8422 81.3123 52.8594 81.2131 52.8594C80.9176 52.8594 80.6474 52.7105 80.4907 52.4612L76.3615 45.8961L74.4751 44.5732L66.3288 49.0501C66.3191 49.4853 66.144 49.8929 65.8337 50.2017C65.5139 50.5198 65.0889 50.6948 64.637 50.6948C64.1851 50.6948 63.7601 50.5198 63.4404 50.2019C63.1339 49.897 62.9595 49.4957 62.9457 49.0669L54.8187 44.7022C54.7773 44.6762 54.7374 44.646 54.6999 44.6121C54.689 44.6024 54.6763 44.59 54.6638 44.577C54.635 44.5474 54.61 44.5181 54.5877 44.4881C54.576 44.4736 54.5618 44.4546 54.5475 44.4318L53.818 43.2551L51.435 41.8248C51.4582 44.9341 51.4981 48.5558 51.5172 50.2242C51.5453 50.2477 51.5725 50.2725 51.5987 50.2986C51.8359 50.5346 51.9667 50.8486 51.9667 51.1829C51.9667 51.5172 51.8359 51.8314 51.5986 52.0674C51.3432 52.3214 50.9938 52.4535 50.6337 52.4313L47.9087 54.9132L48.2571 57.4395C48.4069 57.52 48.5418 57.6267 48.6565 57.7566C48.9125 58.0468 49.0397 58.4187 49.0144 58.804C49.0122 58.8397 49.0085 58.8751 49.0034 58.9105L50.5823 60.4202C50.6321 60.4149 50.6823 60.4121 50.7325 60.4121C51.1056 60.4121 51.4564 60.5567 51.7204 60.8192C52.2648 61.361 52.2648 62.2425 51.7204 62.7843C51.6825 62.8218 51.643 62.857 51.6018 62.8896L51.7144 70.0807C51.7167 70.222 51.6829 70.3634 51.6163 70.489L50.7923 72.0447C50.8521 72.0361 50.9128 72.0318 50.9742 72.0318C51.3113 72.0318 51.628 72.1623 51.8662 72.3995C52.1044 72.6363 52.2356 72.9515 52.2356 73.2866C52.2356 73.535 52.1634 73.7726 52.0289 73.9754L52.9013 77.9083C53.2243 78.1021 53.4405 78.4405 53.4706 78.8294L54.7511 79.8964C54.8004 79.8876 54.8504 79.8816 54.9009 79.8783C54.9297 79.8765 54.9588 79.8755 54.9877 79.8755C55.6863 79.8755 56.2693 80.4191 56.3146 81.113C56.3225 81.2323 56.3139 81.3511 56.2897 81.4668L58.7691 84.2741L59.5126 84.8899L63.1101 83.6272C63.1654 83.4928 63.2432 83.368 63.3412 83.2569C63.5755 82.9914 63.8999 82.8324 64.2546 82.8095Z" fill="#862633"/>
<path d="M64.0239 84.8574C63.9119 84.8088 63.8128 84.7354 63.7341 84.6437L59.1973 86.2364L64.052 92.5458L64.0435 90.2223L64.0239 84.8574Z" fill="#862633"/>
<path d="M68.3526 90.1574C68.2679 90.1894 68.178 90.209 68.085 90.2151C68.0648 90.2163 68.0447 90.2169 68.0247 90.2169C67.5413 90.2169 67.1381 89.8409 67.1067 89.3607C67.092 89.1356 67.1612 88.9243 67.2869 88.756L64.665 85.0934L64.6945 93.1568L70.0079 92.2038L68.3526 90.1574Z" fill="#862633"/>
<path d="M70.7208 92.072L73.0045 91.6121L69.0996 90.0685L70.7208 92.072Z" fill="#862633"/>
<path d="M50.2654 64.2679C50.2747 64.2777 50.2832 64.2884 50.2926 64.2981L50.3126 64.1517L50.2654 64.2679Z" fill="#862633"/>
<path d="M48.7681 90.5797C48.7505 90.5808 48.7331 90.5814 48.7158 90.5814C48.5475 90.5814 48.3908 90.5281 48.2613 90.4381L45.9072 92.0397L49.2355 92.2914L57.6107 92.925L49.3026 90.3248C49.1631 90.4757 48.9743 90.5662 48.7681 90.5797Z" fill="#862633"/>
<path d="M54.6924 81.9363L51.2129 85.867L59.5459 92.4097L54.9208 81.9896C54.8409 81.983 54.7642 81.9649 54.6924 81.9363Z" fill="#862633"/>
<path d="M69.4258 89.513L71.2834 90.2473L81.7764 86.778L69.4258 89.513Z" fill="#862633"/>
<path d="M60.3267 92.5931C60.6216 92.6463 60.8621 92.8623 60.9479 93.1463L63.7563 93.2056L56.2939 83.5075L60.3267 92.5931Z" fill="#862633"/>
<path d="M59.1109 85.7918L59.385 86.1253L59.2237 85.6997L59.1109 85.7918Z" fill="#862633"/>
<path fill-rule="evenodd" clip-rule="evenodd" d="M87.1172 76.7955L96.7813 61.5899C96.8336 61.5972 96.8863 61.6024 96.94 61.6024L97.4443 64.2796L94.9575 67.3173C94.9 67.3042 94.8406 67.2966 94.7795 67.2966C94.7619 67.2966 94.7443 67.2972 94.7266 67.2984C94.5111 67.3123 94.3141 67.4089 94.1716 67.5702C94.0292 67.7316 93.9584 67.9385 93.9725 68.1529C93.9789 68.2507 94.0035 68.3434 94.0419 68.4285L87.1172 76.7955ZM94.7001 66.7696C94.7068 66.7691 94.7133 66.7686 94.7199 66.7686L96.8752 64.1359L96.6279 62.8229L93.9294 67.0688C94.1444 66.8929 94.4087 66.7884 94.6919 66.7701C94.6947 66.77 94.6974 66.7698 94.7001 66.7696Z" fill="#862633"/>
<path d="M70.6037 92.7426L68.3579 93.1453L72.7308 93.0647L73.3687 92.1867L70.6039 92.7436V92.7426H70.6037Z" fill="#862633"/>
<path d="M85.2736 80.6503C85.2963 80.9354 85.2135 81.2271 85.0244 81.4621L87.407 84.1563C87.4936 84.1294 87.5856 84.1148 87.681 84.1148C87.7432 84.1148 87.8039 84.1212 87.8627 84.1329L89.2026 80.663C89.0285 80.4963 88.9196 80.2628 88.9196 80.0039C88.9196 79.499 89.3325 79.0883 89.8401 79.0883C89.9599 79.0883 90.0742 79.1118 90.1792 79.1535L93.362 76.2242L91.2387 77.386L85.2736 80.6503Z" fill="#862633"/>
<path fill-rule="evenodd" clip-rule="evenodd" d="M98.9367 61.8481L99.3559 64.0733H99.3567C99.4434 64.5338 99.3227 65.0062 99.0253 65.3696L96.864 68.0096C96.8831 68.4347 96.773 68.8471 96.5483 69.2024L97.0874 74.5907L97.0897 74.6147L97.0907 74.6387C97.0929 74.7038 97.0914 74.7657 97.0862 74.8275L97.0853 74.8377L97.0842 74.8479L97.0802 74.8828L97.0793 74.889L97.0783 74.8952C97.0693 74.9635 97.057 75.0279 97.0411 75.089C97.0359 75.1095 97.0294 75.1327 97.0212 75.1598C97.0025 75.2203 96.981 75.2777 96.9555 75.3353C96.9452 75.359 96.9345 75.3822 96.9218 75.4073C96.8802 75.4895 96.8321 75.5676 96.7787 75.6392L96.7718 75.6485L96.7647 75.6575L96.741 75.6874L96.7375 75.6918L96.7339 75.6961C96.7073 75.7287 96.6793 75.7604 96.6507 75.7901L96.6453 75.7958L96.6399 75.8014L96.6036 75.8376L96.5925 75.8488L96.5809 75.8595L92.038 80.0405C92.024 80.9051 91.5104 81.6595 90.7395 82.0007L89.7977 84.4393C89.8519 84.6304 89.8793 84.8282 89.8793 85.0306C89.8793 86.2365 88.893 87.2177 87.6806 87.2177C87.5247 87.2177 87.3708 87.2014 87.2203 87.1693L75.1656 92.9699L74.1916 94.3104C73.899 94.7131 73.4261 94.9593 72.9264 94.9685L65.6661 95.1025L65.6648 95.15L64.926 95.1364L64.3735 95.1263L63.8096 95.1371L63.0498 95.1515V95.0984L61.3774 95.063C61.0676 95.2799 60.7015 95.4095 60.3189 95.4342C60.274 95.4372 60.2281 95.4387 60.1827 95.4387C59.6761 95.4387 59.1947 95.2562 58.8192 94.9293L46.1767 93.9729C45.8654 94.1927 45.4974 94.3238 45.1102 94.3488C45.0655 94.3517 45.0201 94.3532 44.9752 94.3532C44.4689 94.3532 43.9775 94.1644 43.602 93.8359L32.3484 93.4889C32.0382 93.6592 31.6886 93.7491 31.3345 93.7491C30.5876 93.7491 29.8913 93.3493 29.5176 92.7057C29.2374 92.2231 29.163 91.6607 29.3081 91.1224C29.4531 90.584 29.8001 90.1341 30.2852 89.8554C30.6032 89.6728 30.9666 89.5763 31.3362 89.5763C31.4114 89.5764 31.4864 89.5804 31.5607 89.5884L37.3835 87.2731L37.2383 73.9012C36.8764 73.5076 36.6781 73.001 36.6781 72.4641C36.6781 71.9252 36.8778 71.4168 37.2426 71.0223L37.3621 62.377L37.3622 62.3676V62.3582L37.4048 61.2729C37.0886 60.8923 36.9167 60.4186 36.9167 59.9184C36.9167 59.3899 37.1087 58.8908 37.4603 58.4996L37.4462 38.6554C37.4186 38.618 37.3926 38.5797 37.3678 38.5406L30.7439 35.1764C30.5559 35.2284 30.3607 35.2552 30.1658 35.2552C28.9716 35.2552 28 34.2887 28 33.1008C28 31.9128 28.9716 30.9463 30.1658 30.9463C30.6544 30.9463 31.1261 31.1113 31.5049 31.4077L36.483 31.311C36.8725 30.9805 37.3673 30.7962 37.8853 30.7962C38.2239 30.7962 38.5516 30.8733 38.8493 31.0213L60.3093 26.5434L61.4571 25.6021C61.6519 24.6794 62.4671 24 63.4506 24C64.348 24 65.127 24.5856 65.3921 25.4105L65.9536 25.7861L68.0039 25.7498C68.2854 25.5606 68.6145 25.4449 68.9563 25.4181C69.0085 25.414 69.0613 25.4119 69.1137 25.4119C70.1376 25.4119 71.003 26.2081 71.0837 27.2244C71.0886 27.2852 71.0905 27.3461 71.0896 27.4072L71.6583 28.3364L81.4135 29.5272C81.6526 29.3996 81.9165 29.3224 82.1909 29.3008C82.2437 29.2967 82.2973 29.2945 82.3501 29.2945C83.3736 29.2945 84.2386 30.0908 84.3192 31.107C84.3318 31.2661 84.3252 31.4245 84.2995 31.5803L86.9823 39.5462C87.0914 39.6209 87.1937 39.7055 87.2882 39.7995C87.4972 40.0075 87.6601 40.254 87.7692 40.525L88.3279 40.8221L88.3345 40.8255L88.3409 40.8292L89.5967 41.5291L90.56 42.0092L90.5688 42.0135L90.5775 42.0182L93.6808 43.6682C93.8516 43.6267 94.0272 43.6053 94.2014 43.6053C95.4137 43.6053 96.4 44.5864 96.4 45.7924C96.4 46.1685 96.3003 46.5393 96.1147 46.8662L96.8082 50.5421C97.259 50.9223 97.5277 51.4871 97.5277 52.0887C97.5277 52.4261 97.4419 52.7582 97.2819 53.0528L98.2965 58.4307C98.4294 58.5189 98.5537 58.6204 98.6683 58.7344C99.1288 59.1924 99.3824 59.8013 99.3824 60.4493C99.3824 60.9574 99.2263 61.4417 98.9367 61.8481ZM98.034 64.5673L95.4751 67.693C95.538 67.7985 95.5775 67.9194 95.586 68.0492C95.6001 68.2635 95.5293 68.4704 95.3869 68.6317C95.3376 68.6875 95.2815 68.735 95.2207 68.7746L95.8124 74.6634V74.668V74.6787C95.8133 74.693 95.8133 74.7073 95.8115 74.7213C95.8115 74.7247 95.8109 74.7282 95.8103 74.7316C95.8101 74.7328 95.8099 74.734 95.8098 74.7352C95.8081 74.7484 95.8056 74.7614 95.8023 74.7742C95.8011 74.7789 95.7999 74.7835 95.7985 74.7881C95.7944 74.8015 95.7893 74.8145 95.7834 74.8273L95.7816 74.8314C95.7812 74.8326 95.7807 74.8337 95.7802 74.8349C95.7798 74.8358 95.7794 74.8367 95.7789 74.8376C95.7708 74.8537 95.7615 74.8691 95.7507 74.8835C95.7497 74.885 95.7483 74.8863 95.7472 74.8877C95.7374 74.9005 95.7265 74.9125 95.7148 74.9237L95.7127 74.926L95.7106 74.9283L90.6548 79.5816C90.7214 79.7082 90.7596 79.8519 90.7596 80.0045C90.7596 80.5094 90.3468 80.9202 89.8392 80.9202C89.8277 80.9202 89.8164 80.9194 89.8051 80.9187L89.7881 80.9176L88.4128 84.4791C88.5301 84.6327 88.6005 84.8237 88.6005 85.0309C88.6005 85.5359 88.1876 85.9467 87.6801 85.9467C87.4874 85.9467 87.3084 85.8872 87.1604 85.786L74.3181 91.9656L73.1551 93.5662C73.0965 93.6467 73.0019 93.696 72.902 93.6978L64.4212 93.8542V93.8562L64.3735 93.8551L64.3274 93.8561V93.8542L60.8673 93.7811C60.8426 93.822 60.8145 93.8612 60.7822 93.8978C60.6417 94.0571 60.4471 94.1524 60.2345 94.1662C60.217 94.1672 60.1995 94.1678 60.1822 94.1678C59.8626 94.1678 59.584 93.9779 59.4575 93.7031L45.6793 92.6607C45.6504 92.7144 45.6161 92.7654 45.5747 92.8122C45.4342 92.9716 45.2396 93.0669 45.027 93.0806C45.0095 93.0817 44.992 93.0823 44.9748 93.0823C44.6423 93.0823 44.3542 92.8766 44.2356 92.5839L31.9452 92.205C31.8878 92.269 31.8203 92.3247 31.7434 92.3689C31.6188 92.4404 31.4774 92.4782 31.3341 92.4782C31.042 92.4782 30.7699 92.322 30.624 92.0706C30.5145 91.882 30.4855 91.6623 30.5421 91.452C30.5988 91.2417 30.7344 91.0659 30.9239 90.957C31.0484 90.8855 31.1899 90.8477 31.3332 90.8477C31.4483 90.8477 31.5599 90.8728 31.6623 90.9176L38.6705 88.131L38.5091 73.2666C38.398 73.2239 38.2957 73.1589 38.2089 73.0726C38.0457 72.9102 37.9558 72.6943 37.9558 72.4647C37.9558 72.235 38.0457 72.019 38.2089 71.8567C38.2963 71.7697 38.3994 71.7045 38.5116 71.6618L38.6393 62.4084L38.7062 60.7035C38.6113 60.6611 38.5237 60.6023 38.4479 60.5269C38.2846 60.3645 38.1947 60.1486 38.1947 59.9189C38.1947 59.6893 38.2846 59.4734 38.4479 59.311C38.5323 59.2271 38.6312 59.1631 38.7388 59.1204L38.7237 38.1138C38.6597 38.081 38.6002 38.0385 38.5477 37.9864C38.4421 37.8813 38.3778 37.7508 38.3539 37.6144L30.7584 33.7568C30.6009 33.8977 30.3936 33.9843 30.1657 33.9843C29.6762 33.9843 29.2781 33.5882 29.2781 33.1013C29.2781 32.6144 29.6762 32.2182 30.1657 32.2182C30.5062 32.2182 30.8021 32.4102 30.9509 32.6907L37.085 32.5715C37.2281 32.2744 37.5325 32.0681 37.8852 32.0681C38.1563 32.0681 38.3989 32.1899 38.5619 32.3809L60.7365 27.7538L60.7522 27.8283L62.7162 26.2179C62.7002 26.157 62.6909 26.0934 62.6909 26.0277C62.6909 25.6109 63.0316 25.2719 63.4505 25.2719C63.8694 25.2719 64.2102 25.6109 64.2102 26.0277C64.2102 26.0679 64.2061 26.1072 64.2 26.1459L65.5742 27.0651L68.5186 27.0128C68.537 26.9835 68.557 26.9548 68.5801 26.928C68.7014 26.7866 68.8708 26.7007 69.0571 26.6861C69.0757 26.6846 69.0942 26.6839 69.1125 26.6839C69.4749 26.6839 69.781 26.9655 69.8095 27.325C69.8189 27.4433 69.798 27.5593 69.7504 27.6645L70.8882 29.5239L81.7821 30.8537C81.7883 30.8453 81.7946 30.8367 81.8012 30.8284C81.8058 30.8224 81.8106 30.8165 81.8156 30.8107C81.9369 30.6694 82.1062 30.5834 82.2925 30.5688C82.3111 30.5674 82.3296 30.5666 82.348 30.5666C82.7103 30.5666 83.0164 30.8482 83.0449 31.2077C83.0562 31.3498 83.0234 31.4853 82.9582 31.6011L85.9408 40.4569C86.1074 40.4937 86.2606 40.5761 86.3843 40.6991C86.5698 40.8837 86.6571 41.1289 86.6481 41.3712L93.6244 45.0805C93.7824 44.9537 93.9829 44.8773 94.2013 44.8773C94.7088 44.8773 95.1218 45.2881 95.1218 45.7929C95.1218 46.0932 94.9751 46.3593 94.75 46.5264L95.6607 51.3536C95.9974 51.4309 96.2494 51.7311 96.2494 52.0893C96.2494 52.3484 96.1176 52.5773 95.9172 52.7135L97.163 59.317C97.3895 59.3597 97.598 59.4684 97.7646 59.634C97.9836 59.852 98.1041 60.1416 98.1041 60.4498C98.1041 60.7579 97.9836 61.0476 97.7646 61.2655C97.7012 61.3285 97.6312 61.3824 97.557 61.4284L98.0995 64.3081C98.1169 64.4002 98.0927 64.4947 98.0332 64.5674L98.034 64.5673ZM31.5036 90.1507C31.5229 90.1507 31.542 90.1522 31.5612 90.1537L31.5612 90.1537C31.5771 90.155 31.5931 90.1562 31.6092 90.1566L31.5364 90.1565C31.4881 90.1564 31.4399 90.1563 31.3917 90.1566C31.4104 90.1566 31.429 90.1548 31.4477 90.153C31.4663 90.1512 31.4849 90.1494 31.5036 90.1494V90.1507Z" fill="#862633"/>
<path d="M94.5132 68.8589L85.4233 79.842L91.4607 76.5383L95.1547 74.5169L94.5885 68.8811C94.5629 68.8749 94.5378 68.8675 94.5132 68.8589Z" fill="#862633"/>
<path d="M74.1047 91.3623L83.2574 86.9581L72.2065 90.6119L74.1047 91.3623Z" fill="#862633"/>
<path d="M84.4988 81.8312C84.3779 81.8729 84.25 81.8958 84.1183 81.8958C83.8085 81.8958 83.5173 81.7759 83.2983 81.5579C83.2469 81.5068 83.2021 81.4517 83.1624 81.3941L73.1933 82.9845C73.1098 83.4045 72.7369 83.7223 72.2905 83.7223C72.1255 83.7223 71.9709 83.6783 71.8369 83.6024L69.0146 85.9674L86.7766 84.8595C86.7982 84.7465 86.8411 84.6411 86.9004 84.5468L86.0532 83.5889L84.4988 81.8312Z" fill="#862633"/>
<path d="M68.3711 86.6442L68.2686 88.419C68.5521 88.4971 68.783 88.7072 68.8861 88.9807L83.777 85.6834L70.0552 86.5391L68.3711 86.6442Z" fill="#862633"/>
<path d="M50.3001 86.0328L50.3119 85.9812L50.3144 85.9702L48.2681 84.3634L48.8726 89.0092C49.2155 89.0772 49.4824 89.3658 49.5115 89.7233L58.7952 92.6289L50.4324 86.0628L50.3001 86.0328Z" fill="#862633"/>
<path fill-rule="evenodd" clip-rule="evenodd" d="M39.2791 62.4249L39.3458 60.7296C39.4066 60.7085 39.4648 60.6807 39.5195 60.6464L44.9018 63.9431C44.8874 64.091 44.9191 64.2424 44.9956 64.3748L39.1533 71.5512L39.2791 62.4249ZM39.849 61.4702L39.8108 62.4382L39.7062 70.029L44.3923 64.273C44.3907 64.2654 44.3892 64.2579 44.3878 64.2503L39.849 61.4702Z" fill="#862633"/>
<path fill-rule="evenodd" clip-rule="evenodd" d="M45.2367 63.3723L40.627 59.206L49.7125 61.1523L46.0991 63.462C45.9673 63.2966 45.8019 63.2058 45.6266 63.2058C45.4862 63.2058 45.3523 63.2643 45.2367 63.3723ZM45.2816 62.4949C45.3932 62.4481 45.5093 62.4241 45.6268 62.4241C45.8045 62.4241 45.9789 62.4795 46.1391 62.5842L47.788 61.5301L43.104 60.5267L45.2816 62.4949Z" fill="#862633"/>
<path d="M45.3075 68.8995L46.4978 68.3105L45.759 65.3342L45.251 68.8554C45.2704 68.8691 45.2893 68.8839 45.3075 68.8995" fill="#862633"/>
<path fill-rule="evenodd" clip-rule="evenodd" d="M45.1294 65.2193L44.6196 68.7525C44.5059 68.7865 44.4017 68.8482 44.3152 68.9341C44.1611 69.0874 44.0913 69.2929 44.1044 69.494L39.9932 71.5284L45.1294 65.2193ZM43.6052 69.1489C43.6592 68.9277 43.7731 68.7233 43.9377 68.5595C43.9969 68.5007 44.0618 68.4478 44.1311 68.402L44.3268 67.0457L41.9465 69.9697L43.6052 69.1489Z" fill="#862633"/>
<path d="M46.9924 38.4605C47.153 38.4605 47.305 38.5142 47.4286 38.6126C48.1618 38.0604 48.9783 37.4415 49.5744 36.9812C49.5156 36.8367 49.4881 36.6827 49.4905 36.529L44.2727 35.0529L40.0244 56.8026L41.5722 53.1914L43.0335 49.6736L46.4871 39.639C46.2246 39.3665 46.2276 38.9327 46.4971 38.6646C46.6295 38.533 46.8054 38.4605 46.9924 38.4605Z" fill="#862633"/>
<path fill-rule="evenodd" clip-rule="evenodd" d="M46.2008 64.4604C46.2946 64.3416 46.348 64.1979 46.3545 64.0455L50.1248 62.4123C50.1516 62.4387 50.1803 62.4626 50.2097 62.485L49.5142 64.1906C49.3522 64.2096 49.2021 64.281 49.085 64.3974C48.8189 64.6622 48.8022 65.0824 49.0345 65.3668L44.2206 77.1707C44.158 77.1753 44.0966 77.1881 44.0376 77.209L39.6147 72.8045C39.671 72.6741 39.6936 72.5329 39.6822 72.3936L44.4228 70.0477C44.5425 70.1287 44.6836 70.1725 44.8315 70.1725C45.0262 70.1725 45.2092 70.0971 45.3469 69.9601C45.4754 69.8323 45.5492 69.6649 45.5584 69.4857L47.0123 68.7663C47.1472 68.6995 47.2163 68.5511 47.1802 68.4055L46.2008 64.4604ZM48.7081 64.0233C48.8279 63.9042 48.9668 63.8123 49.119 63.7502L49.2794 63.3566L46.8197 64.4222C46.8052 64.4639 46.7886 64.5049 46.7699 64.5448L47.513 67.5384L47.7162 67.1896L48.442 65.4098C48.2395 64.9477 48.3328 64.3967 48.7081 64.0233Z" fill="#862633"/>
<path fill-rule="evenodd" clip-rule="evenodd" d="M47.5061 58.0915C47.5264 58.0935 47.5465 58.0953 47.5664 58.0953C47.7092 58.0953 47.8447 58.0305 47.966 57.9171L49.7749 61.2634L40.5854 58.6825L46.7178 57.0073C46.8488 57.6069 47.1464 58.0465 47.5061 58.0915ZM46.4512 58.1156L44.3239 58.6968L48.2096 59.7881L47.8246 59.076C47.7094 59.1163 47.5914 59.1301 47.4713 59.1143C47.0665 59.0639 46.7017 58.697 46.4512 58.1156Z" fill="#862633"/>
<path fill-rule="evenodd" clip-rule="evenodd" d="M46.6901 58.4245L39.7509 59.4044C39.7363 59.3848 39.7206 59.3659 39.7041 59.3474L42.1592 53.4374L42.754 52.0497L46.848 58.1365C46.7792 58.2213 46.7253 58.3184 46.6901 58.4245ZM42.8589 53.1577L42.6499 53.6455L40.525 58.7604L46.0981 57.9734L42.8589 53.1577Z" fill="#862633"/>
<path fill-rule="evenodd" clip-rule="evenodd" d="M48.2497 57.3014L43.9937 52.7491L47.7632 54.7633L48.2497 57.3014Z" fill="#862633"/>
<path d="M39.5398 37C39.8129 37.2717 39.8129 37.7137 39.5398 37.9854C39.4876 38.0375 39.4282 38.0798 39.3644 38.1124L39.3777 56.7777L43.6553 34.8782L38.6159 33.4526C38.5367 33.5659 38.4319 33.6603 38.3096 33.7265L39.1556 36.8054C39.3004 36.8282 39.4341 36.8948 39.5398 37Z" fill="#862633"/>
<path d="M37.0373 33.2078L31.3042 33.3192L38.5451 36.9968L37.6682 33.8057C37.3674 33.7297 37.1273 33.5014 37.0373 33.2078Z" fill="#862633"/>
<path d="M32.1167 91.4213C32.1325 91.4715 32.1432 91.5229 32.1489 91.5749L43.863 91.9359L38.9563 88.7019L32.1167 91.4213Z" fill="#862633"/>
<path d="M39.3108 88.1729L40.5212 88.9707L44.4066 91.5316L39.1641 74.6467L39.3108 88.1729Z" fill="#862633"/>
<path d="M50.2467 37.6289C50.1479 37.5927 50.0545 37.5431 49.9684 37.4809C49.2742 38.0182 48.3385 38.7251 47.6887 39.2136C47.676 39.3729 47.6089 39.5288 47.4866 39.6503C47.4846 39.6522 47.4824 39.654 47.4805 39.6559L50.33 48.836C50.2968 45.8208 50.2389 40.1115 50.2467 37.6289Z" fill="#862633"/>
<path d="M47.9197 89.8394C47.9059 89.6279 47.9757 89.4237 48.1163 89.2644C48.1163 89.2644 48.1172 89.2635 48.1173 89.2634L44.1733 78.5518C43.9621 78.5221 43.7728 78.3974 43.6646 78.211C43.5712 78.05 43.5464 77.8625 43.5947 77.683C43.5957 77.6792 43.5972 77.6756 43.5983 77.6719L39.5068 73.5973L42.1832 82.2168L45.0655 91.5001C45.1862 91.5136 45.2993 91.5541 45.3982 91.6158L47.9262 89.8958C47.9237 89.8772 47.9209 89.8585 47.9197 89.8394Z" fill="#862633"/>
<path fill-rule="evenodd" clip-rule="evenodd" d="M46.9838 54.1758L43.6235 50.173L49.8977 49.9198L46.9838 54.1758ZM45.1738 50.9605L46.9486 53.0745L48.4875 50.8267L45.1738 50.9605Z" fill="#862633"/>
<path d="M50.1976 50.6736C50.2062 50.665 50.2154 50.6575 50.2243 50.6496L46.9751 40.182L43.6335 49.8908C43.6315 49.8969 43.629 49.9032 43.6265 49.9092L43.1499 51.0565L50.0523 50.8827C50.0872 50.807 50.135 50.7359 50.1976 50.6736Z" fill="#862633"/>
<path d="M59.3555 58.1866L59.3247 55.9707L57.4134 53.367L50.9551 53.2054L55.7942 56.6891L57.989 56.4289L59.3555 58.1866Z" fill="#862633"/>
<path d="M68.5093 57.0927L68.8425 62.3024L69.7293 57.6503L70.6789 56.4288L72.8739 56.689L77.7129 53.2052L71.2546 53.3669L68.5093 57.0927Z" fill="#862633"/>
<path d="M69.6036 72.4315L64.7027 69.1579L64.7298 66.8684L69.7544 64.2798L68.9848 63.582L64.3346 63.9835L59.6843 63.582L58.9148 64.2798L63.9394 66.8684L63.9665 69.1579L59.0656 72.4315L57.8337 72.3464L57.7051 74.4118L62.1748 71.5318H64.3346H66.4944L70.9641 74.4118L70.8898 72.3078L69.6036 72.4315Z" fill="#862633"/>
<path d="M62.0234 79.4067H66.5707L64.3267 77.4529L62.0234 79.4067Z" fill="#862633"/>
</svg>
