<svg xmlns="http://www.w3.org/2000/svg" xmlns:xlink="http://www.w3.org/1999/xlink" viewBox="0 0 1141.81 1159.49"><defs><style>.cls-1{fill:none;}.cls-2{clip-path:url(#clip-path);}.cls-3{fill:url(#linear-gradient);}</style><clipPath id="clip-path" transform="translate(295.58 238.44)"><path class="cls-1" d="M185.47,585.84c6.31,50.37,27.1,83,40.31,96.77C235,653,241.11,622,233.1,580.27,226.52,546,209.89,516.52,194.58,495c-8.59,25.48-13,59.47-9.11,90.81m-79.87-61.1c-29.61,40.39-36.84,77.9-36.68,96.7,26.7-15,52.06-33.08,74.6-68.42,18.53-29.06,26.56-61.44,30.15-87.22-23.43,12.45-49.65,33.8-68.07,58.94m193.75,46.63c69.45,47.49,132.82,57.57,164.39,56.26-26.65-44-58.4-85.6-119-121.49-49.81-29.52-104.61-41.22-148.11-45.83,22.2,38.65,59.49,81.51,102.71,111.06M68.81,462.51C31,474.25,8.75,494.68,0,506.71c24,3,48.65,3.48,79.6-8.38,25.45-9.75,45.78-26.54,60.2-41.24a154.21,154.21,0,0,0-22.58-1.6,166.47,166.47,0,0,0-48.41,7m-26.53-87.7c13.69,20,29.7,38.68,59.12,54,24.19,12.55,50.25,16.6,70.81,17.62A168,168,0,0,0,121,396.91c-29.34-17.73-55.79-22.41-72-22.41-2.52,0-4.78.12-6.77.31m332.88-8.31c-58,14.62-106.58,45.91-141.79,74.16,44.37,12.16,102.85,16.42,156,6.63,85.4-15.74,139.13-54.45,161.31-78.36-29.69-7.4-60-13-93.92-13-24.91,0-51.72,3-81.58,10.55M252.44,251c-38.56,63-54.51,132.62-61.2,188,49.7-27.58,105-74.33,143.52-128.88,61.86-87.67,75.88-168.28,74.81-208.55C353,134.72,299.34,174.42,252.44,251M71.75,225.84c20.42,74.07,62.55,135.63,100.4,180,15-57.46,19.39-132.82,5.41-200.86C155.08,95.63,103.1,27.75,71.23,0c-15.77,66.69-24.32,135.75.52,225.84"/></clipPath><linearGradient id="linear-gradient" x1="-39.27" y1="737.36" x2="-38.27" y2="737.36" gradientTransform="matrix(0, 653.75, 653.75, 0, -481771.49, 25667.2)" gradientUnits="userSpaceOnUse"><stop offset="0" stop-color="#ecbb44"/><stop offset="0.17" stop-color="#f7d875"/><stop offset="0.29" stop-color="#feeb94"/><stop offset="0.34" stop-color="#f9e48e"/><stop offset="0.4" stop-color="#ebd07f"/><stop offset="0.48" stop-color="#d5b065"/><stop offset="0.57" stop-color="#b68341"/><stop offset="0.62" stop-color="#a06428"/><stop offset="0.87" stop-color="#eba34d"/><stop offset="1" stop-color="#ecbb44"/></linearGradient></defs><g id="Layer_2" data-name="Layer 2"><g id="Layer_1-2" data-name="Layer 1"><g class="cls-2"><rect class="cls-3" x="-157.92" y="-67.79" width="866.49" height="818.19" transform="translate(137.66 647.53) rotate(-60)"/></g></g></g></svg>