<?xml version="1.0" encoding="UTF-8"?><svg id="Layer_2" xmlns="http://www.w3.org/2000/svg" xmlns:xlink="http://www.w3.org/1999/xlink" viewBox="0 0 294 281.82"><defs><style>.cls-1{fill:none;}.cls-2{clip-path:url(#clippath);}.cls-3{fill:#f9d606;}.cls-4{fill:#f5ae18;}.cls-5{fill:#fff;}.cls-6{fill:#fffb8b;}.cls-7,.cls-8{fill:#e09d23;}.cls-8{stroke:#e09d23;stroke-miterlimit:10;}.cls-9{opacity:.22;}</style><clipPath id="clippath"><circle class="cls-1" cx="143.49" cy="141.4" r="102.58"/></clipPath></defs><circle class="cls-8" cx="146.47" cy="140.74" r="102.58"/><circle class="cls-3" cx="143.82" cy="140.74" r="102.58"/><path class="cls-4" d="M214.03,140.74c0-38.78-31.43-70.21-70.21-70.21s-70.21,31.43-70.21,70.21,31.43,70.2,70.21,70.2,70.21-31.43,70.21-70.2Z"/><g class="cls-2"><g class="cls-9"><path class="cls-5" d="M188.63,47.14L47.4,181.83c6.13,14.78,15.54,27.83,27.33,38.27L225.56,76.23c-9.89-12.29-22.51-22.29-36.93-29.1Z"/><path class="cls-5" d="M235.35,90.73L88.74,230.56c5.42,3.38,11.16,6.29,17.18,8.64L243.16,108.3c-2.07-6.13-4.7-12.01-7.81-17.57Z"/></g></g><g><g><polygon class="cls-7" points="130.43 114.26 180.85 113.65 169.58 96.33 120.07 96.33 104.91 119.63 115.71 134.86 130.43 114.26"/><path class="cls-7" d="M91.1,140.85c9.62,16.96,21.74,29.79,32.02,38.7,4.61-3.19,9.76-6.91,14.35-10.62-.43-.35-.87-.72-1.31-1.09-5.47-4.59-10.58-9.6-15.21-14.89-3.35-3.83-6.45-7.82-9.27-11.93l-10.82-15.21-9.76,15.03Z"/><path class="cls-7" d="M196.81,138.23v.02s-3.3-5.1-3.3-5.1h-44.06l-.41-.58h44.09l-2.26-3.5h-44.28l-.41-.58h44.31l-1.96-3.05h-44.47l-.41-.58h44.5l-2.55-3.96h0s-20.78,0-20.78,0h-24.24l11.97,17.17-.18-.42,.27,.55-.09-.13,.09,.21h23.43l.02-.04,1.84,2.82c-2.82,4.1-5.92,8.08-9.27,11.92-4.62,5.29-9.74,10.29-15.21,14.88-2.99,2.51-5.77,4.62-8.17,6.34-.33,.24-.66,.49-.97,.75-1.69,1.39-7.56,6.18-13.61,10.79,8.28,6.31,14.08,9.38,14.1,9.38v-.09s0,.09,0,.09h0s0,0,0,0c0,0,32.78-17.31,53.73-54.25l-1.72-2.64Z"/></g><g><path class="cls-7" d="M91.4,73.32l5.16,5.49c-.47,2.52-2.07,5.44-4.05,7.3-4.33,4.07-10.56,4.01-14.46-.13-3.87-4.12-3.46-10.39,.98-14.57,2.12-1.99,5.05-3.21,7.69-3.31l.35,4.01c-1.98,.02-4.03,.79-5.41,2.09-2.53,2.38-2.67,6.16-.31,8.67,2.38,2.53,6.18,2.61,8.71,.23,.86-.81,1.59-2.07,2.07-3.4l-3.53-3.75,2.79-2.63Z"/><path class="cls-7" d="M114.53,60.55c2.55,5.05,.46,10.96-4.88,13.67-5.34,2.7-11.34,.9-13.9-4.17-2.58-5.1-.44-10.91,4.91-13.62s11.31-.95,13.88,4.12Zm-14.74,7.45c1.55,3.07,5.24,4.22,8.16,2.74,2.92-1.48,4.08-5.08,2.53-8.15-1.55-3.07-5.11-4.22-8.04-2.74-2.95,1.49-4.21,5.08-2.65,8.15Z"/><path class="cls-7" d="M133.86,62.32l.82,3.78-12.53,2.72-4.15-19.15,4.32-.94,3.34,15.38,8.21-1.78Z"/><path class="cls-7" d="M146.51,46.36c6.07,.19,10.17,4.33,9.99,10.12-.18,5.76-4.59,9.66-10.78,9.46l-8.14-.26,.62-19.59,8.31,.26Zm-4.39,15.74l4,.13c3.27,.1,5.76-2.28,5.87-5.87,.11-3.61-2.33-6.18-5.68-6.29l-3.81-.12-.38,12.15Z"/><path class="cls-7" d="M182.23,76.07l5.68-11.93-9.52,7.9-2.6-1.24,.12-12.38-5.68,11.93-3.62-1.72,8.42-17.7,4.47,2.13v13.27s10.29-8.38,10.29-8.38l4.45,2.12-8.42,17.7-3.59-1.71Z"/><path class="cls-7" d="M193.34,84.36l7.61-19.64,3.5,3.22-6.08,14.5,13.97-7.23,3.36,3.09-19,9.15-3.36-3.09Z"/></g><g><path class="cls-7" d="M105.49,210.8l-8.21,13.56-3.79-2.29,8.21-13.56-5.1-3.09,1.95-3.21,14.01,8.49-1.94,3.21-5.13-3.11Z"/><path class="cls-7" d="M129.28,226.44c-1.69,5.4-7.31,8.19-13.03,6.41-5.72-1.79-8.77-7.26-7.07-12.68,1.7-5.45,7.29-8.14,13.01-6.35s8.78,7.2,7.09,12.63Zm-15.77-4.92c-1.03,3.29,.82,6.68,3.95,7.66s6.47-.8,7.5-4.09c1.03-3.29-.73-6.59-3.86-7.57-3.15-.98-6.56,.71-7.58,4Z"/><path class="cls-7" d="M141.55,228.94l-2.91,3.06-.13,4.84-4.42-.12,.51-19.59,4.42,.12-.23,8.9,8.38-8.69,5.12,.13-7.57,7.98,7.57,11.62-5.32-.14-5.42-8.12Z"/><path class="cls-7" d="M159.99,219.65l.95,4.15,9.22-2.12,.82,3.57-9.22,2.12,.97,4.23,10.53-2.42,.82,3.57-14.84,3.41-4.39-19.1,14.54-3.34,.82,3.57-10.23,2.35Z"/><path class="cls-7" d="M193.9,223.55l-14.29-6.64,5.91,11.1-3.73,1.99-9.21-17.3,3.56-1.89,14.32,6.65-5.92-11.12,3.71-1.97,9.21,17.3-3.56,1.89Z"/></g><g><circle class="cls-7" cx="58.19" cy="145.08" r="5.35"/><circle class="cls-7" cx="64.81" cy="114.39" r="5.35"/><circle class="cls-7" cx="67.41" cy="177.08" r="5.35"/></g><g><circle class="cls-7" cx="231.35" cy="145.08" r="5.35"/><circle class="cls-7" cx="224.73" cy="114.39" r="5.35"/><circle class="cls-7" cx="222.13" cy="177.08" r="5.35"/></g></g><g><g><polygon class="cls-6" points="129.19 114.17 179.6 113.56 168.34 96.24 118.83 96.24 103.66 119.55 114.47 134.77 129.19 114.17"/><path class="cls-6" d="M89.86,140.76c9.62,16.96,21.74,29.79,32.02,38.7,4.61-3.19,9.76-6.91,14.35-10.62-.43-.35-.87-.72-1.31-1.09-5.47-4.59-10.58-9.6-15.21-14.89-3.35-3.83-6.45-7.82-9.27-11.93l-10.82-15.21-9.76,15.03Z"/><path class="cls-6" d="M195.57,138.15v.02s-3.3-5.1-3.3-5.1h-44.06l-.41-.58h44.09l-2.26-3.5h-44.28l-.41-.58h44.31l-1.96-3.05h-44.47l-.41-.58h44.5l-2.55-3.96h0s-20.78,0-20.78,0h-24.24l11.97,17.17-.18-.42,.27,.55-.09-.13,.09,.21h23.43l.02-.04,1.84,2.82c-2.82,4.1-5.92,8.08-9.27,11.92-4.62,5.29-9.74,10.29-15.21,14.88-2.99,2.51-5.77,4.62-8.17,6.34-.33,.24-.66,.49-.97,.75-1.69,1.39-7.56,6.18-13.61,10.79,8.28,6.31,14.08,9.38,14.1,9.38v-.09s0,.09,0,.09h0s0,0,0,0c0,0,32.78-17.31,53.73-54.25l-1.72-2.64Z"/></g><g><path class="cls-6" d="M90.16,73.23l5.16,5.49c-.47,2.52-2.07,5.44-4.05,7.3-4.33,4.07-10.56,4.01-14.46-.13-3.87-4.12-3.46-10.39,.98-14.57,2.12-1.99,5.05-3.21,7.69-3.31l.35,4.01c-1.98,.02-4.03,.79-5.41,2.09-2.53,2.38-2.67,6.16-.31,8.67,2.38,2.53,6.18,2.61,8.71,.23,.86-.81,1.59-2.07,2.07-3.4l-3.53-3.75,2.79-2.63Z"/><path class="cls-6" d="M113.29,60.46c2.55,5.05,.46,10.96-4.88,13.67-5.34,2.7-11.34,.9-13.9-4.17-2.58-5.1-.44-10.91,4.91-13.62s11.31-.95,13.88,4.12Zm-14.74,7.45c1.55,3.07,5.24,4.22,8.16,2.74,2.92-1.48,4.08-5.08,2.53-8.15-1.55-3.07-5.11-4.22-8.04-2.74-2.95,1.49-4.21,5.08-2.65,8.15Z"/><path class="cls-6" d="M132.62,62.24l.82,3.78-12.53,2.72-4.15-19.15,4.32-.94,3.34,15.38,8.21-1.78Z"/><path class="cls-6" d="M145.26,46.27c6.07,.19,10.17,4.33,9.99,10.12-.18,5.76-4.59,9.66-10.78,9.46l-8.14-.26,.62-19.59,8.31,.26Zm-4.39,15.74l4,.13c3.27,.1,5.76-2.28,5.87-5.87,.11-3.61-2.33-6.18-5.68-6.29l-3.81-.12-.38,12.15Z"/><path class="cls-6" d="M180.99,75.99l5.68-11.93-9.52,7.9-2.6-1.24,.12-12.38-5.68,11.93-3.62-1.72,8.42-17.7,4.47,2.13v13.27s10.29-8.38,10.29-8.38l4.45,2.12-8.42,17.7-3.59-1.71Z"/><path class="cls-6" d="M192.1,84.27l7.61-19.64,3.5,3.22-6.08,14.5,13.97-7.23,3.36,3.09-19,9.15-3.36-3.09Z"/></g><g><path class="cls-6" d="M104.25,210.72l-8.21,13.56-3.79-2.29,8.21-13.56-5.1-3.09,1.95-3.21,14.01,8.49-1.94,3.21-5.13-3.11Z"/><path class="cls-6" d="M128.04,226.35c-1.69,5.4-7.31,8.19-13.03,6.41-5.72-1.79-8.77-7.26-7.07-12.68,1.7-5.45,7.29-8.14,13.01-6.35s8.78,7.2,7.09,12.63Zm-15.77-4.92c-1.03,3.29,.82,6.68,3.95,7.66s6.47-.8,7.5-4.09c1.03-3.29-.73-6.59-3.86-7.57-3.15-.98-6.56,.71-7.58,4Z"/><path class="cls-6" d="M140.31,228.85l-2.91,3.06-.13,4.84-4.42-.12,.51-19.59,4.42,.12-.23,8.9,8.38-8.69,5.12,.13-7.57,7.98,7.57,11.62-5.32-.14-5.42-8.12Z"/><path class="cls-6" d="M158.75,219.56l.95,4.15,9.22-2.12,.82,3.57-9.22,2.12,.97,4.23,10.53-2.42,.82,3.57-14.84,3.41-4.39-19.1,14.54-3.34,.82,3.57-10.23,2.35Z"/><path class="cls-6" d="M192.66,223.46l-14.29-6.64,5.91,11.1-3.73,1.99-9.21-17.3,3.56-1.89,14.32,6.65-5.92-11.12,3.71-1.97,9.21,17.3-3.56,1.89Z"/></g><g><circle class="cls-6" cx="56.95" cy="144.99" r="5.35"/><circle class="cls-6" cx="63.57" cy="114.3" r="5.35"/><circle class="cls-6" cx="66.17" cy="176.99" r="5.35"/></g><g><circle class="cls-6" cx="230.11" cy="144.99" r="5.35"/><circle class="cls-6" cx="223.49" cy="114.3" r="5.35"/><circle class="cls-6" cx="220.89" cy="176.99" r="5.35"/></g></g><path class="cls-8" d="M76.89,142.04c0-38.1,30.89-68.99,68.99-68.99,18.17,0,34.71,7.04,47.03,18.52-12.6-12.59-30-20.38-49.21-20.38-38.45,0-69.62,31.17-69.62,69.62,0,32.58,22.39,59.94,52.62,67.52-28.77-8.32-49.81-34.84-49.81-66.29Z"/></svg>