<svg width="124" height="124" viewBox="0 0 124 124" fill="none" xmlns="http://www.w3.org/2000/svg">
<circle cx="62" cy="62" r="62" fill="white"/>
<circle cx="62" cy="62" r="61.5" stroke="black" stroke-opacity="0.1"/>
<g clip-path="url(#clip0)">
<path d="M92.0002 29.4561C90.1255 31.4946 87.2413 33.242 86.3761 35.7173C80.7519 50.8608 75.5604 66.2955 70.0805 81.5846C64.8891 95.8544 49.0262 100.368 37.2011 91.1949C32.298 87.409 29.9907 82.6039 31.7212 76.4882C33.4517 70.3726 37.7779 65.5675 44.1231 66.1499C49.7472 66.5867 55.8039 68.6253 60.4186 71.8287C64.168 74.4497 64.8891 79.546 58.8323 83.9143C58.8323 81.5846 59.1207 80.2741 58.8323 79.1092C57.5344 75.7602 56.525 70.5182 54.3619 69.7901C50.9009 68.7709 45.7094 69.7901 42.8252 72.1199C38.2106 75.7602 36.6243 81.7302 39.7969 87.2634C43.1136 92.7966 48.7378 94.3983 54.9387 92.9422C65.6101 90.3212 70.8016 79.4004 66.0427 69.3533C59.6976 55.8116 53.2082 42.2698 46.863 28.5824C50.324 28.5824 53.9292 28.5824 57.3902 28.5824C57.3902 28.7281 57.5344 29.0193 57.3902 29.1649C57.246 29.3105 56.8134 29.3105 56.8134 29.4561C56.8134 30.621 56.525 32.0771 56.9576 33.0964C62.0049 44.1627 67.1964 55.0835 72.9647 67.1692C77.1467 55.8116 81.0404 45.3276 84.5013 34.6981C84.6456 32.8051 82.4824 30.3298 81.473 28C84.2129 28 88.1065 28 92.0002 28C92.0002 28.4368 92.0002 29.0193 92.0002 29.4561Z" fill="black"/>
</g>
<defs>
<clipPath id="clip0">
<rect width="61" height="68" fill="white" transform="translate(31 28)"/>
</clipPath>
</defs>
</svg>
