<svg width="124" height="124" viewBox="0 0 124 124" fill="none" xmlns="http://www.w3.org/2000/svg">
<circle cx="62" cy="62" r="62" fill="white"/>
<circle cx="62" cy="62" r="61.5" stroke="black" stroke-opacity="0.1"/>
<path d="M90.9148 60.4442L106.957 52.1909L89.1197 54.8853C77.8363 56.587 67.2652 48.9576 65.4132 37.7263L62.4783 20L59.5435 37.7263C57.6914 48.9293 47.1203 56.587 35.8369 54.8853L18 52.1909L34.0418 60.4442C44.1855 65.6628 48.2316 78.0287 43.1028 88.1823L35.0106 104.235L47.8612 91.6141C55.9818 83.616 69.0603 83.616 77.181 91.6141L90.0315 104.235L81.8539 88.2106C76.7536 78.0287 80.7711 65.6628 90.9148 60.4442ZM81.398 92.2381L62.5068 70.059L43.7296 92.3515L59.0876 67.6198L31.9903 56.7288L60.3698 63.6208L62.3928 34.6064L64.5868 63.6208L92.9379 56.587L65.8975 67.5915L81.398 92.2381Z" fill="url(#paint0_linear)"/>
<path d="M91.0491 106L76.3465 91.5637C72.4999 87.7916 67.3995 85.6928 61.9858 85.6928C56.572 85.6928 51.4717 87.7632 47.625 91.5637L32.9509 106L42.2113 87.6214C44.6332 82.7999 45.0606 77.326 43.3795 72.2208C41.6984 67.0873 38.1367 62.9181 33.3213 60.4506L15 50.9777L35.4298 54.0692C40.7866 54.8917 46.1434 53.587 50.5029 50.4105C54.8909 47.2339 57.7687 42.5825 58.652 37.2505L62.0143 17L65.3765 37.2788C66.2598 42.5825 69.1376 47.2623 73.5256 50.4388C77.9136 53.6154 83.2704 54.8917 88.5987 54.0975L109.029 51.0061L90.6787 60.4506L90.4792 60.0819L90.6787 60.4506C85.8633 62.9181 82.3016 67.1157 80.6205 72.2208C78.9394 77.3544 79.3668 82.7999 81.7887 87.6214L91.0491 106ZM20.0149 52.6227L33.7487 59.6848C38.7636 62.2658 42.4677 66.6335 44.2058 71.9656C45.9439 77.2976 45.5165 82.9984 42.9806 88.0185L36.0567 101.774L47.0552 90.9681C51.0728 87.0258 56.3725 84.8419 62.0143 84.8419C67.656 84.8419 72.9557 87.0258 76.9733 90.9681L87.9718 101.774L81.0479 88.0185C78.512 82.9984 78.0846 77.2976 79.8227 71.9656C81.5608 66.6335 85.2934 62.2658 90.2798 59.6848L104.014 52.6227L88.7411 54.9484C83.1564 55.7992 77.6002 54.4379 73.0412 51.1479C68.4823 47.8579 65.462 42.9796 64.5502 37.449L62.0143 22.247L59.4783 37.4207C58.5665 42.9512 55.5462 47.8295 50.9873 51.1195C46.4283 54.4095 40.8436 55.7709 35.2874 54.92L20.0149 52.6227ZM43.579 92.2161L42.8951 91.7055L57.9967 67.3993L31.3838 56.7068L31.6402 55.9127L59.5353 62.6912L61.5299 34.1874H62.3847L64.5217 62.6912L92.3883 55.7709L92.6447 56.565L66.0888 67.3993L81.3043 91.6205L80.6205 92.131L62.0427 70.3206L43.579 92.2161ZM37.1679 58.1249L59.2504 67.0022L46.7417 87.1676L62.0427 69.0159L77.4292 87.0825L64.8066 67.0022L86.8321 58.0115L63.7239 63.7406L61.9573 40.115L60.3046 63.769L37.1679 58.1249Z" fill="url(#paint1_linear)"/>
<defs>
<linearGradient id="paint0_linear" x1="17.9675" y1="62.1351" x2="106.962" y2="62.1351" gradientUnits="userSpaceOnUse">
<stop stop-color="#A57D24"/>
<stop offset="0.2112" stop-color="#D8BE62"/>
<stop offset="0.328" stop-color="#F1DD80"/>
<stop offset="0.524" stop-color="#FBF2A8"/>
<stop offset="0.7298" stop-color="#F1DD80"/>
<stop offset="1" stop-color="#A57D24"/>
</linearGradient>
<linearGradient id="paint1_linear" x1="62.0009" y1="105.988" x2="62.0009" y2="17" gradientUnits="userSpaceOnUse">
<stop stop-color="#A57D24"/>
<stop offset="0.2112" stop-color="#D8BE62"/>
<stop offset="0.328" stop-color="#F1DD80"/>
<stop offset="0.524" stop-color="#FBF2A8"/>
<stop offset="0.7298" stop-color="#F1DD80"/>
<stop offset="1" stop-color="#A57D24"/>
</linearGradient>
</defs>
</svg>
