<svg width="794" height="794" viewBox="0 0 794 794" fill="none" xmlns="http://www.w3.org/2000/svg">
<circle cx="397" cy="397" r="397" fill="#0E0637"/>
<path fill-rule="evenodd" clip-rule="evenodd" d="M383.428 123.944C372.037 132.518 367.364 141.853 367.357 156.048C367.352 166.416 370.235 173.798 377.147 181.116C381.354 185.57 386.238 188.515 393.751 191.127C399.457 193.111 415.873 192.076 418.378 189.574C418.759 189.193 419.717 188.882 420.508 188.882C421.297 188.882 422.313 188.437 422.765 187.894C423.216 187.35 423.984 186.906 424.472 186.906C424.958 186.906 427.454 184.832 430.017 182.298C433.451 178.902 435.2 176.52 436.664 173.241C437.758 170.793 438.942 168.267 439.296 167.627C440.381 165.663 441.463 152.619 440.611 151.769C439.561 150.719 437.83 151.971 437.049 154.346C435.184 160.013 425.712 169.846 421.188 170.811C420.06 171.052 418.767 171.546 418.315 171.91C417.863 172.274 414.746 172.594 411.39 172.621C404.705 172.675 400.585 171.575 394.907 168.218C391.319 166.097 385.948 160.417 385.015 157.758C384.666 156.762 384.145 155.946 383.858 155.946C382.533 155.946 381.844 143.929 382.864 138.601C383.436 135.61 386.503 129.587 389.189 126.178C393.637 120.533 389.889 119.079 383.428 123.944ZM410.779 122.187C410.241 122.821 409.253 125.267 408.582 127.621C407.912 129.976 407.082 132.274 406.738 132.727C406.321 133.277 404.166 133.55 400.237 133.55C395.406 133.55 394.288 133.742 393.947 134.628C393.432 135.969 394.411 137.603 396.306 138.563C397.101 138.966 398.407 139.892 399.209 140.622C400.012 141.352 401.336 142.292 402.152 142.713C403.576 143.445 403.595 143.572 402.647 145.839C402.103 147.139 401.658 148.89 401.658 149.73C401.658 150.57 401.361 151.441 400.999 151.664C400.636 151.888 400.339 153.239 400.339 154.668C400.339 158.175 401.372 158.057 407.103 153.894L411.742 150.523L414.018 151.607C415.27 152.203 417.425 153.598 418.807 154.708C422.232 157.457 423.819 157.095 423.524 153.632C423.402 152.187 423.073 150.709 422.794 150.347C422.515 149.985 422.083 148.799 421.835 147.712C421.586 146.625 421.244 145.267 421.075 144.694C420.864 143.981 422.229 142.626 425.386 140.412C429.205 137.733 429.977 136.888 429.847 135.526C429.695 133.929 429.522 133.873 424.117 133.686C421.051 133.58 418.179 133.191 417.735 132.822C416.947 132.169 414.19 124.251 414.19 122.641C414.19 122.197 413.721 121.654 413.147 121.434C411.773 120.908 411.897 120.869 410.779 122.187ZM245.339 235.636C244.478 236.18 244.35 241.368 244.35 275.775C244.35 301.693 244.581 315.519 245.021 315.959C245.458 316.396 260.725 316.693 288.883 316.815L332.073 317.001L332.626 402.304C333 460.04 333.403 487.877 333.871 488.443C334.401 489.083 338.189 489.236 350.137 489.101L365.711 488.925L366.063 482.338C366.257 478.715 366.496 432.959 366.595 380.66C366.763 291.692 366.702 285.488 365.646 284.323C364.561 283.126 362.846 283.077 321.158 283.077C287.064 283.077 277.738 282.902 277.512 282.254C277.066 280.97 277.398 270.198 277.91 269.371C278.638 268.195 379.207 268.824 380.01 270.01C380.338 270.495 380.541 276.523 380.461 283.407C380.38 290.29 380.372 339.092 380.442 391.856C380.546 470.251 380.728 487.922 381.437 488.509C382.04 489.009 394.127 489.253 421.076 489.309C452.888 489.376 460.002 489.23 460.711 488.499C461.409 487.777 461.639 471.349 461.913 402.304C462.1 355.387 462.272 316.959 462.296 316.907C462.32 316.856 481.693 316.767 505.349 316.709C534.845 316.639 548.625 316.384 549.21 315.9C550.448 314.873 550.464 237.462 549.227 236.436C548.659 235.965 529.401 235.695 489.144 235.593C425.579 235.431 428.773 235.271 428.687 238.614C428.016 264.597 428.041 266.176 429.133 267.382C430.169 268.525 432.43 268.586 473.654 268.586H517.084V275.832V283.077H473.632C433.998 283.077 430.102 283.173 429.276 284.168C428.52 285.079 428.358 299.118 428.296 369.307C428.256 415.533 428.181 454.022 428.132 454.836C428.044 456.274 427.831 456.319 421.116 456.319H414.19V346.297V236.276L412.498 235.634C410.231 234.773 246.702 234.775 245.339 235.636ZM279.111 541.437C277.915 541.749 276.77 542.512 276.567 543.131C276.157 544.378 274.05 549.096 270.768 556.113C269.581 558.649 268.092 562.058 267.457 563.689C266.823 565.319 265.882 567.452 265.368 568.431C264.853 569.408 264.03 571.335 263.539 572.712C262.141 576.63 259.087 582.791 258.543 582.791C258.272 582.791 257.194 581.531 256.147 579.992C255.1 578.452 254.006 576.896 253.716 576.533C253.425 576.171 251.011 572.66 248.352 568.732C243.255 561.202 243.04 560.338 245.576 557.578C254.474 547.894 257.217 544.55 257.366 543.204C257.539 541.648 257.44 541.618 251.531 541.433L245.519 541.246L237.605 549.58L229.69 557.914L229.218 551.271C228.959 547.616 228.912 544.361 229.112 544.035C229.313 543.71 228.928 542.946 228.254 542.338C227.291 541.468 225.99 541.273 222.168 541.427L217.307 541.622L216.904 545.574C216.682 547.748 216.451 557.595 216.39 567.457C216.284 584.672 216.333 585.441 217.618 586.724C218.665 587.77 219.817 588.061 222.914 588.061C228.502 588.061 229.509 586.938 229.509 580.712C229.509 576.674 229.751 575.683 231.192 573.796C233.8 570.381 233.59 570.249 239.735 579.168C246.235 588.605 244.328 587.608 256.314 587.832C270.434 588.094 270.13 588.184 272.461 583.052L274.374 578.839H282.951H291.528L292.816 580.953C293.524 582.116 294.276 583.854 294.488 584.814C294.983 587.064 297.231 588.061 301.807 588.061C309.202 588.061 309.565 586.326 304.335 575.979C303.448 574.224 302.722 572.49 302.722 572.126C302.722 571.436 302.24 570.289 298.829 562.863C297.705 560.417 296.786 558.25 296.786 558.047C296.786 557.844 296.071 556.141 295.197 554.261C294.323 552.382 292.678 548.829 291.542 546.366C290.405 543.903 289.117 541.777 288.678 541.64C286.747 541.037 281.099 540.918 279.111 541.437ZM350.424 541.167C349.634 541.28 348.659 541.767 348.256 542.251C347.365 543.324 347.671 572.108 348.609 575.385C349.638 578.981 354.223 583.63 359.11 586.033C363.371 588.127 363.773 588.199 369.9 587.938C375.352 587.706 376.738 587.403 379.562 585.823C385.381 582.567 387.595 579.722 389.45 573.12C390.962 567.738 390.711 543.907 389.126 542.328C388.47 541.675 386.605 541.302 383.583 541.22C377.229 541.047 377.255 540.991 377.248 554.428C377.241 568.102 376.831 571.604 374.964 573.943C373.637 575.605 373.091 575.781 369.126 575.825C365.193 575.869 364.568 575.691 362.923 574.049L361.094 572.224L360.752 557.833C360.507 547.549 360.168 543.151 359.566 542.425C358.748 541.441 353.54 540.724 350.424 541.167ZM499.935 541.165C497.216 541.538 492.521 543.252 489.673 544.911C486.222 546.921 481.64 551.893 481.055 554.263C480.804 555.281 480.179 556.761 479.665 557.553C478.478 559.385 478.841 569.538 480.216 572.98C481.847 577.062 487.008 583.016 490.371 584.696C496.73 587.871 498.083 588.181 504.48 587.927C509.715 587.718 511.45 587.363 514.453 585.889C524.661 580.875 530.257 570.742 528.302 560.815C526.45 551.417 521.043 545.411 511.675 542.348C508.708 541.378 502.753 540.778 499.935 541.165ZM582.382 541.184C581.475 541.305 580.498 541.628 580.21 541.903C579.361 542.714 579.542 586.147 580.398 587.003C580.893 587.497 586.532 587.732 597.938 587.732C617.026 587.732 616 588.05 616 582.132C616 576.375 616.352 576.533 603.512 576.533H592.275V573.075V569.617H602.037C608.75 569.617 612.046 569.37 612.59 568.826C613.526 567.892 613.635 561.157 612.737 559.736C612.238 558.948 610.125 558.703 602.259 558.524L592.406 558.301L592.102 555.889C591.936 554.563 591.924 553.257 592.076 552.984C592.228 552.712 596.87 552.49 602.391 552.49C614.362 552.49 615.36 552.11 615.36 547.555C615.36 545.969 615.075 543.922 614.726 543.006L614.092 541.34L599.061 541.151C590.795 541.048 583.289 541.062 582.382 541.184ZM653.553 541.441C652.846 541.704 652.14 542.297 651.985 542.759C651.83 543.22 651.568 548.341 651.404 554.137C651.241 559.934 651.077 564.773 651.042 564.892C650.944 565.218 648.449 562.101 642.696 554.467C639.829 550.663 637.102 547.154 636.636 546.669C636.169 546.185 635.014 544.778 634.07 543.541C632.393 541.345 632.24 541.292 627.555 541.292C623.624 541.292 622.663 541.5 622.236 542.445C621.95 543.079 621.593 552.871 621.444 564.204C621.115 589.231 620.87 588.345 627.993 587.944C631.081 587.769 632.787 587.368 633.197 586.72C633.534 586.189 633.813 580.914 633.819 574.997C633.829 563.381 634.084 562.724 636.942 566.938C638.73 569.571 640.9 572.393 642.958 574.758C643.808 575.734 644.995 577.288 645.597 578.211C646.198 579.133 648.022 581.578 649.649 583.644C652.979 587.872 654.827 588.584 660.012 587.638C662.96 587.1 663.151 586.934 663.701 584.437C664.334 581.561 663.869 544.28 663.178 542.501C662.861 541.686 661.737 541.348 658.795 541.184C656.619 541.062 654.259 541.178 653.553 541.441ZM132 542.151C131.013 543.338 130.634 549.211 131.429 550.985C132.024 552.314 132.618 552.46 138.088 552.631L144.094 552.82L144.241 566.653C144.321 574.261 144.395 581.724 144.406 583.238C144.432 587.163 145.611 588.061 150.737 588.061C157.684 588.061 157.495 588.593 157.382 569.364C157.305 556.413 157.462 553.096 158.164 552.827C158.647 552.642 161.234 552.49 163.913 552.49C169.577 552.49 170.161 551.953 170.126 546.77C170.089 541.093 170.801 541.292 150.533 541.292C136.689 541.292 132.554 541.484 132 542.151ZM183.22 542.421C182.654 543.068 181.232 545.673 180.058 548.209C176.082 556.802 173.992 561.378 173.441 562.7C173.139 563.425 172.018 565.945 170.95 568.3C167.601 575.681 164.211 584.546 164.211 585.925C164.211 587.527 165.825 588.04 170.913 588.052C174.279 588.06 174.816 587.861 176.355 586.034C177.294 584.919 178.072 583.512 178.084 582.905C178.097 582.299 178.663 581.136 179.345 580.321C180.507 578.929 181.085 578.839 188.806 578.839C197.782 578.839 197.753 578.828 199.228 582.985C200.756 587.295 201.927 588.061 206.983 588.061C209.809 588.061 211.918 587.716 212.729 587.122C213.984 586.202 213.986 586.114 212.8 582.676C212.135 580.747 211.062 577.983 210.414 576.533C209.767 575.084 208.752 572.816 208.161 571.494C207.569 570.171 207.084 568.919 207.084 568.712C207.084 568.35 206.351 566.695 201.87 556.935C200.747 554.488 199.828 552.079 199.828 551.581C199.828 551.083 199.383 550.307 198.839 549.856C198.295 549.404 197.826 548.553 197.796 547.964C197.767 547.374 197.098 545.706 196.309 544.257L194.874 541.622L189.561 541.433C185.129 541.275 184.077 541.438 183.22 542.421ZM311.512 542.116C311.225 542.569 310.878 552.466 310.741 564.11C310.496 584.935 310.515 585.304 311.884 586.671C312.966 587.752 314.091 588.061 316.946 588.061C323.053 588.061 323.169 587.896 323.169 579.222C323.169 572.656 323.309 571.71 324.323 571.447C324.958 571.283 329.174 571.08 333.692 570.997C338.21 570.914 342.143 570.7 342.432 570.522C343.341 569.961 343.044 561.288 342.088 560.496C341.583 560.077 337.515 559.699 332.359 559.591L323.499 559.407L323.299 555.949L323.1 552.49H332.981C344.533 552.49 344.935 552.31 344.935 547.13C344.935 541.006 345.776 541.292 327.802 541.292C315.906 541.292 311.906 541.495 311.512 542.116ZM397.616 542.381C396.903 543.24 396.664 547.884 396.485 564.387C396.271 584.144 396.327 585.371 397.498 586.541C398.635 587.677 399.859 587.773 412.41 587.712C419.944 587.675 426.338 587.369 426.651 587.029C427.756 585.83 427.975 578.379 426.947 576.914C426.063 575.653 425.342 575.545 417.78 575.545H409.573L409.557 571.758C409.508 559.921 408.664 542.825 408.094 542.116C407.048 540.813 398.746 541.024 397.616 542.381ZM442.871 541.968C442.014 543.354 441.742 549.661 442.48 551.039C443.143 552.277 443.898 552.461 448.992 552.629L454.754 552.82L455.084 569.94L455.414 587.061L457.392 587.483C461.408 588.339 466.098 588.106 467.013 587.004C467.693 586.186 467.899 582.18 467.919 569.383L467.945 552.82L473.718 552.629C479.003 552.456 479.58 552.303 480.543 550.836C481.353 549.601 481.487 548.433 481.121 545.756C480.861 543.845 480.313 542.062 479.903 541.796C478.71 541.022 443.356 541.185 442.871 541.968ZM533.489 542.381C532.774 543.241 532.535 547.937 532.352 564.694L532.121 585.917L533.653 586.988C535.461 588.253 541.274 588.43 543.766 587.296C545.531 586.493 545.562 586.38 545.693 580.273C545.755 577.36 546.172 575.852 547.424 574.007C548.331 572.671 549.518 571.658 550.062 571.756C550.975 571.922 553.47 575.182 557.752 581.803C561.441 587.508 562.348 588.086 567.508 588.011C574.246 587.913 575.126 587.612 575.126 585.405C575.126 584.385 574.429 582.713 573.575 581.689C572.722 580.665 571.249 578.641 570.301 577.192C569.353 575.743 567.209 572.631 565.538 570.276C559.496 561.764 559.13 561.067 560.076 559.852C561.302 558.275 568.416 550.111 571.326 546.941C572.681 545.465 573.795 543.589 573.799 542.774C573.807 541.346 573.591 541.292 567.839 541.292H561.87L554.215 549.197C550.004 553.544 546.308 557.101 546.002 557.101C545.696 557.101 545.445 553.9 545.445 549.987C545.445 545.332 545.172 542.6 544.654 542.083C543.382 540.812 534.598 541.047 533.489 542.381ZM508.118 553.126C510.226 553.926 513.779 557.277 513.807 558.49C513.818 558.995 514.228 559.935 514.719 560.579C515.698 561.869 515.481 567.524 514.411 568.596C514.067 568.94 513.786 569.734 513.786 570.359C513.786 570.985 512.714 572.379 511.405 573.457C507.032 577.057 499.674 576.807 495.661 572.923C489.738 567.19 491.35 557.234 498.795 553.569C501.199 552.385 505.615 552.176 508.118 553.126ZM284.884 561.43C284.9 561.818 285.48 563.299 286.173 564.721C287.089 566.603 287.224 567.44 286.667 567.794C285.57 568.491 279.785 568.413 279.341 567.695C279.136 567.363 279.684 565.363 280.56 563.249C281.437 561.136 282.365 558.814 282.624 558.089C283.051 556.89 283.172 556.949 283.974 558.748C284.458 559.835 284.867 561.042 284.884 561.43ZM190.197 560.56C190.844 562.099 191.771 564.237 192.257 565.309C192.743 566.381 192.995 567.493 192.818 567.779C192.376 568.492 185.483 568.44 185.037 567.72C184.623 567.05 187.93 557.76 188.584 557.76C188.825 557.76 189.551 559.02 190.197 560.56ZM287.58 609.77C286.349 610.999 286.287 612.136 286.25 634.285C286.225 648.564 285.96 657.761 285.562 658.159C285.205 658.515 284.914 659.218 284.914 659.722C284.914 660.965 282.346 662.997 280.139 663.502C279.146 663.728 278.163 664.188 277.956 664.522C277.353 665.498 272.952 665.224 270.061 664.029C268.595 663.424 266.559 661.868 265.537 660.571C263.818 658.392 263.7 657.877 263.983 653.777C264.151 651.337 264.671 648.881 265.137 648.32C266.988 646.093 262.834 642.15 259.546 643.014C255.591 644.053 253.683 657.743 256.717 663.312C258.5 666.585 259.457 667.673 262.488 669.866C268.295 674.067 279.932 674.041 286.237 669.812C289.325 667.74 293.483 662.259 293.498 660.239C293.517 657.64 294.279 657.201 297.137 658.144C300.951 659.401 333.063 659.25 334.61 657.969C336.329 656.544 336.195 639.788 334.434 635.946C329.44 625.046 314.158 625.862 308.365 637.34C307.081 639.883 306.813 646.449 307.909 648.495C308.922 650.386 308.238 650.66 303.3 650.341C297.657 649.976 296.138 649.437 295.416 647.541C295.081 646.662 294.807 638.106 294.807 628.529C294.807 611.994 294.741 611.049 293.488 609.798C291.811 608.124 289.241 608.111 287.58 609.77ZM343.404 609.445C342.409 610.438 342.297 612.887 342.297 633.433C342.297 652.172 342.466 656.546 343.234 657.594C344.118 658.799 345.02 658.866 359.027 658.771C372.964 658.675 374.039 658.581 376.439 657.233L378.997 655.798L381.588 657.305C383.755 658.566 385.158 658.817 390.161 658.842C395.165 658.868 396.632 658.622 399.123 657.342L402.104 655.811L404.684 657.29C406.908 658.563 408.313 658.782 414.85 658.872C420.236 658.947 422.868 658.718 423.927 658.081L425.419 657.185L425.246 633.343L425.073 609.501L423.352 608.896C420.953 608.053 418.328 608.862 417.745 610.623C417.475 611.438 417.232 620.453 417.206 630.657C417.18 640.862 416.936 649.433 416.664 649.705C416.043 650.326 409.069 650.343 407.161 649.729C404.918 649.007 403.752 645.092 403.752 638.282C403.752 634.967 403.567 631.956 403.341 631.591C403.116 631.226 401.851 630.726 400.531 630.479C396.613 629.744 395.89 631.249 396.174 639.539C396.317 643.688 396.114 647.058 395.655 648.164C395.241 649.163 394.864 649.999 394.818 650.022C394.771 650.045 392.577 650.211 389.941 650.391C385.307 650.709 385.084 650.655 383.18 648.754C381.424 647 381.211 646.352 381.211 642.758C381.211 635.927 377.704 631.098 371.648 629.592C369.834 629.141 367.982 628.664 367.533 628.531C367.024 628.381 368.321 625.895 370.978 621.925C373.322 618.424 375.42 614.99 375.642 614.294C376.125 612.771 375.075 611.387 372.378 609.994C370.375 608.96 370.375 608.96 367.88 611.849C366.508 613.438 365.384 614.965 365.384 615.241C365.382 615.688 361.296 622.247 358.01 627.078C356.375 629.48 355.779 634.159 356.921 635.624C357.597 636.492 359.205 636.823 363.979 637.078C372.14 637.512 372.637 637.951 372.637 644.735C372.637 649.461 372.53 649.854 371.153 650.214C368.654 650.868 350.874 650.374 350.847 649.65C350.833 649.288 350.819 640.392 350.816 629.88C350.814 619.368 350.571 610.379 350.277 609.904C349.39 608.47 344.694 608.157 343.404 609.445ZM433.977 609.125C433.135 609.657 432.959 613.176 432.791 632.812C432.658 648.472 432.824 656.304 433.309 657.21C434.229 658.927 439.538 659.152 440.173 657.501C440.393 656.928 440.573 645.971 440.573 633.152C440.573 610.783 440.522 609.817 439.297 609.163C437.715 608.317 435.287 608.3 433.977 609.125ZM318.996 617.686C318.359 618.765 317.837 619.809 317.837 620.008C317.837 620.207 318.359 621.252 318.996 622.33C319.946 623.936 320.591 624.29 322.571 624.29C325.291 624.29 326.23 623.474 326.74 620.668C327.28 617.691 325.649 615.727 322.637 615.727C320.584 615.727 319.955 616.065 318.996 617.686ZM392.132 617.191C390.821 619.06 390.832 620.627 392.17 622.666C393.528 624.735 397.093 624.897 399.017 622.976C400.331 621.663 400.333 621.663 401.154 622.976C402.161 624.586 405.03 624.704 407.288 623.226C409.464 621.803 409.552 618.224 407.447 616.752C405.526 615.408 402.341 615.443 401.333 616.82C400.588 617.839 400.426 617.839 398.97 616.82C396.692 615.226 393.384 615.405 392.132 617.191ZM471.408 617.354C469.975 619.322 469.954 620.585 471.319 622.666C472.787 624.904 476.949 624.992 477.997 622.808C479.386 619.915 479.461 618.932 478.416 617.339C476.943 615.095 473.047 615.103 471.408 617.354ZM500.781 629.279C495.122 631.261 491.362 636.431 491.358 642.237C491.354 646.878 489.659 649.658 486.466 650.256C483.559 650.8 480.841 649.635 479.682 647.345C479.176 646.346 478.844 643.082 478.838 639.048C478.826 630.863 478.391 630.263 472.834 630.78C470.846 630.965 470.379 633.81 470.346 645.925C470.311 658.249 469.944 662.202 468.765 662.93C468.391 663.161 466.601 663.437 464.788 663.543C462.976 663.649 461.204 664.024 460.852 664.376C459.841 665.385 459.428 670.813 460.321 671.364C461.786 672.268 470.07 672.031 471.253 671.051C471.869 670.539 473.01 669.814 473.787 669.437C475.551 668.584 478.171 663.416 478.65 659.846C478.938 657.701 479.227 657.243 480.074 657.588C484.739 659.49 488.236 659.282 492.056 656.873L494.817 655.133L499.004 657.255C502.386 658.97 503.734 659.315 506.015 659.052C510.522 658.53 514.976 656.075 516.972 653.011C518.549 650.591 518.733 649.691 518.733 644.381C518.733 637.825 517.83 635.097 514.656 632.065C510.828 628.408 506.023 627.443 500.781 629.279ZM532.914 630.862C532.109 631.369 531.848 634.039 531.514 645.178C531.288 652.71 530.887 659.809 530.624 660.954C530.085 663.288 528.926 663.806 524.891 663.519C522.416 663.343 522.152 663.491 521.301 665.526C519.309 670.288 520.568 671.939 526.188 671.933C531.734 671.929 535.091 669.908 538.038 664.801C539.01 663.118 539.211 660.563 539.397 647.583L539.614 632.343L538.096 631.28C536.394 630.09 534.395 629.929 532.914 630.862ZM325.781 638.247C326.893 639.439 327.126 640.567 327.126 644.764C327.126 650.46 326.909 650.724 322.572 650.293C316.434 649.684 313.713 644.779 316.562 639.461C318.095 636.601 323.573 635.879 325.781 638.247ZM508.154 637.216C509.526 637.742 511.807 642.185 511.807 644.331C511.807 645.239 510.886 647.029 509.76 648.31C507.062 651.379 504.016 651.522 501.203 648.713C499.695 647.207 499.275 646.195 499.275 644.069C499.275 641.197 500.66 637.811 502.065 637.246C503.283 636.757 506.909 636.739 508.154 637.216Z" fill="white"/>
</svg>
