<svg width="124" height="124" viewBox="0 0 124 124" fill="none" xmlns="http://www.w3.org/2000/svg">
<circle cx="62" cy="62" r="62" fill="white"/>
<circle cx="62" cy="62" r="61.5" stroke="black" stroke-opacity="0.1"/>
<path d="M59.5232 30.7196C63.7198 30.7196 67.6393 32.803 69.9836 36.2837C72.7827 40.4398 76.3589 45.7496 79.7066 50.7194C82.0606 54.214 87.2891 53.9366 89.2622 50.2137C90.222 48.4027 90.1077 46.2154 88.9621 44.5158C86.4981 40.8599 82.0412 34.25 78.3758 28.8142C74.6583 23.301 68.4461 20 61.7966 20H47.5127C45.5217 20 43.6947 21.1037 42.7683 22.8662C40.8925 26.4352 43.4808 30.7196 47.5127 30.7196H59.5232Z" fill="#6ECEFF"/>
<path d="M59.5232 30.7196C63.7198 30.7196 67.6393 32.803 69.9836 36.2837C72.7827 40.4398 76.3589 45.7496 79.7066 50.7194C82.0606 54.214 87.2891 53.9366 89.2622 50.2137C90.222 48.4027 90.1077 46.2154 88.9621 44.5158C86.4981 40.8599 82.0412 34.25 78.3758 28.8142C74.6583 23.301 68.4461 20 61.7966 20H47.5127C45.5217 20 43.6947 21.1037 42.7683 22.8662C40.8925 26.4352 43.4808 30.7196 47.5127 30.7196H59.5232Z" fill="url(#paint0_linear)"/>
<path d="M93.2669 58.5211C93.2669 62.7177 91.1835 66.6372 87.7027 68.9815C83.54 71.7852 78.2197 75.3684 73.243 78.7207C69.7594 81.0674 70.0359 86.2796 73.7472 88.2465C75.5709 89.213 77.7804 89.0961 79.4913 87.9416C83.1516 85.4714 89.7482 81.0212 95.1743 77.3609C100.686 73.6428 103.986 67.4313 103.986 60.7826V46.5106C103.986 44.5196 102.883 42.6926 101.12 41.7663C97.5513 39.8904 93.2669 42.4787 93.2669 46.5106V58.5211Z" fill="#6ECEFF"/>
<path d="M93.2669 58.5211C93.2669 62.7177 91.1835 66.6372 87.7027 68.9815C83.54 71.7852 78.2197 75.3684 73.243 78.7207C69.7594 81.0674 70.0359 86.2796 73.7472 88.2465C75.5709 89.213 77.7804 89.0961 79.4913 87.9416C83.1516 85.4714 89.7482 81.0212 95.1743 77.3609C100.686 73.6428 103.986 67.4313 103.986 60.7826V46.5106C103.986 44.5196 102.883 42.6926 101.12 41.7663C97.5513 39.8904 93.2669 42.4787 93.2669 46.5106V58.5211Z" fill="url(#paint1_linear)"/>
<path d="M58.7544 92.2701C58.7544 92.2681 58.7538 92.2662 58.7527 92.2645C56.2078 88.4965 50.4685 79.9659 45.2794 72.2574C42.9338 68.7731 37.722 69.0493 35.7551 72.7606C34.7886 74.5843 34.9055 76.7939 36.06 78.5047C38.5302 82.165 42.9803 88.7617 46.6406 94.1878C50.3588 99.6996 56.5703 103 63.219 103H77.5043C79.4953 103 81.3223 101.896 82.2487 100.134C84.1245 96.5647 81.5362 92.2803 77.5043 92.2803H58.7646C58.7589 92.2803 58.7544 92.2758 58.7544 92.2701Z" fill="#6ECEFF"/>
<path d="M58.7544 92.2701C58.7544 92.2681 58.7538 92.2662 58.7527 92.2645C56.2078 88.4965 50.4685 79.9659 45.2794 72.2574C42.9338 68.7731 37.722 69.0493 35.7551 72.7606C34.7886 74.5843 34.9055 76.7939 36.06 78.5047C38.5302 82.165 42.9803 88.7617 46.6406 94.1878C50.3588 99.6996 56.5703 103 63.219 103H77.5043C79.4953 103 81.3223 101.896 82.2487 100.134C84.1245 96.5647 81.5362 92.2803 77.5043 92.2803H58.7646C58.7589 92.2803 58.7544 92.2758 58.7544 92.2701Z" fill="url(#paint2_linear)"/>
<path d="M31.7216 64.4688C31.7216 60.2701 33.806 56.3488 37.2884 54.0033C41.444 51.2045 46.7527 47.6291 51.7214 44.2821C55.2159 41.9281 54.9385 36.6996 51.2156 34.7265C49.4047 33.7668 47.2175 33.8814 45.5183 35.0275C41.8613 37.494 35.2477 41.9567 29.8105 45.6257C24.3006 49.3438 21.002 55.554 21.002 62.201V76.4894C21.002 78.4804 22.1057 80.3074 23.8681 81.2338C27.4372 83.1096 31.7216 80.5214 31.7216 76.4894V64.4688Z" fill="#6ECEFF"/>
<path d="M31.7216 64.4688C31.7216 60.2701 33.806 56.3488 37.2884 54.0033C41.444 51.2045 46.7527 47.6291 51.7214 44.2821C55.2159 41.9281 54.9385 36.6996 51.2156 34.7265C49.4047 33.7668 47.2175 33.8814 45.5183 35.0275C41.8613 37.494 35.2477 41.9567 29.8105 45.6257C24.3006 49.3438 21.002 55.554 21.002 62.201V76.4894C21.002 78.4804 22.1057 80.3074 23.8681 81.2338C27.4372 83.1096 31.7216 80.5214 31.7216 76.4894V64.4688Z" fill="url(#paint3_linear)"/>
<path d="M61.8788 47.4368C61.3207 47.1614 60.6662 47.1616 60.1083 47.4372L51.4289 51.7243C50.8857 51.9926 50.4934 52.4927 50.3621 53.0842L48.2038 62.8114C48.0747 63.3931 48.2117 64.002 48.5774 64.4723L54.6078 72.2277C54.9867 72.715 55.5694 73 56.1866 73H65.8134C66.4306 73 67.0133 72.715 67.3922 72.2277L73.4226 64.4723C73.7883 64.002 73.9253 63.3931 73.7962 62.8114L71.638 53.0848C71.5067 52.493 71.114 51.9926 70.5703 51.7244L61.8788 47.4368Z" fill="#1E3BB7"/>
<defs>
<linearGradient id="paint0_linear" x1="64.7304" y1="20" x2="64.7304" y2="58.4353" gradientUnits="userSpaceOnUse">
<stop stop-color="#1E3BB7"/>
<stop offset="1" stop-color="white" stop-opacity="0"/>
</linearGradient>
<linearGradient id="paint1_linear" x1="84.7694" y1="37.6386" x2="84.7694" y2="89.818" gradientUnits="userSpaceOnUse">
<stop stop-color="#1E3BB7"/>
<stop offset="1" stop-color="white" stop-opacity="0"/>
</linearGradient>
<linearGradient id="paint2_linear" x1="60.28" y1="64.5646" x2="60.28" y2="103" gradientUnits="userSpaceOnUse">
<stop stop-color="#1E3BB7"/>
<stop offset="1" stop-color="white" stop-opacity="0"/>
</linearGradient>
<linearGradient id="paint3_linear" x1="40.2196" y1="33.1686" x2="40.2196" y2="85.3615" gradientUnits="userSpaceOnUse">
<stop stop-color="#1E3BB7"/>
<stop offset="1" stop-color="white" stop-opacity="0"/>
</linearGradient>
</defs>
</svg>
