<svg width="124" height="124" viewBox="0 0 124 124" fill="none" xmlns="http://www.w3.org/2000/svg">
<circle cx="62" cy="62" r="62" fill="black"/>
<path d="M81.1951 76.3343C81.1578 76.3389 81.1201 76.3421 81.0814 76.3421C80.5739 76.3421 80.1609 75.9313 80.1609 75.4264C80.1609 75.4243 80.1609 75.4223 80.1609 75.4203L75.933 73.045C75.8186 73.1301 75.6774 73.1811 75.5241 73.1811C75.4407 73.1811 75.3611 73.1654 75.2871 73.1381L74.4062 74.0558C74.4293 74.1238 74.4422 74.1963 74.4422 74.2719C74.4422 74.292 74.4409 74.3117 74.4392 74.3313L83.221 79.9647L81.1948 76.3343H81.1951Z" fill="#E8B941"/>
<path d="M45.6445 80.697L47.9674 87.0054L47.5423 83.7406L45.6445 80.697Z" fill="#E8B941"/>
<path d="M73.0391 82.2722C73.0588 82.2994 73.0772 82.3274 73.0939 82.3566L82.9635 80.7821C82.961 80.7091 82.9654 80.6361 82.9767 80.5637L74.1177 74.8807L74.4486 80.0693C74.4531 80.1389 74.434 80.209 74.395 80.2668L73.0391 82.2722Z" fill="#E8B941"/>
<path d="M82.4595 65.1437L79.2959 70.7816C79.3492 70.8786 79.3797 70.9897 79.3797 71.1077C79.3797 71.263 79.3266 71.4059 79.2383 71.5207L80.9162 74.527C80.9697 74.5174 81.0245 74.5115 81.0806 74.5115C81.5882 74.5115 82.0012 74.9223 82.0012 75.4272C82.0012 75.6636 81.9098 75.8787 81.7614 76.0413L83.675 79.47L82.4595 65.1437Z" fill="#E8B941"/>
<path d="M85.4361 50.1459C85.4361 50.0755 85.4456 50.0072 85.4612 49.9413L79.8215 46.2143C79.7048 46.287 79.5674 46.3298 79.4197 46.3298C79.0008 46.3298 78.6601 45.9908 78.6601 45.5741C78.6601 45.5331 78.6642 45.4931 78.6706 45.4538L76.6094 44.0916L81.3476 51.6249L85.4361 50.1459Z" fill="#E8B941"/>
<path fill-rule="evenodd" clip-rule="evenodd" d="M50.8494 73.7988C50.9713 73.9023 51.1236 73.9705 51.2892 73.9977L52.4475 78.4548C52.2938 78.5836 52.2037 78.7658 52.2188 78.9626C52.2314 79.1268 52.3157 79.2734 52.4441 79.3823L50.863 85.2837L48.1914 83.4934L49.6494 74.28C49.7279 74.1974 49.7825 74.102 49.812 74L50.8166 73.7681C50.8194 73.7707 50.8222 73.7734 50.825 73.7761C50.8329 73.7838 50.8408 73.7915 50.8494 73.7988ZM51.7722 79.4997C51.6702 79.3463 51.6093 79.1747 51.5956 78.9968C51.5777 78.7634 51.6421 78.5332 51.7766 78.3337L50.9793 75.2658L50.8496 82.2766L51.0372 82.2432L51.7722 79.4997Z" fill="#E8B941"/>
<path d="M51.8073 36.5474C51.8073 36.8337 51.7021 37.1032 51.5117 37.3148L55.2287 43.3102L60.5671 31.5898L62.592 27.1442L51.7039 36.0725C51.7709 36.2199 51.8073 36.3807 51.8073 36.5474Z" fill="#E8B941"/>
<path d="M79.4177 44.8182C79.5693 44.8182 79.7104 44.8631 79.829 44.9395L84.5657 41.6474L81.7514 41.6415C81.7073 41.7578 81.639 41.8672 81.5451 41.9606C81.3736 42.1312 81.1456 42.2251 80.9032 42.2251C80.6606 42.2251 80.4326 42.1312 80.2611 41.9606C80.2447 41.9443 80.2297 41.9269 80.2148 41.9097L76.307 43.1122C76.3061 43.1176 76.3053 43.1228 76.3047 43.128L79.0269 44.9271C79.1414 44.8585 79.2747 44.8182 79.4177 44.8182Z" fill="#E8B941"/>
<path d="M50.4859 66.4932L49.8281 71.3632L50.5411 70.0172L50.4859 66.4932Z" fill="#E8B941"/>
<path d="M49.615 65.6345L44.8086 77.4198C44.8337 77.4498 44.8573 77.4812 44.8772 77.5156C44.9707 77.6765 44.9955 77.864 44.9471 78.0436C44.9285 78.1128 44.8996 78.1773 44.8623 78.2362L47.6523 82.7109L48.7554 74.543C48.6034 74.5199 48.4629 74.4503 48.352 74.34C48.0679 74.0574 48.0679 73.5975 48.352 73.3147C48.4896 73.1778 48.6727 73.1024 48.8673 73.1024C48.881 73.1024 48.8944 73.1037 48.9079 73.1044L48.9641 72.9982L49.9723 65.533C49.8649 65.5967 49.7428 65.632 49.615 65.6345Z" fill="#E8B941"/>
<path fill-rule="evenodd" clip-rule="evenodd" d="M94.7336 52.0159C94.7312 52.04 94.7298 52.0644 94.7298 52.0891C94.7298 52.435 94.9648 52.7265 95.2842 52.8159L96.52 59.3762C96.4745 59.3939 96.4303 59.4143 96.3875 59.4377L87.1952 50.5231C87.2461 50.4094 87.2751 50.284 87.2751 50.1518C87.2751 49.8193 87.0954 49.5285 86.8281 49.3681L87.2943 46.9071C87.4265 46.8847 87.5494 46.8352 87.6561 46.763L94.7336 52.0159ZM94.7133 57.0728L95.7319 58.0607L94.813 53.1822C94.496 52.9869 94.2748 52.661 94.215 52.291L93.8918 52.0512L93.3916 54.0523L94.7133 57.0728Z" fill="#E8B941"/>
<path fill-rule="evenodd" clip-rule="evenodd" d="M52.9287 79.5566C52.9583 79.5516 52.9874 79.5457 53.016 79.5388L55.4384 80.9759C55.4021 81.0637 55.3863 81.1561 55.3949 81.2502C55.4023 81.3316 55.4276 81.4093 55.467 81.4819L51.2109 84.9044L52.9287 79.5566ZM52.957 81.8609L54.2353 81.6714L54.6557 81.3334C54.6531 81.317 54.6513 81.3005 54.6497 81.2841C54.6472 81.2545 54.6457 81.225 54.6459 81.1954L53.4068 80.4604L52.957 81.8609Z" fill="#E8B941"/>
<path d="M78.6963 70.4257C78.7189 70.4257 78.7413 70.4269 78.7633 70.429L80.4149 67.4856L81.9548 64.7414C81.9145 64.703 81.8776 64.6611 81.8448 64.6161L76.7171 65.8778C76.6819 66.0166 76.6145 66.1462 76.5169 66.2568C76.4738 66.3056 76.4261 66.3489 76.375 66.3869L78.631 70.429C78.6525 70.4269 78.6743 70.4257 78.6963 70.4257Z" fill="#E8B941"/>
<path d="M80.1737 45.4784C80.1777 45.51 80.1806 45.542 80.1806 45.5747C80.1806 45.6114 80.1771 45.6472 80.1719 45.6825L85.8165 49.4127C85.8696 49.374 85.9267 49.3406 85.9876 49.3139L85.5666 42.2233C85.4128 42.193 85.2705 42.1228 85.1507 42.0191L80.1737 45.4784Z" fill="#E8B941"/>
<path d="M81.9962 58.5003L95.8435 60.0819C95.8666 60.0134 95.8958 59.9474 95.9315 59.8843L89.4725 53.6204L86.7469 50.9772C86.6273 51.034 86.4939 51.0666 86.3528 51.0666C86.2909 51.0666 86.2305 51.0603 86.1721 51.0487L81.7969 58.112C81.8922 58.2217 81.9616 58.3541 81.9962 58.5003Z" fill="#E8B941"/>
<path d="M86.8944 46.7885C86.7365 46.7437 86.5933 46.6889 86.4688 46.6256L86.5859 47.558L86.8944 46.7885Z" fill="#E8B941"/>
<path d="M76.4417 64.5339L76.3242 64.8865C76.4593 64.9743 76.5698 65.0966 76.6434 65.2409L81.6715 64.0037C81.709 63.56 82.0679 63.1968 82.5279 63.1671C82.5481 63.1657 82.5683 63.1651 82.5883 63.1651C82.9111 63.1651 83.1974 63.3334 83.3619 63.5878L89.0269 62.1939L93.7996 61.0195L77.3456 61.8186L76.4417 64.5339Z" fill="#E8B941"/>
<path fill-rule="evenodd" clip-rule="evenodd" d="M94.1357 46.7051L95.0274 51.4389L88.0742 46.2782C89.3296 46.2355 91.6446 46.1754 93.35 46.1335C93.4782 46.4501 93.7788 46.679 94.1357 46.7051Z" fill="#E8B941"/>
<path d="M84.3297 79.6078C84.4014 79.6207 84.4712 79.6405 84.5385 79.6664L96.1949 61.3263C96.1717 61.3065 96.1486 61.2866 96.1268 61.2648C96.0844 61.2227 96.0469 61.1771 96.0121 61.13L83.5015 64.2085C83.4631 64.4791 83.3044 64.715 83.0781 64.8563L83.9672 75.3356L84.3297 79.6078Z" fill="#E8B941"/>
<path d="M87.1416 45.0897C87.5206 45.0897 87.8466 45.3189 87.9876 45.645C88.0709 45.6423 88.16 45.6394 88.2572 45.6362C88.8493 45.6168 89.6761 45.5928 90.7146 45.5651C91.5636 45.5424 92.4118 45.5209 93.0678 45.5045L86.4005 41.9596C86.3953 41.9649 86.3909 41.9708 86.3855 41.9761C86.3292 42.0322 86.2663 42.079 86.1992 42.1179L86.3981 45.4677C86.5657 45.2391 86.836 45.0897 87.1416 45.0897Z" fill="#E8B941"/>
<path fill-rule="evenodd" clip-rule="evenodd" d="M80.7515 40.4329L75.8828 34.2107V34.2105C75.9094 34.1545 75.9284 34.0945 75.9391 34.0319C77.3411 33.5499 80.4743 32.371 81.9316 31.8199C82.0484 31.9063 82.1922 31.9577 82.3466 31.9577C82.3649 31.9577 82.3834 31.9571 82.402 31.9556H82.4031L85.2976 40.5499C85.2261 40.59 85.1594 40.6394 85.0997 40.6987C85.0071 40.7908 84.9393 40.8983 84.8951 41.0128L81.7524 41.0062C81.7083 40.8888 81.6397 40.7783 81.5449 40.684C81.3734 40.5134 81.1455 40.4195 80.903 40.4195C80.8517 40.4195 80.8012 40.4247 80.7515 40.4329ZM82.005 32.4397C81.9674 32.4288 81.9304 32.4161 81.894 32.4016C81.3424 32.61 80.5653 32.9026 79.7402 33.2107L82.0034 33.736L82.7035 36.1311L83.6403 37.2952L82.005 32.4397Z" fill="#E8B941"/>
<path d="M65.4584 48.1956C65.4594 48.1956 65.4594 48.1966 65.4596 48.197L74.7963 43.0658C74.7953 43.0548 74.7946 43.0441 74.7946 43.0332C74.7946 42.892 74.8344 42.7603 74.9024 42.6471L63.8281 27.1038L64.9004 47.8884C65.11 47.9364 65.3027 48.0407 65.4584 48.1956Z" fill="#E8B941"/>
<path d="M63.8099 48.2053C63.813 48.2022 63.8157 48.1987 63.8188 48.1955C63.9458 48.0692 64.0975 47.977 64.2626 47.9208L63.2013 27.3498L55.6875 43.8459L63.8099 48.2053Z" fill="#E8B941"/>
<path d="M81.5579 54.7372L81.4688 57.4042L84.9691 51.7771L81.5579 54.7372Z" fill="#E8B941"/>
<path d="M75.5507 42.2776C75.766 42.2776 75.9602 42.3675 76.0986 42.5112L79.9952 41.3119C79.9976 41.1149 80.0639 40.9187 80.1945 40.7571L75.376 34.5992C75.3526 34.6034 75.3287 34.6066 75.3046 34.6084C75.286 34.6099 75.2674 34.6106 75.2491 34.6106C74.8868 34.6106 74.5807 34.329 74.5522 33.9694C74.5486 33.925 74.5499 33.8811 74.5546 33.8383L72.1774 32.2482C72.0627 32.3175 71.9285 32.3582 71.7848 32.3582C71.3659 32.3582 71.0251 32.0192 71.0251 31.6026C71.0251 31.5622 71.0292 31.523 71.0353 31.4843L68.5901 29.8488C68.5901 29.8488 68.5901 29.8487 68.5901 29.8488L65.344 27.6777L64.7188 27.2594L75.4268 42.2888C75.4673 42.2821 75.5085 42.2778 75.5509 42.2778" fill="#E8B941"/>
<path d="M81.1016 59.6263C80.8965 59.6263 80.7063 59.558 80.5523 59.4434L78.1758 61.1418L83.6957 60.8737L87.0737 60.7097L93.1477 60.4147L81.9186 59.132C81.8846 59.1968 81.8436 59.2584 81.7939 59.3147C81.6317 59.4985 81.4072 59.6084 81.1619 59.6243C81.1417 59.6256 81.1215 59.6263 81.1016 59.6263Z" fill="#E8B941"/>
<path d="M70.0793 29.425L69.2456 28.0623C69.2197 28.0673 69.1935 28.0712 69.1669 28.0733C69.1483 28.0748 69.1297 28.0755 69.1114 28.0755C68.8256 28.0755 68.5753 27.8999 68.4682 27.6493L66.5 27.6843L68.8845 29.2791L70.0793 29.425Z" fill="#E8B941"/>
<path fill-rule="evenodd" clip-rule="evenodd" d="M72.5468 31.0006C72.5468 30.4449 72.206 29.9928 71.7871 29.9928C71.7583 29.9928 71.7299 29.9953 71.7019 29.9994L71.3125 29.1507L81.1587 30.7538L75.7282 33.4068C75.6025 33.2512 75.4345 33.1561 75.2524 33.1561C75.234 33.1561 75.2154 33.1571 75.1968 33.159C75.0926 33.1699 74.9959 33.2115 74.9102 33.2756L72.5365 31.1582C72.5427 31.1067 72.5468 31.0544 72.5468 31.0006ZM76.67 32.1943L78.9099 31.1L72.8955 30.1208C72.9852 30.319 73.0457 30.543 73.0687 30.7823L73.5786 31.2372L76.67 32.1943Z" fill="#E8B941"/>
<path d="M70.7587 30.5306L70.5055 30.1169L70.0586 30.0623L70.7587 30.5306Z" fill="#E8B941"/>
<path fill-rule="evenodd" clip-rule="evenodd" d="M50.649 35.3933C50.3392 35.3933 50.048 35.5133 49.8289 35.7312C49.7701 35.7899 49.7192 35.8534 49.6757 35.9203L39.0781 32.9227L59.8193 28.5946L51.2923 35.5867C51.1034 35.4609 50.8815 35.3933 50.649 35.3933ZM55.8231 31.1845L57.81 29.5553L45.6572 32.0912L55.8231 31.1845Z" fill="#E8B941"/>
<path fill-rule="evenodd" clip-rule="evenodd" d="M65.037 84.5181C65.112 84.3856 65.1474 84.2342 65.1373 84.0788H65.1376C65.1103 83.6627 64.7608 83.3367 64.3419 83.3367C64.3247 83.3367 64.3072 83.3372 64.2898 83.3385C64.077 83.3522 63.8825 83.4475 63.742 83.6067C63.6343 83.7288 63.5685 83.8773 63.5496 84.0351L59.1985 85.5625L55.6845 81.5838C55.7566 81.455 55.7941 81.3053 55.7838 81.1476C55.7566 80.7315 55.4071 80.4056 54.9882 80.4056C54.9709 80.4056 54.9534 80.406 54.936 80.4072C54.8285 80.4142 54.7259 80.442 54.6323 80.4883L52.9258 79.0663C52.9397 79.0055 52.9449 78.9423 52.9408 78.8783C52.9218 78.5884 52.7129 78.3523 52.4402 78.2859L51.4526 73.8333C51.4542 73.8319 51.4558 73.8306 51.4574 73.8292C51.4685 73.8196 51.4796 73.8099 51.4902 73.7995C51.6278 73.6625 51.7036 73.4805 51.7036 73.2868C51.7036 73.0932 51.6278 72.9111 51.4902 72.7742C51.3525 72.6373 51.1695 72.5619 50.9748 72.5619C50.7802 72.5619 50.5971 72.6373 50.4595 72.7742C50.3531 72.88 50.2843 73.0127 50.2582 73.1569L49.5617 73.3453L49.5821 73.1946L51.1457 70.2425C51.1706 70.1954 51.1834 70.1424 51.1825 70.0892L51.0651 62.5962C51.1682 62.5536 51.263 62.4908 51.3443 62.4098C51.6813 62.0747 51.6813 61.5292 51.3443 61.1939C51.181 61.0316 50.964 60.9422 50.7331 60.9422C50.6245 60.9422 50.5193 60.9626 50.421 61.0005L48.408 59.0756C48.4496 58.981 48.4765 58.8783 48.4836 58.7698C48.4996 58.5258 48.419 58.2901 48.2568 58.1063C48.1279 57.9603 47.9593 57.8618 47.7725 57.8192L47.3437 54.7103L50.47 51.8629C50.5462 51.8895 50.627 51.9042 50.7102 51.9042C50.9037 51.9042 51.0858 51.8292 51.2227 51.693C51.5052 51.4119 51.5052 50.9545 51.2227 50.6734C51.1545 50.6056 51.075 50.5529 50.9885 50.5172C50.9649 48.4696 50.8778 40.6928 50.8855 37.6763C50.9148 37.6703 50.9436 37.663 50.9721 37.6549L55.0003 44.1523C55.0015 44.1543 55.0029 44.156 55.0045 44.1577C55.0063 44.1596 55.0081 44.1615 55.0096 44.1638C55.0198 44.1787 55.0312 44.1927 55.0441 44.2059L55.0469 44.2088C55.0506 44.2126 55.0544 44.2165 55.0585 44.2202C55.0754 44.2354 55.0937 44.2493 55.1141 44.2609L55.1144 44.261C55.1153 44.2615 55.1162 44.262 55.1172 44.2629C55.1184 44.2635 55.1193 44.2642 55.1205 44.2651L63.5051 48.7651C63.4877 48.8453 63.4779 48.9277 63.4779 49.0118C63.4779 49.3199 63.5985 49.6096 63.8175 49.8275C64.0366 50.0454 64.3279 50.1654 64.6375 50.1654C64.9473 50.1654 65.2385 50.0454 65.4576 49.8275C65.6766 49.6096 65.7972 49.3199 65.7972 49.0118C65.7972 48.9239 65.7864 48.8377 65.7672 48.7541L75.0896 43.6308C75.2181 43.7297 75.3787 43.7893 75.5534 43.7893C75.5896 43.7893 75.6249 43.7858 75.6597 43.781L80.9429 52.1805C81.0016 52.2741 81.1029 52.3299 81.2137 52.3299C81.2509 52.3299 81.2876 52.3234 81.3229 52.3106L84.8541 51.0333L81.0334 54.3488C80.9668 54.4065 80.927 54.49 80.9241 54.5778L80.815 57.8423C80.4272 57.9703 80.158 58.3457 80.1858 58.7698C80.1889 58.8175 80.1967 58.8637 80.2068 58.909L76.9262 61.2535C76.9251 61.2543 76.9242 61.2551 76.9232 61.256C76.9225 61.2567 76.9217 61.2574 76.9208 61.258C76.9186 61.2597 76.9165 61.2616 76.9144 61.2634C76.9131 61.2646 76.9119 61.2657 76.9106 61.2668C76.9014 61.2743 76.8923 61.2817 76.8842 61.2899C76.863 61.3114 76.8451 61.3361 76.8307 61.3629L76.826 61.3614L76.8093 61.4116V61.4117L76.0947 63.5583L75.699 64.7469C75.4794 64.7765 75.2799 64.8818 75.1323 65.0491C74.97 65.2328 74.8895 65.4686 74.9054 65.7126C74.935 66.1656 75.2956 66.5255 75.7421 66.5649L78.0947 70.7801C78.0408 70.8774 78.01 70.9889 78.01 71.1076C78.01 71.4706 78.2968 71.7673 78.6568 71.7873L79.622 73.5166L80.3305 74.7859L76.2078 72.47C76.1919 72.1083 75.8918 71.8187 75.5242 71.8187C75.1465 71.8187 74.8392 72.1244 74.8392 72.5002C74.8392 72.5566 74.8468 72.6111 74.8598 72.6636L73.9442 73.6175C73.8847 73.6007 73.8221 73.5911 73.7572 73.5911C73.3795 73.5911 73.0721 73.8968 73.0721 74.2726C73.0721 74.5489 73.2385 74.7868 73.4767 74.8937L73.8025 80.0021L72.5075 81.9176C72.4381 81.9009 72.3661 81.8911 72.2915 81.8911C71.7839 81.8911 71.3711 82.3019 71.3711 82.8068C71.3711 82.9155 71.3912 83.0193 71.4263 83.1162L67.8633 86.102C67.8608 86.1041 67.8585 86.1064 67.8563 86.1088C67.8547 86.1104 67.8531 86.1121 67.8514 86.1137C67.8464 86.1184 67.8414 86.1231 67.8367 86.1281C67.8285 86.1367 67.8212 86.1457 67.8142 86.1551L67.8129 86.1568C67.8096 86.1611 67.8062 86.1653 67.8031 86.1699C67.7959 86.1808 67.7897 86.1922 67.7838 86.204C67.7815 86.2083 67.7791 86.2124 67.7771 86.2168C67.7621 86.2504 67.7533 86.2864 67.7508 86.323C67.7508 86.3236 67.7506 86.3242 67.7503 86.3249C67.7501 86.3255 67.7499 86.3261 67.7499 86.3268L67.6439 88.1599L65.037 84.5181ZM64.2551 82.8095C64.284 82.8077 64.313 82.8067 64.3418 82.8067L64.3421 82.8065C65.0409 82.8065 65.6238 83.35 65.6692 84.044C65.6779 84.1779 65.6663 84.311 65.6353 84.4394L66.7193 85.9539L67.2174 86.3415L67.2233 86.2467C67.2331 86.1623 67.2556 86.0803 67.2901 86.0024L67.3111 85.96C67.3269 85.9291 67.3425 85.9022 67.36 85.876C67.3688 85.8629 67.3777 85.8506 67.3869 85.8386C67.4071 85.8119 67.4272 85.7877 67.4489 85.7648C67.4584 85.7547 67.4683 85.7448 67.4786 85.735C67.4919 85.7216 67.5056 85.7088 67.5201 85.6965L70.8425 82.9125C70.8397 82.8772 70.8384 82.8419 70.8384 82.8065C70.8384 82.0284 71.4599 81.3922 72.2349 81.3625L72.2668 81.324L73.2595 79.8557L72.9618 75.1884C72.6982 74.9616 72.5395 74.6287 72.5395 74.2724C72.5395 73.6096 73.0772 73.0694 73.7415 73.0612L74.3068 72.4724C74.3217 71.8171 74.862 71.2887 75.5241 71.2887C75.6567 71.2887 75.7841 71.3099 75.9035 71.3487L76.4561 68.9355L75.3942 67.0329C74.8326 66.8577 74.4132 66.3482 74.374 65.7467C74.3487 65.3614 74.4759 64.9895 74.732 64.6993C74.8833 64.5279 75.0724 64.3958 75.2826 64.3121L76.2315 61.4616C76.2359 61.4484 76.24 61.4344 76.2442 61.42C76.2457 61.415 76.2471 61.4099 76.2486 61.4048C76.2814 61.2916 76.331 61.1206 76.456 60.972C76.5375 60.8753 76.6276 60.8127 76.6873 60.7712L76.688 60.7708L76.7132 60.7531L79.6525 58.6527C79.6709 58.1889 79.9132 57.7665 80.2931 57.5121L80.3917 54.56C80.3995 54.326 80.5057 54.1034 80.6832 53.9494L82.3509 52.5022L81.5048 52.8083C81.4106 52.8422 81.3127 52.8594 81.2136 52.8594C80.9181 52.8594 80.6479 52.7105 80.4912 52.4612L76.362 45.8961L74.4756 44.5732L66.3293 49.0501C66.3196 49.4853 66.1445 49.8929 65.8341 50.2017C65.5144 50.5198 65.0894 50.6948 64.6375 50.6948C64.1855 50.6948 63.7606 50.5198 63.4409 50.2019C63.1344 49.897 62.96 49.4957 62.9461 49.0669L54.8192 44.7022C54.7778 44.6762 54.7379 44.646 54.7004 44.6121C54.6895 44.6024 54.6768 44.59 54.6643 44.577C54.6354 44.5474 54.6105 44.5181 54.5882 44.4881C54.5765 44.4736 54.5622 44.4546 54.548 44.4318L53.8184 43.2551L51.4355 41.8248C51.4587 44.9341 51.4986 48.5558 51.5177 50.2242C51.5458 50.2477 51.5729 50.2725 51.5992 50.2986C51.8364 50.5346 51.9671 50.8486 51.9671 51.1829C51.9671 51.5172 51.8364 51.8314 51.5991 52.0674C51.3437 52.3214 50.9943 52.4535 50.6342 52.4313L47.9092 54.9132L48.2576 57.4395C48.4074 57.52 48.5423 57.6267 48.657 57.7566C48.9129 58.0468 49.0402 58.4187 49.0149 58.804C49.0126 58.8397 49.009 58.8751 49.0039 58.9105L50.5828 60.4202C50.6326 60.4149 50.6827 60.4121 50.733 60.4121C51.1061 60.4121 51.4569 60.5567 51.7208 60.8192C52.2653 61.361 52.2653 62.2425 51.7208 62.7843C51.683 62.8218 51.6435 62.857 51.6023 62.8896L51.7149 70.0807C51.7172 70.222 51.6834 70.3634 51.6168 70.489L50.7928 72.0447C50.8525 72.0361 50.9133 72.0318 50.9747 72.0318C51.3117 72.0318 51.6285 72.1623 51.8667 72.3995C52.1049 72.6363 52.2361 72.9515 52.2361 73.2866C52.2361 73.5351 52.1639 73.7726 52.0294 73.9754L52.9018 77.9083C53.2247 78.1021 53.4409 78.4405 53.4711 78.8294L54.7516 79.8964C54.8009 79.8876 54.8509 79.8816 54.9014 79.8783C54.9302 79.8765 54.9593 79.8755 54.9881 79.8755C55.6868 79.8755 56.2698 80.4191 56.3151 81.113C56.323 81.2323 56.3144 81.3511 56.2902 81.4668L58.7696 84.2741L59.5131 84.8899L63.1106 83.6272C63.1659 83.4928 63.2437 83.368 63.3417 83.2569C63.576 82.9914 63.9004 82.8324 64.2551 82.8095Z" fill="#E8B941"/>
<path d="M64.022 84.8574C63.9099 84.8088 63.8109 84.7354 63.7322 84.6437L59.1953 86.2364L64.0501 92.5458L64.0416 90.2223L64.022 84.8574Z" fill="#E8B941"/>
<path d="M68.3516 90.1574C68.2669 90.1894 68.177 90.209 68.084 90.2151C68.0638 90.2163 68.0437 90.2169 68.0237 90.2169C67.5404 90.2169 67.1371 89.8409 67.1057 89.3607C67.0911 89.1356 67.1602 88.9243 67.2859 88.756L64.6641 85.0934L64.6935 93.1568L70.0069 92.2038L68.3516 90.1574Z" fill="#E8B941"/>
<path d="M70.7228 92.072L73.0064 91.6121L69.1016 90.0685L70.7228 92.072Z" fill="#E8B941"/>
<path d="M50.2673 64.2679C50.2767 64.2777 50.2852 64.2884 50.2945 64.2981L50.3145 64.1517L50.2673 64.2679Z" fill="#E8B941"/>
<path d="M48.7671 90.5797C48.7495 90.5808 48.7322 90.5814 48.7148 90.5814C48.5465 90.5814 48.3899 90.5281 48.2603 90.4381L45.9062 92.0397L49.2346 92.2914L57.6097 92.925L49.3016 90.3248C49.1621 90.4757 48.9734 90.5662 48.7671 90.5797Z" fill="#E8B941"/>
<path d="M54.6905 81.9363L51.2109 85.867L59.5439 92.4097L54.9188 81.9896C54.8389 81.983 54.7623 81.9649 54.6905 81.9363Z" fill="#E8B941"/>
<path d="M69.4258 89.513L71.2834 90.2473L81.7764 86.778L69.4258 89.513Z" fill="#E8B941"/>
<path d="M60.3257 92.5931C60.6206 92.6463 60.8612 92.8623 60.9469 93.1463L63.7553 93.2056L56.293 83.5075L60.3257 92.5931Z" fill="#E8B941"/>
<path d="M59.1109 85.7918L59.385 86.1253L59.2237 85.6997L59.1109 85.7918Z" fill="#E8B941"/>
<path fill-rule="evenodd" clip-rule="evenodd" d="M87.1172 76.7955L96.7813 61.5899C96.8336 61.5972 96.8863 61.6024 96.94 61.6024L97.4443 64.2796L94.9575 67.3173C94.9 67.3042 94.8406 67.2966 94.7795 67.2966C94.7619 67.2966 94.7443 67.2972 94.7266 67.2984C94.5111 67.3123 94.3141 67.4089 94.1716 67.5702C94.0292 67.7316 93.9584 67.9385 93.9725 68.1529C93.9789 68.2507 94.0035 68.3434 94.0419 68.4285L87.1172 76.7955ZM94.7005 66.7696C94.7071 66.7691 94.7136 66.7686 94.7203 66.7686L96.8755 64.1359L96.6282 62.8229L93.9297 67.0688C94.1448 66.8928 94.409 66.7884 94.6922 66.7701C94.695 66.7699 94.6977 66.7698 94.7005 66.7696Z" fill="#E8B941"/>
<path d="M70.6052 92.7426L68.3594 93.1453L72.7323 93.0647L73.3702 92.1867L70.6054 92.7436V92.7426H70.6052Z" fill="#E8B941"/>
<path d="M85.2727 80.6503C85.2953 80.9354 85.2125 81.2271 85.0234 81.4621L87.406 84.1563C87.4926 84.1294 87.5846 84.1148 87.68 84.1148C87.7422 84.1148 87.8029 84.1212 87.8617 84.1329L89.2017 80.663C89.0275 80.4963 88.9186 80.2628 88.9186 80.0039C88.9186 79.499 89.3316 79.0883 89.8391 79.0883C89.9589 79.0883 90.0732 79.1118 90.1783 79.1535L93.361 76.2242L91.2377 77.386L85.2727 80.6503Z" fill="#E8B941"/>
<path fill-rule="evenodd" clip-rule="evenodd" d="M98.9367 61.8481L99.3559 64.0733H99.3567C99.4434 64.5338 99.3227 65.0062 99.0253 65.3696L96.864 68.0096C96.8831 68.4347 96.773 68.8471 96.5483 69.2024L97.0874 74.5907L97.0897 74.6147L97.0907 74.6387C97.0929 74.7038 97.0914 74.7657 97.0862 74.8275L97.0853 74.8377L97.0842 74.8479L97.0802 74.8828L97.0793 74.889L97.0783 74.8952C97.0693 74.9635 97.057 75.0279 97.0411 75.089C97.0359 75.1095 97.0294 75.1327 97.0212 75.1598C97.0025 75.2203 96.981 75.2777 96.9555 75.3353C96.9452 75.359 96.9345 75.3822 96.9218 75.4073C96.8802 75.4895 96.8321 75.5676 96.7787 75.6392L96.7718 75.6485L96.7647 75.6575L96.741 75.6874L96.7375 75.6918L96.7339 75.6961C96.7073 75.7287 96.6793 75.7604 96.6507 75.7901L96.6453 75.7958L96.6399 75.8014L96.6036 75.8376L96.5925 75.8488L96.5809 75.8595L92.038 80.0405C92.024 80.9051 91.5104 81.6595 90.7395 82.0007L89.7977 84.4393C89.8519 84.6304 89.8793 84.8282 89.8793 85.0306C89.8793 86.2365 88.893 87.2177 87.6806 87.2177C87.5247 87.2177 87.3708 87.2014 87.2203 87.1693L75.1656 92.9699L74.1916 94.3104C73.899 94.7131 73.4261 94.9593 72.9264 94.9685L65.6661 95.1025L65.6648 95.15L64.926 95.1364L64.3735 95.1263L63.8096 95.1371L63.0498 95.1515V95.0984L61.3774 95.063C61.0676 95.2799 60.7015 95.4095 60.3189 95.4342C60.274 95.4372 60.2281 95.4387 60.1827 95.4387C59.6761 95.4387 59.1947 95.2562 58.8192 94.9293L46.1767 93.9729C45.8654 94.1927 45.4974 94.3238 45.1102 94.3488C45.0655 94.3517 45.0201 94.3532 44.9752 94.3532C44.4689 94.3532 43.9775 94.1644 43.602 93.8359L32.3484 93.4889C32.0382 93.6592 31.6886 93.7491 31.3345 93.7491C30.5876 93.7491 29.8913 93.3493 29.5176 92.7057C29.2374 92.2231 29.163 91.6607 29.3081 91.1224C29.4531 90.584 29.8001 90.1341 30.2852 89.8554C30.6032 89.6728 30.9666 89.5763 31.3362 89.5763C31.4114 89.5764 31.4864 89.5804 31.5607 89.5884L37.3835 87.2731L37.2383 73.9012C36.8764 73.5076 36.6781 73.001 36.6781 72.4641C36.6781 71.9252 36.8778 71.4168 37.2426 71.0223L37.3621 62.377L37.3622 62.3676V62.3582L37.4048 61.2729C37.0886 60.8923 36.9167 60.4186 36.9167 59.9184C36.9167 59.3899 37.1087 58.8908 37.4603 58.4996L37.4462 38.6554C37.4186 38.618 37.3926 38.5797 37.3678 38.5406L30.7439 35.1764C30.5559 35.2284 30.3607 35.2552 30.1658 35.2552C28.9716 35.2552 28 34.2887 28 33.1008C28 31.9128 28.9716 30.9463 30.1658 30.9463C30.6544 30.9463 31.1261 31.1113 31.5049 31.4077L36.483 31.311C36.8725 30.9805 37.3673 30.7962 37.8853 30.7962C38.2239 30.7962 38.5516 30.8733 38.8493 31.0213L60.3093 26.5434L61.4571 25.6021C61.6519 24.6794 62.4671 24 63.4506 24C64.348 24 65.127 24.5856 65.3921 25.4105L65.9536 25.7861L68.0039 25.7498C68.2854 25.5606 68.6145 25.4449 68.9563 25.4181C69.0085 25.414 69.0613 25.4119 69.1137 25.4119C70.1376 25.4119 71.003 26.2081 71.0837 27.2244C71.0886 27.2852 71.0905 27.3461 71.0896 27.4072L71.6583 28.3364L81.4135 29.5272C81.6526 29.3996 81.9165 29.3224 82.1909 29.3008C82.2437 29.2967 82.2973 29.2945 82.3501 29.2945C83.3736 29.2945 84.2386 30.0908 84.3192 31.107C84.3318 31.2661 84.3252 31.4245 84.2995 31.5803L86.9823 39.5462C87.0914 39.6209 87.1937 39.7055 87.2882 39.7995C87.4972 40.0075 87.6601 40.254 87.7692 40.525L88.3279 40.8221L88.3345 40.8255L88.3409 40.8292L89.5967 41.5291L90.56 42.0092L90.5688 42.0135L90.5775 42.0182L93.6808 43.6682C93.8516 43.6267 94.0272 43.6053 94.2014 43.6053C95.4137 43.6053 96.4 44.5864 96.4 45.7924C96.4 46.1685 96.3003 46.5393 96.1147 46.8662L96.8082 50.5421C97.259 50.9223 97.5277 51.4871 97.5277 52.0887C97.5277 52.4261 97.4419 52.7582 97.2819 53.0528L98.2965 58.4307C98.4294 58.5189 98.5537 58.6204 98.6683 58.7344C99.1288 59.1924 99.3824 59.8013 99.3824 60.4493C99.3824 60.9574 99.2263 61.4417 98.9367 61.8481ZM98.0342 64.5673L95.4753 67.693C95.5383 67.7985 95.5778 67.9194 95.5863 68.0492C95.6003 68.2635 95.5296 68.4704 95.3871 68.6317C95.3379 68.6876 95.2818 68.735 95.2209 68.7746L95.8127 74.6634V74.668V74.6787C95.8136 74.693 95.8136 74.7073 95.8117 74.7213C95.8117 74.726 95.8107 74.7306 95.81 74.7352C95.8083 74.7484 95.8059 74.7614 95.8026 74.7742L95.8019 74.7767C95.8009 74.7805 95.8 74.7843 95.7988 74.7881C95.7953 74.7994 95.7912 74.8104 95.7864 74.8211C95.7855 74.8232 95.7846 74.8253 95.7836 74.8273C95.7821 74.8307 95.7809 74.8343 95.7792 74.8376C95.7711 74.8537 95.7617 74.8691 95.751 74.8835C95.7499 74.885 95.7485 74.8863 95.7475 74.8877C95.7377 74.9005 95.7267 74.9125 95.715 74.9237L95.7134 74.9255L95.713 74.9259C95.7123 74.9267 95.7117 74.9276 95.7109 74.9283L90.655 79.5816C90.7217 79.7082 90.7599 79.852 90.7599 80.0045C90.7599 80.5094 90.347 80.9202 89.8394 80.9202C89.8279 80.9202 89.8166 80.9194 89.8053 80.9187L89.7884 80.9176L88.4131 84.4791C88.5303 84.6327 88.6008 84.8237 88.6008 85.031C88.6008 85.5359 88.1878 85.9467 87.6803 85.9467C87.4876 85.9467 87.3087 85.8872 87.1607 85.786L74.3184 91.9656L73.1554 93.5662C73.0968 93.6467 73.0022 93.696 72.9023 93.6978L64.4214 93.8542V93.8562L64.3738 93.8551L64.3277 93.8561V93.8542L60.8676 93.7811C60.8428 93.822 60.8147 93.8612 60.7825 93.8978C60.6419 94.0571 60.4473 94.1524 60.2348 94.1662C60.2173 94.1672 60.1998 94.1678 60.1824 94.1678C59.8629 94.1678 59.5842 93.9779 59.4577 93.7031L45.6796 92.6607C45.6507 92.7144 45.6164 92.7654 45.575 92.8123C45.4344 92.9716 45.2399 93.0669 45.0273 93.0806C45.0097 93.0817 44.9923 93.0823 44.975 93.0823C44.6425 93.0823 44.3544 92.8766 44.2359 92.5839L31.9455 92.205C31.888 92.269 31.8206 92.3247 31.7436 92.3689C31.6191 92.4404 31.4776 92.4782 31.3343 92.4782C31.0423 92.4782 30.7701 92.322 30.6242 92.0706C30.5148 91.882 30.4857 91.6623 30.5423 91.452C30.599 91.2418 30.7347 91.0659 30.9242 90.9571C31.0487 90.8856 31.1902 90.8477 31.3335 90.8477C31.4486 90.8477 31.5601 90.8728 31.6626 90.9176L38.6708 88.1311L38.5094 73.2666C38.3983 73.2239 38.2959 73.1589 38.2092 73.0726C38.046 72.9102 37.9561 72.6943 37.9561 72.4647C37.9561 72.235 38.046 72.019 38.2092 71.8567C38.2966 71.7697 38.3997 71.7045 38.5119 71.6618L38.6396 62.4084L38.7065 60.7035C38.6116 60.6612 38.5239 60.6023 38.4482 60.5269C38.2849 60.3645 38.195 60.1486 38.195 59.9189C38.195 59.6893 38.2849 59.4734 38.4482 59.311C38.5325 59.2271 38.6315 59.1631 38.7391 59.1204L38.724 38.1138C38.66 38.081 38.6004 38.0386 38.548 37.9864C38.4423 37.8813 38.3781 37.7508 38.3541 37.6144L30.7586 33.7568C30.6012 33.8977 30.3939 33.9843 30.166 33.9843C29.6765 33.9843 29.2783 33.5882 29.2783 33.1013C29.2783 32.6144 29.6765 32.2182 30.166 32.2182C30.5065 32.2182 30.8024 32.4102 30.9512 32.6907L37.0852 32.5715C37.2283 32.2744 37.5327 32.0682 37.8855 32.0682C38.1565 32.0682 38.3991 32.19 38.5621 32.3809L60.7367 27.7538L60.7525 27.8284L62.7164 26.2179C62.7005 26.157 62.6911 26.0935 62.6911 26.0277C62.6911 25.611 63.0319 25.2719 63.4508 25.2719C63.8697 25.2719 64.2105 25.611 64.2105 26.0277C64.2105 26.0679 64.2063 26.1072 64.2002 26.1459L65.5745 27.0651L68.5188 27.0128C68.5373 26.9835 68.5573 26.9548 68.5803 26.928C68.7016 26.7866 68.871 26.7007 69.0573 26.6861C69.0669 26.6853 69.0764 26.6848 69.086 26.6844C69.0949 26.6841 69.1039 26.6839 69.1128 26.6839C69.4751 26.6839 69.7812 26.9655 69.8097 27.325C69.8191 27.4434 69.7983 27.5593 69.7507 27.6645L70.8885 29.5239L81.7824 30.8538C81.789 30.8447 81.7956 30.8357 81.8026 30.8268C81.8069 30.8214 81.8113 30.816 81.8159 30.8107C81.9372 30.6694 82.1065 30.5834 82.2928 30.5688C82.3044 30.5679 82.316 30.5673 82.3276 30.5669C82.3345 30.5667 82.3414 30.5666 82.3483 30.5666C82.7106 30.5666 83.0167 30.8482 83.0452 31.2077C83.0565 31.3498 83.0237 31.4853 82.9585 31.6011L85.9411 40.4569C86.1077 40.4937 86.2609 40.5761 86.3845 40.6991C86.5701 40.8837 86.6573 41.1289 86.6484 41.3712L93.6247 45.0805C93.7827 44.9537 93.9831 44.8773 94.2015 44.8773C94.7091 44.8773 95.1221 45.2881 95.1221 45.7929C95.1221 46.0932 94.9754 46.3593 94.7502 46.5264L95.661 51.3536C95.9976 51.431 96.2497 51.7311 96.2497 52.0893C96.2497 52.3484 96.1178 52.5773 95.9175 52.7135L97.1633 59.317C97.3898 59.3597 97.5982 59.4684 97.7648 59.634C97.9838 59.852 98.1044 60.1416 98.1044 60.4498C98.1044 60.7579 97.9838 61.0477 97.7648 61.2655C97.7014 61.3285 97.6314 61.3824 97.5573 61.4284L98.0998 64.3081C98.1171 64.4002 98.093 64.4947 98.0335 64.5674L98.0342 64.5673ZM31.5041 90.1506C31.5233 90.1506 31.5425 90.1522 31.5616 90.1537L31.5616 90.1537C31.5776 90.1549 31.5936 90.1562 31.6096 90.1566L31.5369 90.1565C31.4886 90.1564 31.4404 90.1563 31.3921 90.1566C31.4109 90.1566 31.4295 90.1548 31.4481 90.153C31.4667 90.1512 31.4854 90.1494 31.5041 90.1494V90.1506Z" fill="#E8B941"/>
<path d="M94.5117 68.8589L85.4219 79.842L91.4592 76.5383L95.1533 74.5169L94.587 68.8811C94.5615 68.8749 94.5364 68.8675 94.5117 68.8589Z" fill="#E8B941"/>
<path d="M74.1052 91.3623L83.2579 86.9581L72.207 90.6119L74.1052 91.3623Z" fill="#E8B941"/>
<path d="M84.4998 81.8312C84.3789 81.8729 84.251 81.8958 84.1193 81.8958C83.8095 81.8958 83.5183 81.7759 83.2993 81.5579C83.2479 81.5068 83.2031 81.4517 83.1633 81.3941L73.1942 82.9845C73.1107 83.4045 72.7379 83.7223 72.2915 83.7223C72.1265 83.7223 71.9719 83.6783 71.8379 83.6024L69.0156 85.9674L86.7776 84.8595C86.7992 84.7465 86.8421 84.6411 86.9013 84.5468L86.0542 83.5889L84.4998 81.8312Z" fill="#E8B941"/>
<path d="M68.3721 86.6442L68.2695 88.419C68.5531 88.4971 68.784 88.7072 68.8871 88.9807L83.778 85.6834L70.0562 86.5391L68.3721 86.6442Z" fill="#E8B941"/>
<path d="M50.3016 86.0328L50.3134 85.9812L50.3159 85.9702L48.2695 84.3634L48.8741 89.0092C49.217 89.0772 49.4838 89.3658 49.513 89.7233L58.7967 92.6289L50.4338 86.0628L50.3016 86.0328Z" fill="#E8B941"/>
<path fill-rule="evenodd" clip-rule="evenodd" d="M39.2781 62.4249L39.3448 60.7296C39.4056 60.7085 39.4638 60.6807 39.5185 60.6464L44.9008 63.9431C44.8864 64.091 44.9181 64.2424 44.9946 64.3748L39.1523 71.5512L39.2781 62.4249ZM39.8478 61.4702L39.8097 62.4382L39.7051 70.029L44.3912 64.2729C44.3896 64.2654 44.3881 64.2579 44.3866 64.2503L39.8478 61.4702Z" fill="#E8B941"/>
<path fill-rule="evenodd" clip-rule="evenodd" d="M45.2348 63.3723L40.625 59.206L49.7105 61.1523L46.0971 63.462C45.9654 63.2966 45.7999 63.2058 45.6247 63.2058C45.4843 63.2058 45.3503 63.2643 45.2348 63.3723ZM45.2801 62.4949C45.3917 62.4481 45.5078 62.4241 45.6254 62.4241C45.803 62.4241 45.9774 62.4795 46.1376 62.5842L47.7866 61.5301L43.1025 60.5267L45.2801 62.4949Z" fill="#E8B941"/>
<path d="M45.3065 68.8995L46.4968 68.3105L45.7581 65.3342L45.25 68.8554C45.2694 68.8691 45.2883 68.8839 45.3065 68.8995" fill="#E8B941"/>
<path fill-rule="evenodd" clip-rule="evenodd" d="M45.1284 65.2193L44.6187 68.7525C44.5049 68.7865 44.4007 68.8482 44.3143 68.9341C44.1601 69.0874 44.0903 69.2929 44.1034 69.494L39.9922 71.5284L45.1284 65.2193ZM43.604 69.1489C43.6581 68.9277 43.7719 68.7233 43.9365 68.5595C43.9958 68.5007 44.0607 68.4479 44.13 68.402L44.3256 67.0457L41.9453 69.9697L43.604 69.1489Z" fill="#E8B941"/>
<path d="M46.9915 38.4605C47.152 38.4605 47.3041 38.5142 47.4276 38.6126C48.1609 38.0604 48.9773 37.4415 49.5734 36.9812C49.5146 36.8367 49.4871 36.6827 49.4895 36.529L44.2718 35.0529L40.0234 56.8026L41.5712 53.1914L43.0325 49.6736L46.4861 39.639C46.2236 39.3665 46.2266 38.9327 46.4961 38.6646C46.6285 38.533 46.8044 38.4605 46.9915 38.4605Z" fill="#E8B941"/>
<path fill-rule="evenodd" clip-rule="evenodd" d="M46.2033 64.4604C46.297 64.3416 46.3504 64.1979 46.3569 64.0455L50.1273 62.4123C50.1541 62.4387 50.1827 62.4626 50.2122 62.485L49.5166 64.1906C49.3546 64.2096 49.2046 64.281 49.0875 64.3974C48.8214 64.6622 48.8046 65.0824 49.0369 65.3668L44.223 77.1707C44.1605 77.1753 44.0991 77.1881 44.04 77.209L39.6172 72.8045C39.6734 72.6741 39.696 72.5329 39.6846 72.3936L44.4253 70.0477C44.545 70.1287 44.6861 70.1725 44.834 70.1725C45.0287 70.1725 45.2117 70.0971 45.3493 69.9601C45.4779 69.8323 45.5516 69.6649 45.5609 69.4857L47.0147 68.7663C47.1497 68.6995 47.2187 68.5511 47.1826 68.4055L46.2033 64.4604ZM48.7107 64.0233C48.8305 63.9042 48.9694 63.8123 49.1215 63.7501L49.282 63.3566L46.8223 64.4222C46.8078 64.4638 46.7912 64.5049 46.7725 64.5448L47.5156 67.5384L47.7188 67.1896L48.4446 65.4098C48.2421 64.9477 48.3354 64.3967 48.7107 64.0233Z" fill="#E8B941"/>
<path fill-rule="evenodd" clip-rule="evenodd" d="M47.5066 58.0915C47.5269 58.0935 47.547 58.0953 47.5669 58.0953C47.7097 58.0953 47.8452 58.0305 47.9665 57.9171L49.7754 61.2634L40.5859 58.6825L46.7183 57.0073C46.8493 57.6069 47.1469 58.0465 47.5066 58.0915ZM46.4515 58.1156L44.3242 58.6968L48.2099 59.7881L47.825 59.076C47.7097 59.1163 47.5917 59.1301 47.4716 59.1143C47.0668 59.0639 46.7021 58.697 46.4515 58.1156Z" fill="#E8B941"/>
<path fill-rule="evenodd" clip-rule="evenodd" d="M46.6892 58.4245L39.7499 59.4044C39.7353 59.3848 39.7196 59.3659 39.7031 59.3474L42.1582 53.4374L42.753 52.0497L46.8471 58.1365C46.7782 58.2213 46.7243 58.3184 46.6892 58.4245ZM42.8583 53.1577L42.6493 53.6455L40.5244 58.7604L46.0975 57.9734L42.8583 53.1577Z" fill="#E8B941"/>
<path fill-rule="evenodd" clip-rule="evenodd" d="M48.2482 57.3014L43.9922 52.7491L47.7618 54.7633L48.2482 57.3014Z" fill="#E8B941"/>
<path d="M39.5388 37C39.8119 37.2717 39.8119 37.7137 39.5388 37.9854C39.4866 38.0375 39.4272 38.0798 39.3634 38.1124L39.3767 56.7777L43.6543 34.8782L38.6149 33.4526C38.5357 33.5659 38.4309 33.6603 38.3086 33.7265L39.1546 36.8054C39.2994 36.8282 39.4331 36.8948 39.5388 37Z" fill="#E8B941"/>
<path d="M37.0377 33.2078L31.3047 33.3192L38.5456 36.9968L37.6687 33.8057C37.3679 33.7297 37.1278 33.5014 37.0377 33.2078Z" fill="#E8B941"/>
<path d="M32.1172 91.4213C32.1329 91.4715 32.1437 91.5229 32.1494 91.5749L43.8635 91.9359L38.9568 88.7019L32.1172 91.4213Z" fill="#E8B941"/>
<path d="M39.3108 88.1729L40.5212 88.9707L44.4066 91.5316L39.1641 74.6467L39.3108 88.1729Z" fill="#E8B941"/>
<path d="M50.2467 37.6289C50.1479 37.5927 50.0545 37.5431 49.9684 37.4809C49.2742 38.0182 48.3385 38.7251 47.6887 39.2136C47.676 39.3729 47.6089 39.5288 47.4866 39.6503C47.4846 39.6522 47.4824 39.654 47.4805 39.6559L50.33 48.836C50.2968 45.8208 50.2389 40.1115 50.2467 37.6289Z" fill="#E8B941"/>
<path d="M47.9207 89.8394C47.9069 89.6279 47.9767 89.4237 48.1173 89.2644C48.1173 89.2644 48.1182 89.2635 48.1183 89.2634L44.1743 78.5518C43.9631 78.5221 43.7738 78.3974 43.6656 78.211C43.5722 78.05 43.5474 77.8625 43.5957 77.683C43.5967 77.6792 43.5982 77.6756 43.5993 77.6719L39.5078 73.5973L42.1841 82.2168L45.0665 91.5001C45.1872 91.5136 45.3003 91.5541 45.3992 91.6158L47.9272 89.8958C47.9246 89.8772 47.9219 89.8585 47.9207 89.8394Z" fill="#E8B941"/>
<path fill-rule="evenodd" clip-rule="evenodd" d="M46.9853 54.1758L43.625 50.173L49.8991 49.9198L46.9853 54.1758ZM45.1758 50.9605L46.9505 53.0745L48.4894 50.8267L45.1758 50.9605Z" fill="#E8B941"/>
<path d="M50.1962 50.6736C50.2048 50.665 50.2139 50.6575 50.2229 50.6496L46.9736 40.182L43.6321 49.8908C43.63 49.8969 43.6275 49.9032 43.6251 49.9092L43.1484 51.0565L50.0508 50.8827C50.0857 50.807 50.1335 50.7359 50.1962 50.6736Z" fill="#E8B941"/>
<path d="M59.3535 58.1866L59.3228 55.9707L57.4115 53.367L50.9531 53.2054L55.7922 56.6891L57.9871 56.4289L59.3535 58.1866Z" fill="#E8B941"/>
<path d="M68.5078 57.0927L68.8411 62.3024L69.7279 57.6503L70.6775 56.4288L72.8724 56.689L77.7114 53.2052L71.2532 53.3669L68.5078 57.0927Z" fill="#E8B941"/>
<path d="M69.6017 72.4315L64.7008 69.1579L64.7278 66.8684L69.7525 64.2798L68.9829 63.582L64.3326 63.9835L59.6823 63.582L58.9128 64.2798L63.9375 66.8684L63.9645 69.1579L59.0636 72.4315L57.8318 72.3464L57.7031 74.4118L62.1728 71.5318H64.3326H66.4925L70.9622 74.4118L70.8878 72.3078L69.6017 72.4315Z" fill="#E8B941"/>
<path d="M62.0234 79.4067H66.5707L64.3267 77.4529L62.0234 79.4067Z" fill="#E8B941"/>
</svg>
