<svg width="28" height="28" viewBox="0 0 28 28" fill="none" xmlns="http://www.w3.org/2000/svg">
<path d="M14 28C21.732 28 28 21.732 28 14C28 6.26801 21.732 0 14 0C6.26801 0 0 6.26801 0 14C0 21.732 6.26801 28 14 28Z" fill="white"/>
<path d="M18.1102 17.9091C18.1014 17.9102 18.0926 17.9109 18.0835 17.9109C17.9643 17.9109 17.8672 17.8144 17.8672 17.6958C17.8672 17.6953 17.8672 17.6948 17.8672 17.6944L16.8738 17.1363C16.847 17.1562 16.8138 17.1682 16.7777 17.1682C16.7582 17.1682 16.7394 17.1646 16.7221 17.1581L16.5151 17.3738C16.5205 17.3897 16.5236 17.4068 16.5236 17.4245C16.5236 17.4293 16.5232 17.4339 16.5228 17.4385L18.5862 18.7621L18.1101 17.9091H18.1102Z" fill="#862633"/>
<path d="M9.75725 18.9339L10.303 20.4162L10.2032 19.6491L9.75725 18.9339Z" fill="#862633"/>
<path d="M16.1936 19.3042C16.1982 19.3106 16.2025 19.3172 16.2065 19.324L18.5254 18.9541C18.5248 18.9369 18.5259 18.9198 18.5285 18.9028L16.447 17.5675L16.5248 18.7866C16.5258 18.803 16.5213 18.8194 16.5122 18.833L16.1936 19.3042Z" fill="#862633"/>
<path d="M18.4075 15.2796L17.6642 16.6043C17.6767 16.6271 17.6838 16.6532 17.6838 16.6809C17.6838 16.7174 17.6714 16.751 17.6506 16.7779L18.0449 17.4843C18.0574 17.482 18.0703 17.4806 18.0835 17.4806C18.2028 17.4806 18.2998 17.5772 18.2998 17.6958C18.2998 17.7514 18.2783 17.8019 18.2435 17.8401L18.6931 18.6457L18.4075 15.2796Z" fill="#862633"/>
<path d="M19.1067 11.7559C19.1067 11.7393 19.1089 11.7233 19.1126 11.7078L17.7875 10.8321C17.7601 10.8492 17.7278 10.8592 17.6931 10.8592C17.5947 10.8592 17.5146 10.7796 17.5146 10.6817C17.5146 10.672 17.5156 10.6626 17.5171 10.6534L17.0328 10.3333L18.1461 12.1034L19.1067 11.7559Z" fill="#862633"/>
<path fill-rule="evenodd" clip-rule="evenodd" d="M10.9802 17.3134C11.0088 17.3377 11.0446 17.3537 11.0835 17.3601L11.3557 18.4073C11.3196 18.4376 11.2984 18.4804 11.3019 18.5267C11.3049 18.5652 11.3247 18.5997 11.3549 18.6253L10.9834 20.0119L10.3557 19.5912L10.6982 17.4264C10.7167 17.407 10.7295 17.3846 10.7364 17.3607L10.9725 17.3062C10.9731 17.3068 10.9738 17.3074 10.9744 17.3081C10.9763 17.3099 10.9782 17.3117 10.9802 17.3134ZM11.1971 18.6529C11.1731 18.6168 11.1588 18.5765 11.1556 18.5347C11.1514 18.4799 11.1665 18.4258 11.1981 18.3789L11.0108 17.6581L10.9803 19.3054L11.0244 19.2975L11.1971 18.6529Z" fill="#862633"/>
<path d="M11.2054 8.56062C11.2054 8.62788 11.1807 8.6912 11.1359 8.74092L12.0093 10.1496L13.2636 7.39579L13.7394 6.35124L11.1811 8.44903C11.1968 8.48367 11.2054 8.52146 11.2054 8.56062Z" fill="#862633"/>
<path d="M17.6931 10.5041C17.7287 10.5041 17.7618 10.5147 17.7897 10.5326L18.9026 9.7591L18.2414 9.75771C18.231 9.78505 18.215 9.81074 18.1929 9.8327C18.1526 9.87278 18.099 9.89485 18.0421 9.89485C17.9851 9.89485 17.9315 9.87278 17.8912 9.8327C17.8874 9.82886 17.8839 9.82478 17.8803 9.82072L16.9622 10.1033C16.962 10.1045 16.9618 10.1058 16.9616 10.107L17.6012 10.5297C17.6281 10.5136 17.6595 10.5041 17.6931 10.5041Z" fill="#862633"/>
<path d="M10.8951 15.5969L10.7406 16.7411L10.9081 16.4249L10.8951 15.5969Z" fill="#862633"/>
<path d="M10.6901 15.3949L9.56084 18.164C9.56673 18.171 9.57227 18.1784 9.57695 18.1865C9.59891 18.2243 9.60474 18.2683 9.59337 18.3105C9.58901 18.3268 9.58222 18.3419 9.57345 18.3558L10.229 19.4072L10.4882 17.488C10.4525 17.4826 10.4195 17.4663 10.3934 17.4403C10.3266 17.3739 10.3266 17.2659 10.3934 17.1994C10.4257 17.1673 10.4687 17.1495 10.5145 17.1495C10.5177 17.1495 10.5208 17.1499 10.524 17.15L10.5372 17.1251L10.7741 15.371C10.7489 15.386 10.7202 15.3943 10.6901 15.3949Z" fill="#862633"/>
<path fill-rule="evenodd" clip-rule="evenodd" d="M21.2916 12.1951C21.2911 12.2008 21.2907 12.2065 21.2907 12.2123C21.2907 12.2936 21.3459 12.3621 21.421 12.3831L21.7114 13.9245C21.7007 13.9286 21.6903 13.9334 21.6802 13.9389L19.5204 11.8443C19.5324 11.8176 19.5392 11.7882 19.5392 11.7571C19.5392 11.679 19.4969 11.6107 19.4342 11.573L19.5437 10.9947C19.5747 10.9895 19.6036 10.9778 19.6287 10.9609L21.2916 12.1951ZM21.2865 13.3832L21.5258 13.6153L21.3099 12.4691C21.2354 12.4232 21.1834 12.3466 21.1694 12.2597L21.0935 12.2033L20.9759 12.6735L21.2865 13.3832Z" fill="#862633"/>
<path fill-rule="evenodd" clip-rule="evenodd" d="M11.4693 18.6662C11.4763 18.665 11.4831 18.6636 11.4898 18.662L12.059 18.9996C12.0505 19.0203 12.0468 19.042 12.0488 19.0641C12.0505 19.0832 12.0565 19.1015 12.0657 19.1185L11.0657 19.9227L11.4693 18.6662ZM11.4757 19.2077L11.776 19.1631L11.8748 19.0837C11.8742 19.0799 11.8737 19.076 11.8734 19.0722C11.8728 19.0652 11.8724 19.0583 11.8725 19.0513L11.5813 18.8786L11.4757 19.2077Z" fill="#862633"/>
<path d="M17.5229 16.5208C17.5282 16.5208 17.5334 16.5211 17.5386 16.5216L17.9267 15.83L18.2885 15.1852C18.279 15.1762 18.2704 15.1663 18.2626 15.1558L17.0579 15.4522C17.0496 15.4848 17.0337 15.5153 17.0108 15.5413C17.0007 15.5527 16.9895 15.5629 16.9775 15.5718L17.5075 16.5215C17.5126 16.5211 17.5177 16.5208 17.5229 16.5208Z" fill="#862633"/>
<path d="M17.8699 10.659C17.8709 10.6665 17.8716 10.674 17.8716 10.6817C17.8716 10.6903 17.8707 10.6987 17.8695 10.707L19.1958 11.5834C19.2082 11.5744 19.2217 11.5665 19.236 11.5602L19.1371 9.89423C19.1009 9.88711 19.0675 9.87061 19.0393 9.84625L17.8699 10.659Z" fill="#862633"/>
<path d="M18.2993 13.7188L21.5528 14.0905C21.5583 14.0744 21.5651 14.0589 21.5735 14.044L20.0559 12.5723L19.4155 11.9512C19.3874 11.9646 19.3561 11.9722 19.3229 11.9722C19.3084 11.9722 19.2942 11.9708 19.2804 11.968L18.2524 13.6276C18.2748 13.6534 18.2911 13.6845 18.2993 13.7188Z" fill="#862633"/>
<path d="M19.4489 10.967C19.4118 10.9565 19.3782 10.9436 19.3489 10.9287L19.3764 11.1478L19.4489 10.967Z" fill="#862633"/>
<path d="M16.9937 15.1363L16.9661 15.2192C16.9979 15.2398 17.0238 15.2685 17.0411 15.3024L18.2225 15.0118C18.2313 14.9075 18.3157 14.8221 18.4237 14.8152C18.4285 14.8148 18.4332 14.8147 18.4379 14.8147C18.5138 14.8147 18.5811 14.8542 18.6197 14.914L19.9507 14.5865L21.0721 14.3106L17.2061 14.4983L16.9937 15.1363Z" fill="#862633"/>
<path fill-rule="evenodd" clip-rule="evenodd" d="M21.1505 10.9472L21.36 12.0595L19.7263 10.847C20.0213 10.8369 20.5652 10.8228 20.9659 10.813C20.996 10.8873 21.0666 10.9411 21.1505 10.9472Z" fill="#862633"/>
<path d="M18.8465 18.6782C18.8634 18.6812 18.8798 18.6859 18.8956 18.692L21.6344 14.3828C21.6289 14.3781 21.6235 14.3734 21.6184 14.3683C21.6084 14.3584 21.5996 14.3477 21.5914 14.3367L18.6519 15.06C18.6429 15.1236 18.6056 15.179 18.5524 15.2122L18.7613 17.6744L18.8465 18.6782Z" fill="#862633"/>
<path d="M19.5074 10.5677C19.5965 10.5677 19.6731 10.6216 19.7062 10.6982C19.7258 10.6975 19.7467 10.6969 19.7696 10.6961C19.9087 10.6916 20.1029 10.6859 20.3469 10.6794C20.5464 10.6741 20.7457 10.669 20.8999 10.6652L19.3333 9.83226C19.3321 9.83352 19.331 9.83488 19.3298 9.83614C19.3166 9.84933 19.3018 9.86033 19.286 9.86945L19.3327 10.6565C19.3721 10.6028 19.4356 10.5677 19.5074 10.5677Z" fill="#862633"/>
<path fill-rule="evenodd" clip-rule="evenodd" d="M18.0065 9.47363L16.8625 8.01166V8.01162C16.8688 7.99845 16.8732 7.98436 16.8757 7.96966C17.2051 7.8564 17.9413 7.5794 18.2837 7.44992C18.3112 7.47022 18.345 7.48231 18.3812 7.48231C18.3856 7.48231 18.3899 7.48215 18.3943 7.4818H18.3945L19.0746 9.50113C19.0578 9.51054 19.0421 9.52214 19.0281 9.53607C19.0064 9.55772 18.9904 9.58299 18.98 9.60989L18.2416 9.60834C18.2313 9.58074 18.2152 9.55479 18.1929 9.53263C18.1526 9.49255 18.099 9.47048 18.0421 9.47048C18.03 9.47048 18.0181 9.47169 18.0065 9.47363ZM18.3008 7.59545C18.292 7.59289 18.2833 7.5899 18.2748 7.5865C18.1452 7.63547 17.9626 7.70421 17.7687 7.77659L18.3005 7.90003L18.465 8.46277L18.6851 8.73629L18.3008 7.59545Z" fill="#862633"/>
<path d="M14.4126 11.2976C14.4128 11.2976 14.4128 11.2978 14.4129 11.2979L16.6066 10.0923C16.6064 10.0897 16.6062 10.0872 16.6062 10.0846C16.6062 10.0515 16.6156 10.0205 16.6315 9.99393L14.0295 6.34187L14.2815 11.2254C14.3307 11.2367 14.376 11.2612 14.4126 11.2976Z" fill="#862633"/>
<path d="M14.0252 11.2999C14.0259 11.2992 14.0265 11.2983 14.0272 11.2976C14.0571 11.2679 14.0927 11.2462 14.1315 11.233L13.8822 6.39969L12.1167 10.2756L14.0252 11.2999Z" fill="#862633"/>
<path d="M18.1956 12.8345L18.1746 13.4611L18.9971 12.139L18.1956 12.8345Z" fill="#862633"/>
<path d="M16.7847 9.90708C16.8353 9.90708 16.8809 9.92821 16.9134 9.96196L17.829 9.68017C17.8295 9.6339 17.8451 9.5878 17.8758 9.54983L16.7436 8.10296C16.7381 8.10395 16.7325 8.1047 16.7269 8.10514C16.7225 8.10549 16.7181 8.10565 16.7138 8.10565C16.6287 8.10565 16.5568 8.03948 16.5501 7.955C16.5492 7.94455 16.5495 7.93425 16.5506 7.92418L15.9921 7.55059C15.9651 7.56686 15.9336 7.57643 15.8999 7.57643C15.8014 7.57643 15.7213 7.49677 15.7213 7.39888C15.7213 7.3894 15.7223 7.38018 15.7238 7.3711L15.1492 6.98682C15.1492 6.98682 15.1492 6.98679 15.1492 6.98682L14.3865 6.47669L14.2396 6.37842L16.7556 9.90971C16.7651 9.90814 16.7748 9.90713 16.7847 9.90713" fill="#862633"/>
<path d="M18.0888 13.9832C18.0406 13.9832 17.9959 13.9672 17.9597 13.9402L17.4014 14.3393L18.6983 14.2763L19.492 14.2378L20.9191 14.1685L18.2808 13.8671C18.2728 13.8823 18.2631 13.8968 18.2515 13.91C18.2134 13.9532 18.1606 13.979 18.103 13.9827C18.0982 13.9831 18.0935 13.9832 18.0888 13.9832Z" fill="#862633"/>
<path d="M15.4989 6.88717L15.303 6.56698C15.2969 6.56815 15.2907 6.56907 15.2845 6.56956C15.2801 6.56991 15.2757 6.57009 15.2714 6.57009C15.2043 6.57009 15.1455 6.52881 15.1203 6.46995L14.6579 6.47817L15.2181 6.85289L15.4989 6.88717Z" fill="#862633"/>
<path fill-rule="evenodd" clip-rule="evenodd" d="M16.0784 7.25744C16.0784 7.12689 15.9983 7.02065 15.8999 7.02065C15.8931 7.02065 15.8864 7.02124 15.8798 7.02221L15.7883 6.8228L18.1018 7.19945L16.8258 7.8228C16.7963 7.78625 16.7568 7.76391 16.7141 7.76391C16.7097 7.76391 16.7054 7.76414 16.701 7.76458C16.6765 7.76714 16.6538 7.77693 16.6337 7.79199L16.0759 7.29448C16.0774 7.28237 16.0784 7.27008 16.0784 7.25744ZM17.0472 7.53777L17.5734 7.28067L16.1603 7.05059C16.1814 7.09716 16.1956 7.14979 16.201 7.20601L16.3208 7.31289L17.0472 7.53777Z" fill="#862633"/>
<path d="M15.6578 7.147L15.5984 7.0498L15.4933 7.03697L15.6578 7.147Z" fill="#862633"/>
<path fill-rule="evenodd" clip-rule="evenodd" d="M10.9329 8.28957C10.8601 8.28957 10.7917 8.31776 10.7403 8.36896C10.7264 8.38274 10.7145 8.39766 10.7042 8.41338L8.21425 7.70906L13.0876 6.69213L11.0841 8.33501C11.0397 8.30544 10.9876 8.28957 10.9329 8.28957ZM12.1488 7.30059L12.6157 6.91779L9.76027 7.51364L12.1488 7.30059Z" fill="#862633"/>
<path fill-rule="evenodd" clip-rule="evenodd" d="M14.3139 19.8318C14.3315 19.8006 14.3398 19.7651 14.3375 19.7286H14.3375C14.3311 19.6308 14.249 19.5542 14.1506 19.5542C14.1465 19.5542 14.1424 19.5543 14.1383 19.5546C14.0883 19.5578 14.0426 19.5802 14.0096 19.6176C13.9843 19.6463 13.9689 19.6812 13.9644 19.7183L12.9421 20.0772L12.1164 19.1423C12.1334 19.1121 12.1422 19.0769 12.1398 19.0398C12.1334 18.9421 12.0513 18.8655 11.9528 18.8655C11.9488 18.8655 11.9447 18.8656 11.9406 18.8659C11.9153 18.8675 11.8912 18.874 11.8692 18.8849L11.4682 18.5508C11.4715 18.5365 11.4727 18.5217 11.4718 18.5067C11.4673 18.4385 11.4182 18.3831 11.3541 18.3674L11.1221 17.3213C11.1225 17.321 11.1229 17.3206 11.1232 17.3203C11.1258 17.3181 11.1285 17.3158 11.1309 17.3133C11.1633 17.2812 11.1811 17.2384 11.1811 17.1929C11.1811 17.1474 11.1633 17.1046 11.1309 17.0724C11.0986 17.0403 11.0556 17.0225 11.0098 17.0225C10.9641 17.0225 10.9211 17.0403 10.8888 17.0724C10.8638 17.0973 10.8476 17.1285 10.8415 17.1623L10.6778 17.2066L10.6826 17.1712L11.05 16.4776C11.0558 16.4665 11.0589 16.4541 11.0586 16.4416L11.0311 14.681C11.0553 14.671 11.0775 14.6563 11.0967 14.6372C11.1758 14.5585 11.1758 14.4303 11.0967 14.3515C11.0583 14.3134 11.0073 14.2924 10.9531 14.2924C10.9275 14.2924 10.9028 14.2972 10.8797 14.3061L10.4067 13.8538C10.4165 13.8316 10.4228 13.8075 10.4245 13.782C10.4283 13.7246 10.4093 13.6693 10.3712 13.6261C10.3409 13.5918 10.3013 13.5686 10.2574 13.5586L10.1567 12.8281L10.8912 12.1591C10.9091 12.1654 10.9281 12.1688 10.9477 12.1688C10.9931 12.1688 11.0359 12.1512 11.0681 12.1192C11.1345 12.0532 11.1345 11.9457 11.0681 11.8796C11.0521 11.8637 11.0334 11.8513 11.0131 11.8429C11.0075 11.3618 10.9871 9.53461 10.9889 8.82586C10.9957 8.82445 11.0025 8.82273 11.0092 8.82081L11.9557 10.3475C11.9563 10.3484 11.9572 10.3492 11.9579 10.3501C11.9603 10.3536 11.9629 10.3569 11.966 10.36L11.9693 10.3634C11.9733 10.367 11.9776 10.3702 11.9824 10.373L11.9831 10.3734L11.9839 10.374L13.954 11.4313C13.9499 11.4501 13.9476 11.4695 13.9476 11.4892C13.9476 11.5616 13.9759 11.6297 14.0274 11.6809C14.0788 11.7321 14.1473 11.7603 14.22 11.7603C14.2928 11.7603 14.3612 11.7321 14.4127 11.6809C14.4642 11.6297 14.4925 11.5616 14.4925 11.4892C14.4925 11.4686 14.49 11.4483 14.4855 11.4287L16.6758 10.2249C16.706 10.2481 16.7438 10.2621 16.7848 10.2621C16.7933 10.2621 16.8016 10.2613 16.8098 10.2602L18.0511 12.2337C18.0649 12.2557 18.0887 12.2688 18.1148 12.2688C18.1235 12.2688 18.1321 12.2673 18.1404 12.2643L18.9701 11.9642L18.0724 12.7432C18.0567 12.7568 18.0474 12.7764 18.0467 12.797L18.0211 13.564C17.93 13.5941 17.8667 13.6823 17.8732 13.782C17.874 13.7932 17.8758 13.804 17.8782 13.8147L17.1074 14.3655L17.1061 14.3666L17.1037 14.3686L17.1033 14.3689C17.1013 14.3706 17.0993 14.3723 17.0975 14.3741C17.0925 14.3791 17.0883 14.3849 17.0849 14.3912L17.0838 14.3909L17.0799 14.4027V14.4027L16.912 14.9071L16.819 15.1863C16.7674 15.1933 16.7206 15.218 16.6859 15.2573C16.6477 15.3005 16.6288 15.3559 16.6326 15.4132C16.6395 15.5197 16.7243 15.6042 16.8292 15.6135L17.3819 16.6039C17.3693 16.6267 17.362 16.653 17.362 16.6809C17.362 16.7661 17.4294 16.8358 17.514 16.8405L17.7408 17.2469L17.9072 17.5451L16.9386 17.001C16.9348 16.916 16.8643 16.8479 16.778 16.8479C16.6892 16.8479 16.617 16.9198 16.617 17.0081C16.617 17.0213 16.6188 17.0341 16.6219 17.0464L16.4067 17.2706C16.3927 17.2666 16.378 17.2644 16.3628 17.2644C16.274 17.2644 16.2018 17.3362 16.2018 17.4245C16.2018 17.4894 16.2409 17.5453 16.2969 17.5704L16.3734 18.7707L16.0692 19.2208C16.0528 19.2168 16.0359 19.2145 16.0184 19.2145C15.8991 19.2145 15.8021 19.311 15.8021 19.4297C15.8021 19.4552 15.8069 19.4796 15.8151 19.5024L14.978 20.2039C14.9774 20.2044 14.9768 20.205 14.9763 20.2055C14.9759 20.2059 14.9755 20.2063 14.9751 20.2067L14.9717 20.21C14.9698 20.2121 14.9681 20.2142 14.9664 20.2164L14.9638 20.2199C14.9621 20.2224 14.9607 20.2251 14.9593 20.2279L14.9577 20.2309C14.9542 20.2388 14.9521 20.2472 14.9515 20.2558L14.9513 20.2567L14.9264 20.6874L14.3139 19.8318ZM14.13 19.4304C14.1369 19.43 14.1437 19.4298 14.1504 19.4298L14.1505 19.4297C14.3147 19.4297 14.4516 19.5574 14.4623 19.7205C14.4644 19.7519 14.4616 19.7832 14.4543 19.8134L14.709 20.1692L14.8261 20.2603L14.8275 20.238C14.8298 20.2182 14.835 20.1989 14.8432 20.1806L14.8481 20.1707C14.8518 20.1634 14.8555 20.1571 14.8596 20.1509C14.8616 20.1478 14.8638 20.145 14.8659 20.1421C14.8706 20.1359 14.8754 20.1302 14.8805 20.1248L14.8874 20.1178C14.8906 20.1146 14.8938 20.1116 14.8972 20.1088L15.6778 19.4546C15.6772 19.4463 15.6769 19.438 15.6769 19.4297C15.6769 19.2469 15.8229 19.0974 16.005 19.0904L16.0125 19.0814L16.2457 18.7364L16.1758 17.6398C16.1138 17.5865 16.0766 17.5083 16.0766 17.4245C16.0766 17.2688 16.2029 17.1419 16.359 17.14L16.4918 17.0016C16.4953 16.8477 16.6223 16.7235 16.7778 16.7235C16.809 16.7235 16.8389 16.7285 16.867 16.7376L16.9968 16.1706L16.7473 15.7236C16.6153 15.6824 16.5168 15.5627 16.5076 15.4214C16.5016 15.3308 16.5315 15.2434 16.5917 15.1753C16.6272 15.135 16.6717 15.1039 16.7211 15.0843L16.944 14.4145C16.9453 14.4108 16.9464 14.4068 16.9476 14.4027L16.948 14.4012C16.9557 14.3746 16.9674 14.3344 16.9968 14.2995C17.0159 14.2768 17.0371 14.2621 17.0511 14.2523L17.0513 14.2522L17.0572 14.2481L17.7478 13.7545C17.7521 13.6456 17.8091 13.5463 17.8983 13.4866L17.9215 12.7929C17.9233 12.738 17.9483 12.6856 17.99 12.6495L18.3818 12.3094L18.183 12.3814C18.1609 12.3893 18.1379 12.3934 18.1146 12.3934C18.0452 12.3934 17.9817 12.3584 17.9449 12.2998L16.9747 10.7573L16.5315 10.4464L14.6174 11.4983C14.6151 11.6006 14.574 11.6964 14.5011 11.7689C14.4259 11.8437 14.3261 11.8848 14.2199 11.8848C14.1137 11.8848 14.0139 11.8437 13.9388 11.769C13.8667 11.6973 13.8258 11.603 13.8225 11.5023L11.913 10.4768C11.9033 10.4707 11.8939 10.4636 11.8851 10.4556C11.8825 10.4533 11.8795 10.4504 11.8766 10.4473C11.8698 10.4404 11.864 10.4335 11.8587 10.4264C11.856 10.4231 11.8526 10.4186 11.8493 10.4132L11.6779 10.1367L11.118 9.80068C11.1234 10.5312 11.1328 11.3822 11.1373 11.7742C11.1439 11.7797 11.1503 11.7855 11.1564 11.7917C11.2122 11.8471 11.2429 11.9209 11.2429 11.9995C11.2429 12.078 11.2122 12.1518 11.1564 12.2073C11.0964 12.2669 11.0143 12.298 10.9297 12.2928L10.2894 12.8759L10.3713 13.4695C10.4065 13.4884 10.4382 13.5135 10.4651 13.544C10.5253 13.6122 10.5552 13.6996 10.5492 13.7901C10.5487 13.7985 10.5478 13.8068 10.5466 13.8151L10.9176 14.1698C10.9293 14.1686 10.9411 14.168 10.9529 14.168C11.0406 14.168 11.123 14.2019 11.185 14.2636C11.3129 14.3909 11.3129 14.598 11.185 14.7253C11.1761 14.7341 11.1668 14.7424 11.1572 14.7501L11.1836 16.4397C11.1842 16.4729 11.1762 16.5061 11.1606 16.5356L10.967 16.9011C10.981 16.8991 10.9953 16.8981 11.0097 16.8981C11.0889 16.8981 11.1633 16.9288 11.2193 16.9845C11.2752 17.0401 11.3061 17.1142 11.3061 17.1929C11.3061 17.2513 11.2891 17.3071 11.2575 17.3548L11.4625 18.2788C11.5384 18.3244 11.5892 18.4039 11.5963 18.4953L11.8971 18.746C11.9087 18.7439 11.9204 18.7425 11.9323 18.7417C11.9391 18.7413 11.9459 18.7411 11.9527 18.7411C12.1169 18.7411 12.2538 18.8688 12.2645 19.0318C12.2663 19.0598 12.2643 19.0877 12.2586 19.1149L12.8412 19.7745L13.0159 19.9192L13.8611 19.6225C13.8741 19.591 13.8924 19.5617 13.9154 19.5356C13.9705 19.4732 14.0467 19.4358 14.13 19.4304Z" fill="#862633"/>
<path d="M14.0759 19.9116C14.0496 19.9002 14.0263 19.883 14.0078 19.8614L12.9418 20.2356L14.0825 21.7181L14.0805 21.1722L14.0759 19.9116Z" fill="#862633"/>
<path d="M15.0927 21.1569C15.0728 21.1644 15.0517 21.169 15.0298 21.1704C15.0251 21.1707 15.0204 21.1709 15.0157 21.1709C14.9021 21.1709 14.8074 21.0825 14.8 20.9697C14.7965 20.9168 14.8128 20.8671 14.8423 20.8276L14.2263 19.967L14.2332 21.8616L15.4816 21.6377L15.0927 21.1569Z" fill="#862633"/>
<path d="M15.6493 21.6067L16.1858 21.4986L15.2684 21.1359L15.6493 21.6067Z" fill="#862633"/>
<path d="M10.843 15.0738C10.8452 15.0761 10.8472 15.0786 10.8494 15.0809L10.8541 15.0465L10.843 15.0738Z" fill="#862633"/>
<path d="M10.4913 21.2561C10.4871 21.2564 10.4831 21.2565 10.479 21.2565C10.4395 21.2565 10.4026 21.244 10.3722 21.2229L9.81909 21.5992L10.6011 21.6583L12.5689 21.8072L10.6169 21.1963C10.5841 21.2317 10.5397 21.253 10.4913 21.2561Z" fill="#862633"/>
<path d="M11.8833 19.2252L11.0657 20.1487L13.0236 21.686L11.9369 19.2377C11.9181 19.2362 11.9001 19.2319 11.8833 19.2252Z" fill="#862633"/>
<path d="M15.3449 21.0055L15.7814 21.178L18.2468 20.3628L15.3449 21.0055Z" fill="#862633"/>
<path d="M13.2069 21.7292C13.2762 21.7417 13.3327 21.7924 13.3529 21.8592L14.0127 21.8731L12.2594 19.5945L13.2069 21.7292Z" fill="#862633"/>
<path d="M12.9214 20.1312L12.9858 20.2096L12.9479 20.1096L12.9214 20.1312Z" fill="#862633"/>
<path fill-rule="evenodd" clip-rule="evenodd" d="M19.502 18.0174L21.7726 14.4447C21.7849 14.4465 21.7973 14.4477 21.8099 14.4477L21.9284 15.0767L21.3441 15.7904C21.3306 15.7874 21.3166 15.7856 21.3023 15.7856C21.2982 15.7856 21.294 15.7857 21.2898 15.786C21.2392 15.7893 21.1929 15.812 21.1595 15.8499C21.126 15.8878 21.1094 15.9364 21.1127 15.9868C21.1142 16.0098 21.12 16.0315 21.129 16.0515L19.502 18.0174ZM21.2837 15.6617C21.2852 15.6615 21.2868 15.6614 21.2883 15.6614L21.7947 15.0429L21.7366 14.7343L21.1026 15.732C21.1531 15.6906 21.2152 15.6661 21.2817 15.6618C21.2824 15.6617 21.283 15.6617 21.2837 15.6617Z" fill="#862633"/>
<path d="M15.622 21.7643L15.0943 21.8589L16.1218 21.84L16.2717 21.6337L15.622 21.7645V21.7643H15.622Z" fill="#862633"/>
<path d="M19.0686 18.9231C19.074 18.9901 19.0545 19.0587 19.0101 19.1139L19.5699 19.7469C19.5902 19.7406 19.6118 19.7371 19.6343 19.7371C19.6489 19.7371 19.6632 19.7386 19.677 19.7414L19.9918 18.9261C19.9509 18.8869 19.9253 18.8321 19.9253 18.7713C19.9253 18.6526 20.0223 18.5561 20.1416 18.5561C20.1697 18.5561 20.1966 18.5616 20.2213 18.5714L20.9691 17.8832L20.4702 18.1562L19.0686 18.9231Z" fill="#862633"/>
<path fill-rule="evenodd" clip-rule="evenodd" d="M22.2789 14.5053L22.3774 15.0282H22.3776C22.398 15.1363 22.3696 15.2473 22.2997 15.3327L21.7919 15.953C21.7964 16.0529 21.7705 16.1498 21.7177 16.2333L21.8444 17.4993L21.8449 17.5049L21.8452 17.5106C21.8457 17.5259 21.8453 17.5404 21.8441 17.5549L21.8439 17.5573L21.8436 17.5597L21.8427 17.5679L21.8425 17.5694L21.8423 17.5709C21.8402 17.5869 21.8372 17.602 21.8335 17.6164C21.8327 17.6197 21.8317 17.6234 21.8305 17.6274C21.83 17.6292 21.8294 17.6311 21.8288 17.633C21.8244 17.6472 21.8194 17.6607 21.8134 17.6743C21.811 17.6798 21.8085 17.6853 21.8055 17.6912C21.7957 17.7105 21.7844 17.7288 21.7719 17.7457L21.7703 17.7479L21.7686 17.75L21.763 17.757L21.7622 17.758L21.7613 17.759C21.7551 17.7667 21.7485 17.7741 21.7418 17.7811L21.7405 17.7824L21.7392 17.7838L21.7307 17.7923L21.7281 17.7949L21.7254 17.7974L20.658 18.7798C20.6547 18.9829 20.534 19.1602 20.3529 19.2403L20.1316 19.8133C20.1444 19.8582 20.1508 19.9047 20.1508 19.9522C20.1508 20.2356 19.919 20.4661 19.6342 20.4661C19.5976 20.4661 19.5614 20.4623 19.526 20.4548L16.6937 21.8177L16.4648 22.1326C16.3961 22.2273 16.285 22.2851 16.1675 22.2872L14.4617 22.3187L14.4614 22.3299L14.2878 22.3267L14.158 22.3243L14.0255 22.3269L13.8469 22.3303V22.3178L13.454 22.3095C13.3812 22.3604 13.2952 22.3909 13.2053 22.3967C13.1947 22.3974 13.184 22.3977 13.1733 22.3977C13.0543 22.3977 12.9412 22.3549 12.8529 22.2781L9.88245 22.0533C9.80931 22.105 9.72283 22.1358 9.63187 22.1416C9.62137 22.1423 9.61068 22.1427 9.60016 22.1427C9.48118 22.1427 9.36573 22.0983 9.2775 22.0211L6.63336 21.9396C6.56049 21.9796 6.47833 22.0007 6.39515 22.0007C6.21963 22.0007 6.05604 21.9068 5.96823 21.7556C5.90241 21.6422 5.88492 21.5101 5.91901 21.3836C5.95307 21.2571 6.03461 21.1514 6.1486 21.0859C6.22331 21.043 6.30869 21.0203 6.39555 21.0203C6.41321 21.0203 6.43083 21.0213 6.44829 21.0231L7.81641 20.4792L7.7823 17.3373C7.69726 17.2448 7.65067 17.1258 7.65067 16.9996C7.65067 16.873 7.69759 16.7536 7.7833 16.6609L7.81138 14.6296L7.8114 14.6274V14.6252L7.82142 14.3702C7.74713 14.2807 7.70672 14.1694 7.70672 14.0519C7.70672 13.9277 7.75185 13.8105 7.83445 13.7185L7.83113 9.05597C7.82465 9.04717 7.81854 9.03818 7.81271 9.02899L6.25638 8.23855C6.21219 8.25076 6.16633 8.25707 6.12054 8.25707C5.83995 8.25707 5.61166 8.02998 5.61166 7.75086C5.61166 7.47172 5.83995 7.24464 6.12054 7.24464C6.23535 7.24464 6.34617 7.28342 6.43517 7.35306L7.60484 7.33033C7.69635 7.25268 7.8126 7.20938 7.93432 7.20938C8.01386 7.20938 8.09086 7.22748 8.16081 7.26227L13.203 6.21013L13.4727 5.98898C13.5185 5.77217 13.71 5.61254 13.9411 5.61254C14.152 5.61254 14.335 5.75014 14.3973 5.94396L14.5292 6.03221L15.011 6.02368C15.0771 5.97923 15.1544 5.95205 15.2347 5.94574C15.247 5.94477 15.2594 5.94429 15.2717 5.94429C15.5123 5.94429 15.7156 6.13136 15.7346 6.37015C15.7357 6.38444 15.7362 6.39875 15.736 6.4131L15.8696 6.63144L18.1617 6.91121C18.2178 6.88123 18.2799 6.86309 18.3443 6.85802C18.3567 6.85705 18.3693 6.85654 18.3817 6.85654C18.6222 6.85654 18.8254 7.04363 18.8444 7.2824C18.8474 7.31979 18.8458 7.35701 18.8398 7.39361L19.4701 9.26527C19.4957 9.28281 19.5198 9.3027 19.542 9.32479C19.5911 9.37365 19.6294 9.43157 19.655 9.49524L19.7863 9.56506L19.7878 9.56586L19.7893 9.56672L20.0844 9.73117L20.3107 9.84398L20.3128 9.845L20.3148 9.8461L21.044 10.2338C21.0841 10.224 21.1254 10.219 21.1663 10.219C21.4511 10.219 21.6829 10.4495 21.6829 10.7329C21.6829 10.8212 21.6595 10.9084 21.6159 10.9852L21.7788 11.8489C21.8847 11.9382 21.9478 12.0709 21.9478 12.2123C21.9478 12.2915 21.9277 12.3696 21.8901 12.4388L22.1285 13.7024C22.1597 13.7231 22.1889 13.7469 22.2158 13.7737C22.3241 13.8813 22.3836 14.0244 22.3836 14.1766C22.3836 14.296 22.3469 14.4098 22.2789 14.5053ZM22.0668 15.1441L21.4656 15.8786C21.4804 15.9033 21.4897 15.9318 21.4917 15.9622C21.495 16.0126 21.4783 16.0612 21.4449 16.0991C21.4333 16.1122 21.4201 16.1234 21.4058 16.1327L21.5448 17.5163V17.5174V17.5199C21.5451 17.5233 21.5451 17.5266 21.5446 17.5299L21.5444 17.5323L21.5442 17.5332C21.5441 17.5345 21.5438 17.5359 21.5436 17.5372C21.5433 17.539 21.5429 17.5407 21.5425 17.5424L21.5416 17.5456C21.5406 17.5488 21.5394 17.5518 21.538 17.5548L21.537 17.5573C21.5351 17.561 21.5329 17.5646 21.5304 17.568L21.5295 17.569C21.5272 17.572 21.5247 17.5748 21.5219 17.5775L21.5209 17.5786L20.333 18.6719C20.3487 18.7016 20.3577 18.7354 20.3577 18.7713C20.3577 18.8899 20.2606 18.9864 20.1414 18.9864C20.1387 18.9864 20.136 18.9862 20.1334 18.986L20.1294 18.9858L19.8062 19.8226C19.8338 19.8587 19.8504 19.9036 19.8504 19.9523C19.8504 20.0709 19.7533 20.1674 19.6341 20.1674C19.5888 20.1674 19.5468 20.1535 19.512 20.1297L16.4946 21.5816L16.2213 21.9577C16.2075 21.9766 16.1853 21.9882 16.1618 21.9886L14.1692 22.0254V22.0258L14.158 22.0256L14.1472 22.0258V22.0254L13.3342 22.0082C13.3284 22.0178 13.3218 22.027 13.3142 22.0356C13.2812 22.073 13.2354 22.0954 13.1855 22.0987C13.1814 22.0989 13.1773 22.0991 13.1732 22.0991C13.0981 22.0991 13.0326 22.0544 13.0029 21.9899L9.76561 21.745C9.75883 21.7576 9.75076 21.7696 9.74103 21.7806C9.708 21.818 9.6623 21.8404 9.61235 21.8436C9.60822 21.8439 9.60412 21.844 9.60007 21.844C9.52194 21.844 9.45425 21.7957 9.42639 21.7269L6.53866 21.6379C6.52516 21.6529 6.50931 21.666 6.49123 21.6764C6.46197 21.6932 6.42872 21.7021 6.39506 21.7021C6.32644 21.7021 6.2625 21.6654 6.22821 21.6063C6.2025 21.562 6.19567 21.5104 6.20897 21.461C6.22229 21.4116 6.25416 21.3702 6.29869 21.3447C6.32795 21.3279 6.36119 21.319 6.39486 21.319C6.4219 21.319 6.44812 21.3249 6.47219 21.3354L8.11883 20.6807L8.08091 17.1881C8.0548 17.1781 8.03075 17.1628 8.01036 17.1425C7.97202 17.1044 7.9509 17.0537 7.9509 16.9997C7.9509 16.9457 7.97202 16.895 8.01036 16.8569C8.03091 16.8364 8.05513 16.8211 8.08149 16.8111L8.1115 14.6369L8.12721 14.2363C8.10491 14.2264 8.08432 14.2125 8.06652 14.1948C8.02816 14.1567 8.00704 14.1059 8.00704 14.052C8.00704 13.998 8.02816 13.9473 8.06652 13.9091C8.08634 13.8894 8.10959 13.8744 8.13488 13.8643L8.13133 8.92865C8.11628 8.92093 8.1023 8.91097 8.08997 8.89871C8.06515 8.87401 8.05006 8.84335 8.04443 8.81131L6.25979 7.90493C6.2228 7.93804 6.17409 7.95839 6.12054 7.95839C6.00553 7.95839 5.91198 7.86531 5.91198 7.75091C5.91198 7.6365 6.00553 7.54342 6.12054 7.54342C6.20055 7.54342 6.27008 7.58853 6.30503 7.65445L7.74628 7.62643C7.77991 7.55663 7.85143 7.50817 7.93432 7.50817C7.998 7.50817 8.055 7.53678 8.0933 7.58165L13.3034 6.49448L13.3071 6.51198L13.7686 6.13359C13.7648 6.11928 13.7626 6.10435 13.7626 6.0889C13.7626 5.99099 13.8427 5.91133 13.9411 5.91133C14.0395 5.91133 14.1196 5.99099 14.1196 6.0889C14.1196 6.09836 14.1186 6.10759 14.1172 6.11668L14.4401 6.33265L15.1319 6.32037C15.1362 6.31347 15.1409 6.30675 15.1464 6.30044C15.1749 6.26721 15.2147 6.24704 15.2584 6.2436C15.2605 6.24344 15.2626 6.24331 15.2646 6.24323C15.2669 6.24314 15.2692 6.2431 15.2715 6.2431C15.3566 6.2431 15.4285 6.30926 15.4352 6.39372C15.4374 6.42152 15.4325 6.44877 15.4213 6.47349L15.6887 6.91038L18.2483 7.22283C18.2508 7.21941 18.2534 7.21597 18.2562 7.21271C18.2847 7.17951 18.3245 7.15931 18.3682 7.15587C18.3726 7.15554 18.3769 7.15537 18.3813 7.15537C18.4664 7.15537 18.5383 7.22153 18.545 7.30599C18.5477 7.33937 18.54 7.37121 18.5246 7.39844L19.2254 9.47919C19.2646 9.48783 19.3006 9.50719 19.3296 9.53609C19.3732 9.57946 19.3937 9.63707 19.3916 9.694L21.0308 10.5655C21.0679 10.5357 21.115 10.5178 21.1663 10.5178C21.2856 10.5178 21.3826 10.6143 21.3826 10.7329C21.3826 10.8035 21.3481 10.866 21.2952 10.9053L21.5092 12.0395C21.5883 12.0576 21.6475 12.1282 21.6475 12.2123C21.6475 12.2732 21.6165 12.327 21.5695 12.359L21.8622 13.9105C21.9154 13.9206 21.9644 13.9461 22.0035 13.985C22.055 14.0362 22.0833 14.1043 22.0833 14.1767C22.0833 14.2491 22.055 14.3172 22.0035 14.3684C21.9886 14.3832 21.9722 14.3958 21.9548 14.4066L22.0822 15.0832C22.0863 15.1049 22.0806 15.1271 22.0666 15.1442L22.0668 15.1441ZM6.43494 21.1552C6.43946 21.1552 6.44396 21.1556 6.44845 21.156C6.45221 21.1563 6.45596 21.1566 6.45974 21.1566H6.40864C6.41304 21.1566 6.41741 21.1562 6.42179 21.1558L6.42179 21.1558C6.42616 21.1554 6.43054 21.1549 6.43494 21.1549V21.1552Z" fill="#862633"/>
<path d="M21.2398 16.1527L19.104 18.7333L20.5226 17.957L21.3905 17.4821L21.2575 16.1579C21.2514 16.1564 21.2456 16.1547 21.2398 16.1527Z" fill="#862633"/>
<path d="M16.4442 21.44L18.5948 20.4052L15.9982 21.2637L16.4442 21.44Z" fill="#862633"/>
<path d="M18.8867 19.2005C18.8583 19.2103 18.8283 19.2157 18.7973 19.2157C18.7245 19.2157 18.6561 19.1875 18.6047 19.1363C18.5926 19.1243 18.5821 19.1114 18.5727 19.0978L16.2304 19.4715C16.2108 19.5702 16.1232 19.6449 16.0183 19.6449C15.9795 19.6449 15.9432 19.6345 15.9117 19.6167L15.2486 20.1724L19.4219 19.9121C19.427 19.8855 19.4371 19.8607 19.451 19.8386L19.2519 19.6135L18.8867 19.2005Z" fill="#862633"/>
<path d="M15.0973 20.3315L15.0732 20.7485C15.1399 20.7668 15.1941 20.8162 15.2183 20.8804L18.7171 20.1057L15.493 20.3068L15.0973 20.3315Z" fill="#862633"/>
<path d="M10.8511 20.1879L10.8539 20.1757L10.8545 20.1732L10.3737 19.7956L10.5157 20.8872C10.5963 20.9032 10.659 20.971 10.6658 21.055L12.8471 21.7377L10.8822 20.1949L10.8511 20.1879Z" fill="#862633"/>
<path fill-rule="evenodd" clip-rule="evenodd" d="M8.26174 14.6408L8.27741 14.2425C8.2917 14.2375 8.30538 14.231 8.31823 14.2229L9.58284 14.9975C9.57947 15.0323 9.58692 15.0678 9.60489 15.099L8.23219 16.7851L8.26174 14.6408ZM8.39578 14.4166L8.38683 14.644L8.36225 16.4276L9.46329 15.0751L9.46223 15.0698L8.39578 14.4166Z" fill="#862633"/>
<path fill-rule="evenodd" clip-rule="evenodd" d="M9.66159 14.8635L8.57848 13.8846L10.7132 14.3419L9.86421 14.8846C9.83325 14.8457 9.79437 14.8244 9.75319 14.8244C9.72021 14.8244 9.68874 14.8382 9.66159 14.8635ZM9.67207 14.6573C9.69829 14.6463 9.72557 14.6407 9.75319 14.6407C9.79492 14.6407 9.8359 14.6537 9.87354 14.6783L10.261 14.4307L9.16043 14.1949L9.67207 14.6573Z" fill="#862633"/>
<path d="M9.67816 16.1621L9.95784 16.0237L9.78426 15.3244L9.66489 16.1517C9.66945 16.155 9.67388 16.1584 9.67816 16.1621" fill="#862633"/>
<path fill-rule="evenodd" clip-rule="evenodd" d="M9.63643 15.2976L9.51666 16.1277C9.48993 16.1357 9.46544 16.1502 9.44514 16.1704C9.40892 16.2064 9.39252 16.2547 9.3956 16.3019L8.42963 16.7799L9.63643 15.2976ZM9.27854 16.2208C9.29124 16.1689 9.31799 16.1208 9.35666 16.0824C9.37058 16.0685 9.38583 16.0561 9.40212 16.0453L9.44809 15.7267L8.88881 16.4137L9.27854 16.2208Z" fill="#862633"/>
<path d="M10.0738 9.01025C10.1116 9.01025 10.1473 9.02286 10.1763 9.04597C10.3486 8.91624 10.5404 8.77082 10.6805 8.66268C10.6667 8.62872 10.6602 8.59252 10.6608 8.55641L9.43483 8.20961L8.43665 13.3199L8.80031 12.4714L9.14366 11.6449L9.95512 9.28714C9.89344 9.22312 9.89415 9.12119 9.95747 9.0582C9.98856 9.02727 10.0299 9.01025 10.0738 9.01025Z" fill="#862633"/>
<path fill-rule="evenodd" clip-rule="evenodd" d="M9.88796 15.1191C9.90999 15.0911 9.92254 15.0574 9.92407 15.0216L10.8099 14.6378C10.8162 14.644 10.823 14.6496 10.8299 14.6549L10.6665 15.0557C10.6284 15.0601 10.5931 15.0769 10.5656 15.1043C10.5031 15.1665 10.4992 15.2652 10.5538 15.332L9.42268 18.1055C9.40799 18.1065 9.39356 18.1095 9.37968 18.1145L8.3405 17.0796C8.35371 17.0489 8.35903 17.0158 8.35635 16.983L9.4702 16.4318C9.49833 16.4509 9.53148 16.4612 9.56623 16.4612C9.61198 16.4612 9.65498 16.4435 9.68731 16.4113C9.71752 16.3812 9.73486 16.3419 9.73703 16.2998L10.0786 16.1308C10.1103 16.1151 10.1266 16.0802 10.1181 16.046L9.88796 15.1191ZM10.4772 15.0162C10.5053 14.9883 10.5379 14.9667 10.5737 14.9521L10.6114 14.8596L10.0334 15.11C10.0301 15.1198 10.0262 15.1294 10.0217 15.1388L10.1963 15.8422L10.2441 15.7602L10.4146 15.342C10.367 15.2334 10.389 15.104 10.4772 15.0162Z" fill="#862633"/>
<path fill-rule="evenodd" clip-rule="evenodd" d="M10.1945 13.6227C10.1993 13.6232 10.204 13.6236 10.2087 13.6236C10.2422 13.6236 10.2741 13.6084 10.3026 13.5818L10.7276 14.368L8.56845 13.7616L10.0093 13.368C10.0401 13.5089 10.11 13.6122 10.1945 13.6227ZM9.94649 13.6283L9.44666 13.7649L10.3596 14.0213L10.2692 13.854C10.2421 13.8635 10.2144 13.8667 10.1862 13.863C10.0911 13.8511 10.0054 13.7649 9.94649 13.6283Z" fill="#862633"/>
<path fill-rule="evenodd" clip-rule="evenodd" d="M10.0033 13.701L8.37284 13.9313C8.3694 13.9267 8.36573 13.9222 8.36185 13.9179L8.9387 12.5293L9.07844 12.2032L10.0404 13.6334C10.0242 13.6533 10.0115 13.6761 10.0033 13.701ZM9.10293 12.4635L9.05382 12.5781L8.55456 13.7799L9.86401 13.595L9.10293 12.4635Z" fill="#862633"/>
<path fill-rule="evenodd" clip-rule="evenodd" d="M10.3695 13.437L9.36954 12.3674L10.2552 12.8407L10.3695 13.437Z" fill="#862633"/>
<path d="M8.32289 8.66716C8.38705 8.73099 8.38705 8.83485 8.32289 8.89868C8.31061 8.91091 8.29667 8.92086 8.28166 8.92853L8.28479 13.3141L9.28986 8.16861L8.10579 7.83366C8.0872 7.86028 8.06257 7.88245 8.03383 7.89802L8.23261 8.62143C8.26664 8.62679 8.29804 8.64245 8.32289 8.66716Z" fill="#862633"/>
<path d="M7.73498 7.77602L6.38794 7.80219L8.08926 8.66627L7.88323 7.91651C7.81255 7.89865 7.75614 7.84501 7.73498 7.77602Z" fill="#862633"/>
<path d="M6.57892 21.4538C6.58262 21.4656 6.58515 21.4777 6.58648 21.4899L9.33882 21.5747L8.18596 20.8149L6.57892 21.4538Z" fill="#862633"/>
<path d="M8.26927 20.6906L8.55365 20.878L9.46657 21.4798L8.23479 17.5125L8.26927 20.6906Z" fill="#862633"/>
<path d="M10.8387 8.81478C10.8155 8.80627 10.7936 8.79463 10.7733 8.78001C10.6102 8.90625 10.3904 9.07233 10.2377 9.18711C10.2347 9.22455 10.219 9.26117 10.1902 9.28972C10.1897 9.29018 10.1892 9.2906 10.1888 9.29104L10.8583 11.448C10.8505 10.7395 10.8369 9.39808 10.8387 8.81478Z" fill="#862633"/>
<path d="M10.2921 21.0822C10.2888 21.0325 10.3052 20.9845 10.3382 20.9471C10.3382 20.9471 10.3385 20.9468 10.3385 20.9468L9.4118 18.43C9.36218 18.423 9.31769 18.3937 9.29227 18.35C9.27033 18.3121 9.2645 18.2681 9.27585 18.2259C9.27609 18.225 9.27645 18.2242 9.27669 18.2233L8.31537 17.2659L8.94419 19.2912L9.62142 21.4724C9.64979 21.4755 9.67637 21.485 9.6996 21.4995L10.2936 21.0954C10.293 21.091 10.2923 21.0866 10.2921 21.0822Z" fill="#862633"/>
<path fill-rule="evenodd" clip-rule="evenodd" d="M10.072 12.7027L9.28244 11.7622L10.7566 11.7027L10.072 12.7027ZM9.64688 11.9472L10.0639 12.4439L10.4254 11.9158L9.64688 11.9472Z" fill="#862633"/>
<path d="M10.8271 11.8797C10.8292 11.8777 10.8313 11.8759 10.8334 11.874L10.07 9.41458L9.28484 11.6958C9.28435 11.6972 9.28377 11.6987 9.2832 11.7001L9.1712 11.9697L10.793 11.9288C10.8012 11.911 10.8124 11.8943 10.8271 11.8797Z" fill="#862633"/>
<path d="M12.9791 13.645L12.9718 13.1244L12.5227 12.5126L11.0053 12.4746L12.1423 13.2932L12.658 13.232L12.9791 13.645Z" fill="#862633"/>
<path d="M15.1297 13.388L15.208 14.6121L15.4164 13.5191L15.6395 13.232L16.1552 13.2932L17.2922 12.4746L15.7748 12.5126L15.1297 13.388Z" fill="#862633"/>
<path d="M15.3868 16.992L14.2353 16.2228L14.2416 15.6849L15.4222 15.0767L15.2414 14.9127L14.1488 15.0071L13.0561 14.9127L12.8753 15.0767L14.0559 15.6849L14.0623 16.2228L12.9108 16.992L12.6213 16.972L12.5911 17.4573L13.6413 16.7806H14.1488H14.6562L15.7064 17.4573L15.689 16.9629L15.3868 16.992Z" fill="#862633"/>
<path d="M13.6056 18.6308H14.6741L14.1468 18.1717L13.6056 18.6308Z" fill="#862633"/>
</svg>
