<svg width="28" height="28" viewBox="0 0 28 28" fill="none" xmlns="http://www.w3.org/2000/svg">
<path d="M14 28C21.732 28 28 21.732 28 14C28 6.26801 21.732 0 14 0C6.26801 0 0 6.26801 0 14C0 21.732 6.26801 28 14 28Z" fill="white"/>
<path d="M18.4972 17.8C18.4885 17.801 18.4796 17.8018 18.4705 17.8018C18.3513 17.8018 18.2543 17.7052 18.2543 17.5866C18.2543 17.5861 18.2543 17.5856 18.2543 17.5851L17.261 17.0269C17.2342 17.0469 17.201 17.0589 17.1649 17.0589C17.1454 17.0589 17.1267 17.0552 17.1093 17.0488L16.9023 17.2645C16.9078 17.2804 16.9108 17.2975 16.9108 17.3153C16.9108 17.32 16.9105 17.3246 16.9101 17.3292L18.9731 18.6532L18.4971 17.8H18.4972Z" fill="#E8B941"/>
<path d="M10.1445 18.8253L10.6902 20.308L10.5904 19.5406L10.1445 18.8253Z" fill="#E8B941"/>
<path d="M16.582 19.1955C16.5867 19.2019 16.591 19.2085 16.5949 19.2154L18.9135 18.8453C18.913 18.8281 18.914 18.811 18.9166 18.794L16.8354 17.4583L16.9132 18.6778C16.9142 18.6941 16.9097 18.7106 16.9006 18.7242L16.582 19.1955Z" fill="#E8B941"/>
<path d="M18.7958 15.1699L18.0526 16.4949C18.0651 16.5177 18.0723 16.5438 18.0723 16.5716C18.0723 16.6081 18.0598 16.6417 18.0391 16.6686L18.4333 17.3752C18.4458 17.3729 18.4587 17.3715 18.4719 17.3715C18.5911 17.3715 18.6881 17.4681 18.6881 17.5868C18.6881 17.6423 18.6667 17.6929 18.6318 17.7311L19.0814 18.5369L18.7958 15.1699Z" fill="#E8B941"/>
<path d="M19.4916 11.645C19.4916 11.6284 19.4938 11.6124 19.4975 11.5969L18.1726 10.721C18.1452 10.738 18.1129 10.7481 18.0782 10.7481C17.9798 10.7481 17.8997 10.6684 17.8997 10.5705C17.8997 10.5608 17.9007 10.5514 17.9022 10.5422L17.418 10.2221L18.5311 11.9926L19.4916 11.645Z" fill="#E8B941"/>
<path fill-rule="evenodd" clip-rule="evenodd" d="M11.3705 17.204C11.3992 17.2284 11.435 17.2444 11.4739 17.2508L11.746 18.2983C11.7099 18.3286 11.6887 18.3714 11.6922 18.4177C11.6952 18.4563 11.715 18.4907 11.7452 18.5163L11.3737 19.9033L10.7461 19.4825L11.0886 17.3171C11.1071 17.2977 11.1199 17.2753 11.1268 17.2513L11.3628 17.1968C11.3635 17.1975 11.3641 17.1981 11.3648 17.1987C11.3667 17.2005 11.3685 17.2023 11.3705 17.204ZM11.5878 18.5439C11.5639 18.5079 11.5496 18.4675 11.5463 18.4257C11.5421 18.3709 11.5573 18.3168 11.5889 18.2699L11.4016 17.5488L11.3711 19.1966L11.4152 19.1887L11.5878 18.5439Z" fill="#E8B941"/>
<path d="M11.5929 8.44898C11.5929 8.51626 11.5682 8.5796 11.5234 8.62933L12.3966 10.0384L13.6508 7.28382L14.1265 6.23897L11.5686 8.33736C11.5843 8.37201 11.5929 8.40981 11.5929 8.44898" fill="#E8B941"/>
<path d="M18.079 10.3928C18.1146 10.3928 18.1477 10.4034 18.1756 10.4213L19.2884 9.64761L18.6272 9.64622C18.6169 9.67357 18.6008 9.69926 18.5788 9.72123C18.5385 9.76132 18.4849 9.7834 18.428 9.7834C18.371 9.7834 18.3174 9.76132 18.2771 9.72123C18.2733 9.71739 18.2698 9.71331 18.2663 9.70925L17.3482 9.99189C17.348 9.99315 17.3478 9.99436 17.3477 9.9956L17.9872 10.4184C18.0141 10.4023 18.0454 10.3928 18.079 10.3928" fill="#E8B941"/>
<path d="M11.2834 15.487L11.1289 16.6316L11.2964 16.3153L11.2834 15.487Z" fill="#E8B941"/>
<path d="M11.0784 15.2852L9.94922 18.0551C9.95511 18.0621 9.96065 18.0695 9.96533 18.0776C9.98729 18.1154 9.99312 18.1595 9.98175 18.2017C9.97738 18.218 9.9706 18.2331 9.96183 18.247L10.6173 19.2986L10.8764 17.379C10.8407 17.3735 10.8077 17.3572 10.7817 17.3312C10.7149 17.2648 10.7149 17.1567 10.7817 17.0903C10.814 17.0581 10.857 17.0404 10.9027 17.0404C10.9059 17.0404 10.9091 17.0407 10.9122 17.0408L10.9255 17.0159L11.1623 15.2614C11.1371 15.2763 11.1084 15.2846 11.0784 15.2852" fill="#E8B941"/>
<path fill-rule="evenodd" clip-rule="evenodd" d="M21.6775 12.0845C21.677 12.0902 21.6766 12.0959 21.6766 12.1017C21.6766 12.183 21.7318 12.2515 21.8069 12.2725L22.0972 13.8143C22.0865 13.8185 22.0761 13.8233 22.0661 13.8288L19.9065 11.7336C19.9185 11.7069 19.9253 11.6774 19.9253 11.6464C19.9253 11.5682 19.8831 11.4999 19.8203 11.4622L19.9298 10.8838C19.9609 10.8785 19.9898 10.8669 20.0148 10.8499L21.6775 12.0845ZM21.6738 13.273L21.9131 13.5052L21.6972 12.3586C21.6227 12.3127 21.5708 12.2361 21.5567 12.1491L21.4808 12.0928L21.3633 12.5631L21.6738 13.273Z" fill="#E8B941"/>
<path fill-rule="evenodd" clip-rule="evenodd" d="M11.8567 18.5573C11.8636 18.5561 11.8705 18.5547 11.8772 18.5531L12.4463 18.8908C12.4377 18.9115 12.434 18.9332 12.436 18.9553C12.4378 18.9745 12.4437 18.9927 12.453 19.0098L11.4531 19.8142L11.8567 18.5573ZM11.8633 19.0989L12.1636 19.0543L12.2623 18.9749C12.2617 18.971 12.2613 18.9672 12.2609 18.9633C12.2603 18.9563 12.26 18.9494 12.26 18.9425L11.9689 18.7697L11.8633 19.0989Z" fill="#E8B941"/>
<path d="M17.9086 16.4113C17.9139 16.4113 17.9192 16.4116 17.9244 16.4121L18.3124 15.7203L18.6741 15.0753C18.6647 15.0663 18.656 15.0565 18.6483 15.0459L17.4437 15.3424C17.4354 15.375 17.4195 15.4055 17.3966 15.4315C17.3865 15.4429 17.3753 15.4531 17.3633 15.462L17.8933 16.412C17.8983 16.4116 17.9034 16.4113 17.9086 16.4113" fill="#E8B941"/>
<path d="M18.2582 10.548C18.2592 10.5554 18.2599 10.5629 18.2599 10.5706C18.2599 10.5792 18.259 10.5877 18.2578 10.596L19.5839 11.4727C19.5963 11.4636 19.6098 11.4557 19.6241 11.4494L19.5252 9.78296C19.489 9.77583 19.4556 9.75934 19.4275 9.73497L18.2582 10.548Z" fill="#E8B941"/>
<path d="M18.6835 13.6085L21.9366 13.9802C21.9421 13.9641 21.9489 13.9486 21.9573 13.9338L20.4399 12.4616L19.7996 11.8404C19.7715 11.8537 19.7402 11.8614 19.707 11.8614C19.6925 11.8614 19.6783 11.8599 19.6646 11.8572L18.6367 13.5172C18.6591 13.543 18.6754 13.5741 18.6835 13.6085" fill="#E8B941"/>
<path d="M19.8344 10.8559C19.7973 10.8454 19.7636 10.8325 19.7344 10.8176L19.7619 11.0367L19.8344 10.8559Z" fill="#E8B941"/>
<path d="M17.3792 15.0265L17.3516 15.1094C17.3833 15.13 17.4092 15.1588 17.4266 15.1927L18.6078 14.9019C18.6166 14.7977 18.7009 14.7123 18.809 14.7053C18.8137 14.705 18.8185 14.7048 18.8231 14.7048C18.899 14.7048 18.9663 14.7444 19.0049 14.8042L20.3358 14.4766L21.457 14.2006L17.5915 14.3884L17.3792 15.0265Z" fill="#E8B941"/>
<path fill-rule="evenodd" clip-rule="evenodd" d="M21.5373 10.8363L21.7468 11.9489L20.1133 10.736C20.4082 10.7259 20.9521 10.7118 21.3527 10.702C21.3828 10.7764 21.4534 10.8302 21.5373 10.8363Z" fill="#E8B941"/>
<path d="M19.2315 18.5693C19.2484 18.5724 19.2648 18.577 19.2806 18.5831L22.019 14.2727C22.0135 14.268 22.0081 14.2633 22.003 14.2582C21.993 14.2483 21.9842 14.2376 21.976 14.2265L19.037 14.9501C19.0279 15.0137 18.9907 15.0691 18.9375 15.1023L19.1464 17.5652L19.2315 18.5693Z" fill="#E8B941"/>
<path d="M19.8933 10.4566C19.9823 10.4566 20.0589 10.5105 20.092 10.5872C20.1116 10.5865 20.1325 10.5858 20.1553 10.5851C20.2945 10.5805 20.4887 10.5749 20.7327 10.5684C20.9321 10.563 21.1314 10.558 21.2855 10.5541L19.7192 9.72098C19.7179 9.72224 19.7169 9.72361 19.7156 9.72486C19.7024 9.73805 19.6876 9.74906 19.6719 9.75819L19.7186 10.5455C19.758 10.4918 19.8215 10.4566 19.8933 10.4566" fill="#E8B941"/>
<path fill-rule="evenodd" clip-rule="evenodd" d="M18.3899 9.36218L17.2461 7.89979V7.89974C17.2523 7.88658 17.2568 7.87249 17.2593 7.85778C17.5887 7.74449 18.3248 7.46741 18.6671 7.33789C18.6945 7.3582 18.7283 7.37028 18.7646 7.37028C18.7689 7.37028 18.7733 7.37013 18.7776 7.36978H18.7779L19.4579 9.38968C19.4411 9.3991 19.4254 9.4107 19.4114 9.42464C19.3896 9.4463 19.3737 9.47157 19.3633 9.49847L18.625 9.49693C18.6147 9.46932 18.5985 9.44336 18.5763 9.4212C18.536 9.38111 18.4824 9.35903 18.4255 9.35903C18.4134 9.35903 18.4015 9.36024 18.3899 9.36218ZM18.6844 7.48356C18.6756 7.481 18.6669 7.478 18.6583 7.4746C18.5287 7.52358 18.3462 7.59235 18.1523 7.66475L18.684 7.78823L18.8485 8.35112L19.0686 8.62472L18.6844 7.48356Z" fill="#E8B941"/>
<path d="M14.801 11.1866C14.8012 11.1866 14.8012 11.1868 14.8013 11.1869L16.9947 9.98098C16.9945 9.9784 16.9943 9.97589 16.9943 9.97331C16.9943 9.94014 17.0036 9.90917 17.0196 9.88258L14.418 6.22947L14.6699 11.1144C14.7191 11.1257 14.7644 11.1502 14.801 11.1866" fill="#E8B941"/>
<path d="M14.4121 11.1889C14.4128 11.1882 14.4134 11.1873 14.4142 11.1866C14.444 11.1569 14.4796 11.1352 14.5184 11.122L14.2691 6.28728L12.5039 10.1643L14.4121 11.1889Z" fill="#E8B941"/>
<path d="M18.5834 12.7241L18.5625 13.3509L19.3848 12.0284L18.5834 12.7241Z" fill="#E8B941"/>
<path d="M17.1697 9.79573C17.2203 9.79573 17.2659 9.81685 17.2984 9.85062L18.2138 9.56875C18.2144 9.52246 18.23 9.47635 18.2607 9.43837L17.1287 7.99108C17.1232 7.99207 17.1176 7.99282 17.1119 7.99326C17.1075 7.99362 17.1032 7.99377 17.0989 7.99377C17.0137 7.99377 16.9418 7.92759 16.9351 7.84308C16.9343 7.83263 16.9346 7.82233 16.9357 7.81225L16.3772 7.43855C16.3503 7.45483 16.3188 7.4644 16.285 7.4644C16.1866 7.4644 16.1065 7.38472 16.1065 7.2868C16.1065 7.27732 16.1075 7.2681 16.1089 7.25901L15.5345 6.87462C15.5345 6.87462 15.5345 6.8746 15.5345 6.87462L14.7719 6.36434L14.625 6.26605L17.1406 9.79835C17.1501 9.79678 17.1598 9.79577 17.1697 9.79577" fill="#E8B941"/>
<path d="M18.4764 13.8731C18.4282 13.8731 18.3835 13.8571 18.3474 13.8301L17.7891 14.2293L19.0858 14.1663L19.8794 14.1278L21.3063 14.0584L18.6683 13.757C18.6604 13.7722 18.6507 13.7867 18.639 13.7999C18.601 13.8431 18.5482 13.8689 18.4906 13.8727C18.4858 13.873 18.4811 13.8731 18.4764 13.8731" fill="#E8B941"/>
<path d="M15.8838 6.77502L15.688 6.45474C15.6819 6.45591 15.6757 6.45684 15.6695 6.45732C15.6651 6.45767 15.6608 6.45785 15.6565 6.45785C15.5893 6.45785 15.5305 6.41657 15.5053 6.35768L15.043 6.36591L15.6031 6.74073L15.8838 6.77502Z" fill="#E8B941"/>
<path fill-rule="evenodd" clip-rule="evenodd" d="M16.4658 7.14532C16.4658 7.01473 16.3857 6.90847 16.2873 6.90847C16.2805 6.90847 16.2738 6.90906 16.2673 6.91003L16.1758 6.71056L18.4889 7.08732L17.2131 7.71085C17.1836 7.67429 17.1441 7.65193 17.1014 7.65193C17.097 7.65193 17.0927 7.65217 17.0883 7.65261C17.0638 7.65517 17.0411 7.66496 17.021 7.68002L16.4633 7.18238C16.4648 7.17026 16.4658 7.15797 16.4658 7.14532ZM17.4336 7.42587L17.9598 7.1687L16.5469 6.93855C16.5679 6.98514 16.5822 7.03779 16.5876 7.09402L16.7074 7.20093L17.4336 7.42587Z" fill="#E8B941"/>
<path d="M16.0434 7.03487L15.9839 6.93763L15.8789 6.9248L16.0434 7.03487Z" fill="#E8B941"/>
<path fill-rule="evenodd" clip-rule="evenodd" d="M11.3199 8.17774C11.2471 8.17774 11.1787 8.20594 11.1272 8.25715C11.1134 8.27094 11.1014 8.28587 11.0912 8.30159L8.60156 7.59707L13.4742 6.57985L11.471 8.22319C11.4266 8.19362 11.3745 8.17774 11.3199 8.17774ZM12.5367 7.18856L13.0034 6.80564L10.1484 7.40166L12.5367 7.18856Z" fill="#E8B941"/>
<path fill-rule="evenodd" clip-rule="evenodd" d="M14.7035 19.7234C14.7211 19.6922 14.7294 19.6567 14.727 19.6201H14.7271C14.7207 19.5223 14.6386 19.4457 14.5402 19.4457C14.5361 19.4457 14.532 19.4458 14.5279 19.4461C14.478 19.4493 14.4323 19.4718 14.3992 19.5092C14.3739 19.5379 14.3585 19.5728 14.3541 19.6099L13.3319 19.9688L12.5063 19.0337C12.5233 19.0035 12.5321 18.9683 12.5297 18.9312C12.5233 18.8334 12.4412 18.7568 12.3428 18.7568C12.3387 18.7568 12.3346 18.7569 12.3305 18.7572C12.3052 18.7589 12.2811 18.7654 12.2591 18.7763L11.8582 18.4421C11.8615 18.4278 11.8627 18.4129 11.8618 18.3979C11.8573 18.3297 11.8082 18.2742 11.7442 18.2586L11.5122 17.2122C11.5125 17.2118 11.5129 17.2115 11.5133 17.2112C11.5159 17.2089 11.5185 17.2067 11.521 17.2042C11.5533 17.172 11.5711 17.1292 11.5711 17.0837C11.5711 17.0382 11.5533 16.9954 11.521 16.9632C11.4886 16.9311 11.4456 16.9133 11.3999 16.9133C11.3542 16.9133 11.3112 16.9311 11.2788 16.9632C11.2539 16.9881 11.2377 17.0193 11.2315 17.0532L11.0679 17.0975L11.0727 17.062L11.4401 16.3682C11.4459 16.3572 11.4489 16.3447 11.4487 16.3322L11.4211 14.5711C11.4453 14.5611 11.4676 14.5464 11.4867 14.5273C11.5659 14.4486 11.5659 14.3204 11.4867 14.2416C11.4483 14.2034 11.3974 14.1824 11.3431 14.1824C11.3176 14.1824 11.2929 14.1872 11.2698 14.1961L10.7969 13.7437C10.8067 13.7215 10.813 13.6973 10.8147 13.6718C10.8184 13.6145 10.7995 13.5591 10.7614 13.5159C10.7311 13.4816 10.6915 13.4584 10.6476 13.4484L10.5469 12.7177L11.2813 12.0485C11.2992 12.0548 11.3182 12.0582 11.3377 12.0582C11.3832 12.0582 11.426 12.0406 11.4581 12.0086C11.5245 11.9425 11.5245 11.835 11.4581 11.769C11.4421 11.753 11.4235 11.7407 11.4031 11.7323C11.3976 11.251 11.3771 9.42327 11.3789 8.71431C11.3858 8.7129 11.3926 8.71118 11.3993 8.70926L12.3456 10.2363C12.3459 10.2369 12.3463 10.2373 12.3468 10.2378C12.3471 10.2382 12.3475 10.2386 12.3478 10.239C12.3502 10.2425 12.3529 10.2458 12.3559 10.2489L12.3593 10.2523C12.3632 10.2559 12.3675 10.2591 12.3723 10.2619L12.373 10.2623L12.3738 10.2628L14.3436 11.3205C14.3395 11.3393 14.3372 11.3587 14.3372 11.3784C14.3372 11.4508 14.3655 11.519 14.417 11.5702C14.4685 11.6214 14.5369 11.6496 14.6096 11.6496C14.6824 11.6496 14.7508 11.6214 14.8023 11.5702C14.8537 11.519 14.8821 11.4508 14.8821 11.3784C14.8821 11.3578 14.8795 11.3375 14.875 11.3179L17.0651 10.1138C17.0953 10.137 17.133 10.151 17.1741 10.151C17.1826 10.151 17.1908 10.1502 17.199 10.1491L18.4402 12.1232C18.454 12.1452 18.4778 12.1583 18.5038 12.1583C18.5125 12.1583 18.5212 12.1568 18.5295 12.1538L19.359 11.8535L18.4615 12.6328C18.4458 12.6464 18.4365 12.666 18.4358 12.6866L18.4102 13.4538C18.319 13.4839 18.2558 13.5722 18.2623 13.6718C18.263 13.683 18.2649 13.6939 18.2673 13.7045L17.4966 14.2556L17.4953 14.2566L17.4929 14.2587L17.4925 14.259C17.4905 14.2606 17.4885 14.2623 17.4867 14.2641C17.4817 14.2692 17.4775 14.275 17.4741 14.2813L17.473 14.2809L17.4691 14.2927V14.2928L17.3012 14.7973L17.2083 15.0766C17.1567 15.0836 17.1098 15.1083 17.0751 15.1476C17.037 15.1908 17.0181 15.2462 17.0218 15.3036C17.0288 15.41 17.1135 15.4946 17.2184 15.5039L17.7711 16.4946C17.7584 16.5174 17.7512 16.5437 17.7512 16.5716C17.7512 16.6569 17.8186 16.7266 17.9031 16.7313L18.1299 17.1377L18.2963 17.4361L17.3278 16.8918C17.324 16.8067 17.2536 16.7387 17.1672 16.7387C17.0785 16.7387 17.0063 16.8105 17.0063 16.8989C17.0063 16.9121 17.0081 16.9249 17.0111 16.9372L16.796 17.1614C16.782 17.1575 16.7673 17.1552 16.7521 17.1552C16.6634 17.1552 16.5911 17.2271 16.5911 17.3154C16.5911 17.3803 16.6302 17.4363 16.6862 17.4614L16.7627 18.662L16.4585 19.1122C16.4422 19.1083 16.4253 19.106 16.4078 19.106C16.2885 19.106 16.1915 19.2025 16.1915 19.3212C16.1915 19.3467 16.1962 19.3711 16.2045 19.3939L15.3675 20.0956C15.3669 20.0961 15.3663 20.0967 15.3658 20.0972C15.3654 20.0976 15.365 20.098 15.3646 20.0984L15.3612 20.1018C15.3593 20.1038 15.3576 20.1059 15.3559 20.1081L15.3533 20.1116C15.3516 20.1142 15.3501 20.1168 15.3488 20.1196L15.3472 20.1226C15.3437 20.1305 15.3416 20.139 15.341 20.1476L15.3408 20.1485L15.3159 20.5793L14.7035 19.7234ZM14.5198 19.3218C14.5266 19.3214 14.5334 19.3212 14.5401 19.3212L14.5402 19.3211C14.7044 19.3211 14.8413 19.4488 14.852 19.612C14.854 19.6434 14.8513 19.6747 14.844 19.7049L15.0987 20.0608L15.2157 20.1519L15.2171 20.1296C15.2194 20.1098 15.2247 20.0905 15.2328 20.0722L15.2377 20.0623C15.2414 20.055 15.2451 20.0487 15.2492 20.0425C15.2513 20.0394 15.2534 20.0365 15.2555 20.0337C15.2602 20.0274 15.265 20.0218 15.2701 20.0164L15.277 20.0094C15.2802 20.0062 15.2834 20.0032 15.2868 20.0003L16.0673 19.346C16.0667 19.3377 16.0664 19.3294 16.0664 19.3211C16.0664 19.1382 16.2124 18.9887 16.3944 18.9817L16.4019 18.9727L16.6351 18.6276L16.5652 17.5306C16.5033 17.4773 16.466 17.3991 16.466 17.3154C16.466 17.1596 16.5923 17.0326 16.7484 17.0307L16.8812 16.8923C16.8847 16.7383 17.0116 16.6141 17.1672 16.6141C17.1983 16.6141 17.2282 16.6191 17.2563 16.6282L17.3861 16.061L17.1366 15.6139C17.0047 15.5727 16.9062 15.453 16.897 15.3116C16.891 15.221 16.9209 15.1336 16.9811 15.0654C17.0166 15.0251 17.061 14.9941 17.1104 14.9744L17.3333 14.3045C17.3346 14.3007 17.3357 14.2967 17.3369 14.2926L17.3373 14.2911C17.3451 14.2645 17.3567 14.2243 17.3861 14.1894C17.4052 14.1667 17.4264 14.152 17.4404 14.1422L17.4406 14.1421L17.4465 14.138L18.137 13.6443C18.1413 13.5353 18.1983 13.436 18.2875 13.3762L18.3107 12.6824C18.3125 12.6274 18.3374 12.5751 18.3792 12.5389L18.771 12.1988L18.5722 12.2707C18.55 12.2787 18.5271 12.2827 18.5038 12.2827C18.4343 12.2827 18.3709 12.2477 18.3341 12.1891L17.364 10.6462L16.9208 10.3353L15.007 11.3874C15.0048 11.4897 14.9636 11.5855 14.8907 11.6581C14.8156 11.7329 14.7158 11.774 14.6096 11.774C14.5034 11.774 14.4036 11.7329 14.3285 11.6582C14.2565 11.5865 14.2155 11.4922 14.2123 11.3914L12.303 10.3656C12.2933 10.3595 12.2839 10.3524 12.2751 10.3444C12.2726 10.3421 12.2696 10.3392 12.2666 10.3362C12.2599 10.3292 12.254 10.3223 12.2488 10.3152C12.246 10.3119 12.2427 10.3074 12.2393 10.302L12.0679 10.0255L11.5081 9.6893C11.5136 10.4201 11.5229 11.2713 11.5274 11.6634C11.534 11.6689 11.5404 11.6747 11.5466 11.6809C11.6023 11.7363 11.633 11.8101 11.633 11.8887C11.633 11.9673 11.6023 12.0411 11.5465 12.0966C11.4865 12.1563 11.4045 12.1873 11.3199 12.1821L10.6797 12.7654L10.7615 13.3592C10.7967 13.3781 10.8284 13.4032 10.8554 13.4337C10.9155 13.5019 10.9454 13.5893 10.9395 13.6799C10.9389 13.6883 10.9381 13.6966 10.9369 13.7049L11.3078 14.0597C11.3195 14.0585 11.3313 14.0578 11.3431 14.0578C11.4307 14.0578 11.5131 14.0918 11.5751 14.1535C11.7031 14.2808 11.7031 14.488 11.5751 14.6153C11.5663 14.6242 11.557 14.6324 11.5473 14.6401L11.5738 16.3302C11.5743 16.3634 11.5663 16.3966 11.5507 16.4262L11.3571 16.7918C11.3712 16.7898 11.3854 16.7888 11.3999 16.7888C11.479 16.7888 11.5535 16.8194 11.6094 16.8752C11.6654 16.9308 11.6962 17.0049 11.6962 17.0837C11.6962 17.1421 11.6792 17.1979 11.6476 17.2456L11.8526 18.1699C11.9285 18.2154 11.9792 18.295 11.9863 18.3864L12.2871 18.6371C12.2987 18.6351 12.3105 18.6337 12.3223 18.6329C12.3291 18.6325 12.3359 18.6322 12.3427 18.6322C12.5069 18.6322 12.6438 18.76 12.6544 18.9231C12.6563 18.9511 12.6543 18.979 12.6486 19.0062L13.2311 19.666L13.4058 19.8108L14.2509 19.514C14.2639 19.4824 14.2822 19.4531 14.3052 19.427C14.3602 19.3646 14.4364 19.3272 14.5198 19.3218Z" fill="#E8B941"/>
<path d="M14.462 19.8031C14.4357 19.7917 14.4124 19.7744 14.394 19.7529L13.3281 20.1272L14.4686 21.6101L14.4666 21.064L14.462 19.8031Z" fill="#E8B941"/>
<path d="M15.4796 21.0488C15.4597 21.0563 15.4386 21.0609 15.4167 21.0623C15.412 21.0626 15.4072 21.0628 15.4025 21.0628C15.289 21.0628 15.1943 20.9744 15.1869 20.8615C15.1834 20.8086 15.1997 20.7589 15.2292 20.7194L14.6133 19.8586L14.6202 21.7537L15.8684 21.5297L15.4796 21.0488Z" fill="#E8B941"/>
<path d="M16.0371 21.4987L16.5736 21.3906L15.6562 21.0279L16.0371 21.4987Z" fill="#E8B941"/>
<path d="M11.2319 14.964C11.2341 14.9663 11.2361 14.9688 11.2383 14.9711L11.243 14.9367L11.2319 14.964Z" fill="#E8B941"/>
<path d="M10.8791 21.148C10.875 21.1483 10.8709 21.1484 10.8668 21.1484C10.8273 21.1484 10.7905 21.1359 10.7601 21.1147L10.207 21.4912L10.9889 21.5503L12.9565 21.6992L11.0047 21.0881C10.9719 21.1236 10.9276 21.1449 10.8791 21.148" fill="#E8B941"/>
<path d="M12.2706 19.1166L11.4531 20.0404L13.4108 21.5781L12.3242 19.1291C12.3054 19.1276 12.2874 19.1233 12.2706 19.1166" fill="#E8B941"/>
<path d="M15.7305 20.8973L16.1669 21.0699L18.632 20.2545L15.7305 20.8973Z" fill="#E8B941"/>
<path d="M13.5958 21.6212C13.6651 21.6337 13.7216 21.6845 13.7418 21.7512L14.4015 21.7652L12.6484 19.4859L13.5958 21.6212Z" fill="#E8B941"/>
<path d="M13.3069 20.0227L13.3713 20.1011L13.3334 20.0011L13.3069 20.0227Z" fill="#E8B941"/>
<path fill-rule="evenodd" clip-rule="evenodd" d="M19.8906 17.9084L22.161 14.3346C22.1733 14.3364 22.1856 14.3376 22.1983 14.3376L22.3167 14.9668L21.7325 15.6807C21.719 15.6777 21.7051 15.6759 21.6907 15.6759C21.6866 15.6759 21.6824 15.676 21.6783 15.6763C21.6276 15.6796 21.5814 15.7022 21.5479 15.7402C21.5144 15.7781 21.4978 15.8267 21.5011 15.8771C21.5026 15.9001 21.5084 15.9219 21.5174 15.9419L19.8906 17.9084ZM21.6713 15.5521C21.6735 15.552 21.6757 15.5518 21.6779 15.5518L22.1842 14.933L22.1261 14.6244L21.4922 15.6223C21.5427 15.581 21.6048 15.5564 21.6713 15.5521Z" fill="#E8B941"/>
<path d="M16.0081 21.6564L15.4805 21.751L16.5078 21.7321L16.6576 21.5257L16.0081 21.6566V21.6564H16.0081Z" fill="#E8B941"/>
<path d="M19.4531 18.8143C19.4584 18.8813 19.4389 18.9499 19.3945 19.0051L19.9543 19.6383C19.9746 19.632 19.9962 19.6286 20.0186 19.6286C20.0332 19.6286 20.0475 19.6301 20.0613 19.6328L20.3761 18.8173C20.3352 18.7781 20.3096 18.7233 20.3096 18.6624C20.3096 18.5438 20.4066 18.4472 20.5259 18.4472C20.554 18.4472 20.5808 18.4528 20.6055 18.4626L21.3532 17.7741L20.8544 18.0471L19.4531 18.8143Z" fill="#E8B941"/>
<path fill-rule="evenodd" clip-rule="evenodd" d="M22.6649 14.3953L22.7633 14.9183H22.7635C22.7839 15.0265 22.7555 15.1376 22.6857 15.223L22.1779 15.8434C22.1824 15.9434 22.1566 16.0403 22.1038 16.1238L22.2304 17.3902L22.231 17.3958L22.2312 17.4014C22.2317 17.4167 22.2314 17.4313 22.2301 17.4458L22.2299 17.4482L22.2297 17.4506L22.2287 17.4588L22.2285 17.4603L22.2283 17.4617C22.2262 17.4778 22.2233 17.4929 22.2196 17.5073C22.2183 17.5121 22.2168 17.5176 22.2149 17.5239C22.2105 17.5381 22.2054 17.5516 22.1994 17.5652C22.197 17.5707 22.1945 17.5762 22.1915 17.5821C22.1817 17.6014 22.1704 17.6198 22.1579 17.6366L22.1563 17.6388L22.1546 17.6409L22.149 17.6479L22.1482 17.649L22.1474 17.65C22.1411 17.6576 22.1345 17.6651 22.1278 17.6721L22.1266 17.6734L22.1253 17.6747L22.1168 17.6832L22.1142 17.6858L22.1114 17.6884L21.0442 18.671C21.0409 18.8742 20.9202 19.0515 20.7391 19.1317L20.5179 19.7049C20.5306 19.7498 20.537 19.7962 20.537 19.8438C20.537 20.1272 20.3053 20.3578 20.0205 20.3578C19.9839 20.3578 19.9477 20.354 19.9124 20.3465L17.0804 21.7098L16.8516 22.0248C16.7829 22.1195 16.6718 22.1773 16.5544 22.1795L14.8488 22.211L14.8484 22.2222L14.6749 22.219L14.5451 22.2166L14.4126 22.2191L14.2341 22.2225V22.21L13.8412 22.2017C13.7684 22.2527 13.6824 22.2831 13.5925 22.289C13.582 22.2896 13.5712 22.29 13.5605 22.29C13.4415 22.29 13.3285 22.2471 13.2402 22.1703L10.2702 21.9455C10.1971 21.9972 10.1106 22.028 10.0196 22.0338C10.0091 22.0345 9.99845 22.0349 9.98793 22.0349C9.86897 22.0349 9.75353 21.9905 9.66531 21.9133L7.02155 21.8317C6.94869 21.8718 6.86654 21.8929 6.78337 21.8929C6.60788 21.8929 6.44432 21.7989 6.35652 21.6477C6.2907 21.5342 6.27322 21.4021 6.3073 21.2756C6.34136 21.149 6.42289 21.0433 6.53686 20.9778C6.61156 20.9349 6.69692 20.9122 6.78377 20.9122C6.80143 20.9122 6.81905 20.9131 6.83651 20.915L8.20443 20.3709L8.17033 17.2281C8.0853 17.1356 8.03872 17.0165 8.03872 16.8904C8.03872 16.7637 8.08563 16.6442 8.17132 16.5515L8.1994 14.5196L8.19942 14.5174V14.5152L8.20944 14.2601C8.13516 14.1707 8.09476 14.0593 8.09476 13.9418C8.09476 13.8176 8.13988 13.7003 8.22247 13.6083L8.21915 8.94441C8.21268 8.93561 8.20656 8.92661 8.20073 8.91741L6.64462 8.12675C6.60044 8.13897 6.55459 8.14527 6.5088 8.14527C6.22825 8.14527 6 7.91812 6 7.63892C6 7.3597 6.22825 7.13255 6.5088 7.13255C6.62359 7.13255 6.7344 7.17134 6.82339 7.24101L7.99289 7.21828C8.08439 7.1406 8.20062 7.09729 8.32232 7.09729C8.40186 7.09729 8.47884 7.11539 8.54878 7.1502L13.5903 6.09776L13.8599 5.87654C13.9057 5.65966 14.0972 5.49999 14.3283 5.49999C14.5391 5.49999 14.7221 5.63763 14.7844 5.8315L14.9163 5.91978L15.398 5.91125C15.4641 5.86679 15.5414 5.8396 15.6217 5.83329C15.634 5.83232 15.6464 5.83183 15.6587 5.83183C15.8992 5.83183 16.1025 6.01896 16.1215 6.25782C16.1226 6.27211 16.1231 6.28642 16.1229 6.30078L16.2565 6.51918L18.5482 6.79904C18.6044 6.76904 18.6664 6.75089 18.7309 6.74582C18.7432 6.74485 18.7558 6.74434 18.7682 6.74434C19.0087 6.74434 19.2119 6.93149 19.2308 7.17033C19.2338 7.20773 19.2323 7.24496 19.2262 7.28157L19.8565 9.15376C19.8821 9.17132 19.9061 9.19121 19.9283 9.21331C19.9774 9.26218 20.0157 9.32011 20.0413 9.3838L20.1726 9.45365L20.1741 9.45444L20.1757 9.4553L20.4707 9.6198L20.697 9.73265L20.699 9.73366L20.7011 9.73476L21.4301 10.1226C21.4702 10.1128 21.5115 10.1078 21.5524 10.1078C21.8372 10.1078 22.0689 10.3383 22.0689 10.6218C22.0689 10.7102 22.0455 10.7973 22.0019 10.8742L22.1648 11.7381C22.2707 11.8274 22.3339 11.9602 22.3339 12.1016C22.3339 12.1809 22.3137 12.2589 22.2761 12.3282L22.5145 13.5921C22.5457 13.6129 22.5749 13.6367 22.6018 13.6635C22.71 13.7712 22.7696 13.9143 22.7696 14.0665C22.7696 14.186 22.7329 14.2998 22.6649 14.3953ZM22.4533 15.0344L21.8522 15.769C21.867 15.7938 21.8762 15.8222 21.8782 15.8527C21.8815 15.9031 21.8649 15.9517 21.8315 15.9896C21.8199 16.0028 21.8067 16.0139 21.7924 16.0232L21.9314 17.4073V17.4083V17.4108C21.9316 17.4142 21.9316 17.4176 21.9312 17.4209L21.9309 17.4233L21.9308 17.4241C21.9304 17.4272 21.9298 17.4303 21.9291 17.4333L21.9282 17.4366C21.9275 17.4386 21.9268 17.4406 21.926 17.4426C21.9255 17.4437 21.9251 17.4447 21.9246 17.4458L21.9236 17.4482C21.9217 17.452 21.9195 17.4556 21.9169 17.459L21.9161 17.46C21.9138 17.463 21.9112 17.4658 21.9085 17.4684L21.9075 17.4695L20.7198 18.5632C20.7354 18.5929 20.7444 18.6267 20.7444 18.6626C20.7444 18.7812 20.6474 18.8778 20.5282 18.8778L20.5237 18.8776L20.5162 18.8772L20.1931 19.7142C20.2206 19.7503 20.2372 19.7952 20.2372 19.8439C20.2372 19.9626 20.1402 20.0591 20.0209 20.0591C19.9757 20.0591 19.9336 20.0451 19.8988 20.0214L16.8819 21.4737L16.6086 21.8499C16.5949 21.8688 16.5727 21.8804 16.5492 21.8808L14.5568 21.9176V21.9181L14.5456 21.9178L14.5348 21.918V21.9176L13.7219 21.9004C13.7161 21.91 13.7095 21.9193 13.7019 21.9279C13.6689 21.9653 13.6232 21.9877 13.5733 21.9909C13.5691 21.9912 13.565 21.9913 13.561 21.9913C13.4859 21.9913 13.4204 21.9467 13.3907 21.8821L10.1539 21.6371C10.1471 21.6497 10.139 21.6617 10.1293 21.6727C10.0963 21.7102 10.0506 21.7326 10.0006 21.7358C9.9965 21.7361 9.9924 21.7362 9.98834 21.7362C9.91023 21.7362 9.84255 21.6878 9.8147 21.619L6.92737 21.53C6.91387 21.5451 6.89803 21.5581 6.87994 21.5685C6.85069 21.5853 6.81745 21.5942 6.78379 21.5942C6.71518 21.5942 6.65125 21.5575 6.61697 21.4984C6.59126 21.4541 6.58443 21.4025 6.59773 21.353C6.61105 21.3036 6.64292 21.2623 6.68744 21.2367C6.71669 21.2199 6.74993 21.211 6.78359 21.211C6.81063 21.211 6.83684 21.2169 6.86091 21.2274L8.50732 20.5725L8.4694 17.079C8.4433 17.0689 8.41925 17.0537 8.39886 17.0334C8.36053 16.9952 8.33941 16.9445 8.33941 16.8905C8.33941 16.8365 8.36053 16.7858 8.39886 16.7476C8.41941 16.7272 8.44363 16.7118 8.46998 16.7018L8.49998 14.527L8.51569 14.1263C8.4934 14.1164 8.47281 14.1025 8.45502 14.0848C8.41666 14.0466 8.39554 13.9959 8.39554 13.9419C8.39554 13.8879 8.41666 13.8372 8.45502 13.799C8.47483 13.7793 8.49808 13.7643 8.52336 13.7542L8.51982 8.81712C8.50477 8.8094 8.49079 8.79944 8.47847 8.78718C8.45365 8.76248 8.43855 8.7318 8.43293 8.69975L6.64854 7.79311C6.61156 7.82623 6.56285 7.84659 6.50931 7.84659C6.39432 7.84659 6.30078 7.75348 6.30078 7.63904C6.30078 7.52461 6.39432 7.4315 6.50931 7.4315C6.58931 7.4315 6.65883 7.47662 6.69377 7.54256L8.13482 7.51453C8.16844 7.44471 8.23995 7.39623 8.32283 7.39623C8.3865 7.39623 8.4435 7.42486 8.48179 7.46974L13.6912 6.38226L13.6949 6.39977L14.1563 6.02126C14.1525 6.00695 14.1503 5.99202 14.1503 5.97656C14.1503 5.87862 14.2304 5.79894 14.3288 5.79894C14.4272 5.79894 14.5073 5.87862 14.5073 5.97656C14.5073 5.98602 14.5063 5.99526 14.5048 6.00434L14.8277 6.22038L15.5194 6.2081C15.5237 6.20119 15.5284 6.19447 15.5338 6.18816C15.5623 6.15493 15.6021 6.13475 15.6459 6.13131C15.6503 6.13095 15.6546 6.1308 15.6589 6.1308C15.7441 6.1308 15.816 6.19698 15.8227 6.28147C15.8249 6.30928 15.82 6.33654 15.8088 6.36126L16.0761 6.79827L18.6353 7.11082C18.6379 7.1074 18.6404 7.10396 18.6432 7.10069C18.6717 7.06748 18.7115 7.04728 18.7553 7.04384C18.7574 7.04368 18.7596 7.04355 18.7618 7.04346C18.7639 7.04338 18.7661 7.04333 18.7683 7.04333C18.8534 7.04333 18.9253 7.10952 18.932 7.194C18.9347 7.22739 18.927 7.25924 18.9116 7.28647L19.6123 9.36782C19.6515 9.37647 19.6875 9.39583 19.7165 9.42474C19.7601 9.46812 19.7806 9.52575 19.7785 9.58269L21.4174 10.4545C21.4545 10.4247 21.5016 10.4067 21.5529 10.4067C21.6722 10.4067 21.7692 10.5033 21.7692 10.6219C21.7692 10.6925 21.7347 10.755 21.6818 10.7943L21.8958 11.9288C21.9749 11.947 22.0341 12.0176 22.0341 12.1017C22.0341 12.1626 22.0031 12.2164 21.956 12.2484L22.2487 13.8004C22.3019 13.8105 22.3509 13.836 22.39 13.875C22.4415 13.9262 22.4698 13.9942 22.4698 14.0667C22.4698 14.1391 22.4415 14.2072 22.39 14.2584C22.3751 14.2732 22.3587 14.2859 22.3413 14.2967L22.4687 14.9735C22.4728 14.9951 22.4671 15.0173 22.4531 15.0344L22.4533 15.0344ZM6.82418 21.0472C6.8287 21.0472 6.8332 21.0475 6.8377 21.0479C6.84145 21.0482 6.8452 21.0485 6.84898 21.0486L6.83189 21.0485L6.79797 21.0486C6.80234 21.0486 6.80669 21.0481 6.81103 21.0477L6.81104 21.0477C6.81541 21.0473 6.81978 21.0469 6.82418 21.0469V21.0472Z" fill="#E8B941"/>
<path d="M21.6237 16.043L19.4883 18.6244L20.9066 17.8479L21.7744 17.3728L21.6414 16.0483C21.6354 16.0468 21.6295 16.0451 21.6237 16.043" fill="#E8B941"/>
<path d="M16.8327 21.3319L18.9829 20.2968L16.3867 21.1556L16.8327 21.3319Z" fill="#E8B941"/>
<path d="M19.2744 19.0919C19.2459 19.1017 19.2159 19.1071 19.185 19.1071C19.1122 19.1071 19.0438 19.0789 18.9923 19.0277C18.9802 19.0156 18.9697 19.0027 18.9604 18.9891L16.6184 19.3629C16.5988 19.4616 16.5112 19.5363 16.4063 19.5363C16.3675 19.5363 16.3312 19.526 16.2997 19.5082L15.6367 20.064L19.8095 19.8036C19.8145 19.7771 19.8246 19.7523 19.8385 19.7301L19.6395 19.505L19.2744 19.0919Z" fill="#E8B941"/>
<path d="M15.485 20.2231L15.4609 20.6402C15.5276 20.6585 15.5818 20.7079 15.606 20.7722L19.1043 19.9972L15.8807 20.1984L15.485 20.2231Z" fill="#E8B941"/>
<path d="M11.2391 20.0794L11.2419 20.0672L11.2425 20.0647L10.7617 19.687L10.9037 20.7789C10.9843 20.7949 11.047 20.8627 11.0538 20.9467L13.2348 21.6296L11.2702 20.0864L11.2391 20.0794Z" fill="#E8B941"/>
<path fill-rule="evenodd" clip-rule="evenodd" d="M8.64673 14.5309L8.66239 14.1324C8.67669 14.1275 8.69036 14.1209 8.70321 14.1129L9.96764 14.8877C9.96428 14.9225 9.97172 14.958 9.98969 14.9892L8.61719 16.6758L8.64673 14.5309ZM8.77962 14.3065L8.77067 14.534L8.74609 16.3181L9.84698 14.9652L9.84592 14.9599L8.77962 14.3065Z" fill="#E8B941"/>
<path fill-rule="evenodd" clip-rule="evenodd" d="M10.0517 14.7535L8.96875 13.7743L11.1032 14.2318L10.2543 14.7746C10.2233 14.7357 10.1845 14.7144 10.1433 14.7144C10.1103 14.7144 10.0789 14.7282 10.0517 14.7535ZM10.0624 14.5473C10.0886 14.5363 10.1159 14.5307 10.1435 14.5307C10.1852 14.5307 10.2262 14.5437 10.2638 14.5683L10.6512 14.3206L9.55078 14.0848L10.0624 14.5473Z" fill="#E8B941"/>
<path d="M10.0641 16.0526L10.3437 15.9142L10.1701 15.2146L10.0508 16.0422C10.0553 16.0455 10.0598 16.0489 10.0641 16.0526" fill="#E8B941"/>
<path fill-rule="evenodd" clip-rule="evenodd" d="M10.023 15.1876L9.90329 16.018C9.87656 16.026 9.85207 16.0405 9.83178 16.0607C9.79556 16.0967 9.77917 16.145 9.78225 16.1923L8.81641 16.6704L10.023 15.1876ZM9.66701 16.1112C9.67971 16.0592 9.70646 16.0112 9.74513 15.9727C9.75905 15.9589 9.77429 15.9464 9.79058 15.9357L9.83654 15.6169L9.27734 16.3041L9.66701 16.1112Z" fill="#E8B941"/>
<path d="M10.4612 8.89861C10.4989 8.89861 10.5346 8.91123 10.5637 8.93434C10.7359 8.80457 10.9277 8.65911 11.0678 8.55094C11.0539 8.51697 11.0475 8.48076 11.048 8.44464L9.82226 8.09774L8.82422 13.2095L9.18783 12.3608L9.53114 11.534L10.3425 9.17558C10.2808 9.11154 10.2815 9.00958 10.3448 8.94658C10.3759 8.91564 10.4172 8.89861 10.4612 8.89861" fill="#E8B941"/>
<path fill-rule="evenodd" clip-rule="evenodd" d="M10.2738 15.0093C10.2958 14.9814 10.3084 14.9476 10.3099 14.9118L11.1957 14.5279C11.2019 14.5341 11.2087 14.5397 11.2156 14.545L11.0522 14.9459C11.0141 14.9503 10.9789 14.9671 10.9514 14.9945C10.8889 15.0567 10.8849 15.1555 10.9395 15.2223L9.80859 17.9965C9.7939 17.9976 9.77947 18.0006 9.7656 18.0055L8.72656 16.9704C8.73977 16.9397 8.74509 16.9065 8.74241 16.8738L9.8561 16.3224C9.88422 16.3415 9.91738 16.3518 9.95212 16.3518C9.99786 16.3518 10.0409 16.3341 10.0732 16.3019C10.1034 16.2718 10.1207 16.2325 10.1229 16.1904L10.4644 16.0213C10.4961 16.0056 10.5124 15.9707 10.5039 15.9365L10.2738 15.0093ZM10.8616 14.9065C10.8897 14.8786 10.9224 14.8569 10.9581 14.8423L10.9958 14.7499L10.418 15.0003C10.4146 15.0101 10.4107 15.0197 10.4062 15.0291L10.5808 15.7327L10.6286 15.6507L10.7991 15.2324C10.7515 15.1238 10.7734 14.9943 10.8616 14.9065Z" fill="#E8B941"/>
<path fill-rule="evenodd" clip-rule="evenodd" d="M10.5829 13.5124C10.5876 13.5129 10.5924 13.5133 10.597 13.5133C10.6306 13.5133 10.6624 13.4981 10.6909 13.4714L11.1159 14.2579L8.95703 13.6513L10.3977 13.2576C10.4285 13.3985 10.4984 13.5018 10.5829 13.5124ZM10.3357 13.5181L9.83594 13.6547L10.7488 13.9112L10.6584 13.7438C10.6313 13.7533 10.6036 13.7565 10.5753 13.7528C10.4803 13.7409 10.3946 13.6547 10.3357 13.5181Z" fill="#E8B941"/>
<path fill-rule="evenodd" clip-rule="evenodd" d="M10.3912 13.5907L8.76099 13.821C8.75756 13.8164 8.75388 13.8119 8.75 13.8076L9.32677 12.4186L9.46649 12.0924L10.4283 13.523C10.4121 13.5429 10.3995 13.5658 10.3912 13.5907ZM9.4897 12.3528L9.44059 12.4675L8.94141 13.6696L10.2507 13.4847L9.4897 12.3528Z" fill="#E8B941"/>
<path fill-rule="evenodd" clip-rule="evenodd" d="M10.7577 13.3267L9.75781 12.2568L10.6434 12.7302L10.7577 13.3267Z" fill="#E8B941"/>
<path d="M8.71089 8.55535C8.77505 8.6192 8.77505 8.72309 8.71089 8.78694C8.69861 8.79918 8.68468 8.80912 8.66967 8.8168L8.6728 13.2036L9.67773 8.05666L8.49383 7.72162C8.47524 7.74824 8.45062 7.77042 8.42188 7.78599L8.62063 8.50962C8.65465 8.51497 8.68605 8.53063 8.71089 8.55535" fill="#E8B941"/>
<path d="M8.12419 7.66408L6.77734 7.69026L8.47842 8.55458L8.27242 7.80461C8.20175 7.78674 8.14535 7.73309 8.12419 7.66408" fill="#E8B941"/>
<path d="M6.96875 21.3458C6.97245 21.3576 6.97498 21.3697 6.97631 21.3819L9.72826 21.4667L8.57556 20.7067L6.96875 21.3458Z" fill="#E8B941"/>
<path d="M8.65558 20.5824L8.93992 20.7699L9.8527 21.3717L8.62109 17.4033L8.65558 20.5824Z" fill="#E8B941"/>
<path d="M11.228 8.70316C11.2048 8.69465 11.1828 8.683 11.1626 8.66838C10.9995 8.79466 10.7797 8.96079 10.6271 9.0756C10.6241 9.11305 10.6083 9.14968 10.5796 9.17824C10.5791 9.1787 10.5786 9.17912 10.5781 9.17956L11.2475 11.3371C11.2397 10.6285 11.2262 9.28663 11.228 8.70316" fill="#E8B941"/>
<path d="M10.6795 20.974C10.6763 20.9243 10.6927 20.8763 10.7257 20.8389C10.7257 20.8389 10.7259 20.8387 10.726 20.8386L9.7994 18.3211C9.74978 18.3141 9.70531 18.2848 9.67989 18.241C9.65795 18.2032 9.65212 18.1591 9.66347 18.1169C9.66371 18.116 9.66407 18.1152 9.66431 18.1143L8.70312 17.1567L9.33186 19.1825L10.009 21.3643C10.0374 21.3675 10.0639 21.377 10.0872 21.3915L10.6811 20.9873C10.6805 20.9829 10.6798 20.9785 10.6795 20.974" fill="#E8B941"/>
<path fill-rule="evenodd" clip-rule="evenodd" d="M10.4574 12.5921L9.66797 11.6514L11.1419 11.5918L10.4574 12.5921ZM10.0312 11.8364L10.4482 12.3333L10.8097 11.805L10.0312 11.8364Z" fill="#E8B941"/>
<path d="M11.2143 11.769C11.2163 11.767 11.2185 11.7652 11.2206 11.7634L10.4572 9.3032L9.67221 11.585C9.67172 11.5865 9.67115 11.5879 9.67057 11.5894L9.55859 11.859L11.1801 11.8182C11.1883 11.8004 11.1996 11.7837 11.2143 11.769" fill="#E8B941"/>
<path d="M13.3641 13.5348L13.3569 13.014L12.9079 12.402L11.3906 12.364L12.5275 13.1828L13.0431 13.1217L13.3641 13.5348Z" fill="#E8B941"/>
<path d="M15.5156 13.2777L15.5939 14.5021L15.8022 13.4087L16.0253 13.1216L16.541 13.1828L17.6778 12.364L16.1606 12.402L15.5156 13.2777Z" fill="#E8B941"/>
<path d="M15.7718 16.8827L14.6205 16.1133L14.6269 15.5752L15.8073 14.9668L15.6265 14.8028L14.534 14.8972L13.4415 14.8028L13.2607 14.9668L14.4412 15.5752L14.4475 16.1133L13.2962 16.8827L13.0068 16.8627L12.9766 17.3481L14.0266 16.6712H14.534H15.0414L16.0915 17.3481L16.074 16.8536L15.7718 16.8827Z" fill="#E8B941"/>
<path d="M13.9922 18.522H15.0605L14.5333 18.0628L13.9922 18.522Z" fill="#E8B941"/>
</svg>
