<svg width="19" height="19" viewBox="0 0 19 19" fill="none" xmlns="http://www.w3.org/2000/svg">
<path d="M4.98413 4.98523V6.17722C5.19287 6.05765 5.31752 5.84624 5.35137 5.64511C5.37571 5.50001 5.38569 5.15434 4.98413 4.98523Z" fill="#A3A6B0"/>
<path d="M4.0448 3.40887C4.01515 3.56617 4.05266 3.71231 4.14043 3.78111C4.17134 3.80534 4.20541 3.82917 4.24192 3.85258V3.07655C4.1287 3.16339 4.06628 3.29487 4.0448 3.40887Z" fill="#A3A6B0"/>
<path d="M4.63867 0C2.08091 0 0 2.08091 0 4.63867C0 7.19644 2.08091 9.27734 4.63867 9.27734C7.19644 9.27734 9.27734 7.19644 9.27734 4.63867C9.27734 2.08091 7.19644 0 4.63867 0ZM6.0833 5.76813C5.99598 6.28748 5.60077 6.81417 4.98416 6.97059V7.23633C4.98416 7.44125 4.81798 7.60742 4.61307 7.60742C4.40815 7.60742 4.24197 7.44125 4.24197 7.23633V7.00618C3.94235 6.98027 3.69398 6.89934 3.34188 6.669C3.17037 6.55682 3.12231 6.32681 3.23449 6.15529C3.34663 5.98381 3.57668 5.93564 3.7482 6.0479C3.94859 6.17897 4.07428 6.23582 4.24197 6.25942V4.69226C4.00495 4.58364 3.8278 4.4791 3.68244 4.36506C3.37447 4.12352 3.23386 3.70448 3.31546 3.27138C3.40438 2.79942 3.73291 2.42391 4.17276 2.29143C4.19607 2.28442 4.21911 2.278 4.24197 2.27191V2.04102C4.24197 1.8361 4.40815 1.66992 4.61307 1.66992C4.81798 1.66992 4.98416 1.8361 4.98416 2.04102V2.23128C5.34445 2.29366 5.5991 2.47104 5.72245 2.61265C5.85708 2.76717 5.8409 3.00159 5.68638 3.13619C5.53267 3.27004 5.29996 3.2549 5.16496 3.1026C5.1565 3.09403 5.09753 3.03725 4.98416 2.99543V4.19451C5.05003 4.21896 5.11586 4.24268 5.18047 4.26554C5.83278 4.4961 6.1956 5.09998 6.0833 5.76813Z" fill="#A3A6B0"/>
<path d="M18.5366 8.24615L16.6011 7.91743C16.3578 7.53933 16.0708 7.19079 15.7438 6.87674C15.9318 5.93642 16.4384 5.10002 17.1899 4.49884L17.3067 4.4054C17.4913 4.25774 17.5625 4.00956 17.4842 3.78646C17.406 3.56335 17.1954 3.41406 16.959 3.41406H15.4746C14.1612 3.41406 12.9592 4.15666 12.3562 5.30152C12.1564 5.28026 11.9583 5.26953 11.7637 5.26953H10.3559C10.0407 8.14547 7.59714 10.3906 4.63867 10.3906C3.02252 10.3906 1.56023 9.72039 0.514336 8.64359C0.177977 9.38452 0 10.1945 0 11.0215C0 12.7988 0.827168 14.475 2.22656 15.5627V18.4434C2.22656 18.7508 2.47579 19 2.7832 19H5.00977C5.24934 19 5.46205 18.8467 5.53783 18.6194L6.15318 16.7734H11.3625L11.9778 18.6194C12.0536 18.8467 12.2663 19 12.5059 19H14.7324C15.0398 19 15.2891 18.7508 15.2891 18.4434V15.5628C16.0545 14.9683 16.6532 14.1957 17.0384 13.3046L18.6524 12.6507C18.8625 12.5655 19 12.3615 19 12.1348V8.79492C19 8.52347 18.8042 8.29161 18.5366 8.24615ZM14.1758 9.53711C13.8684 9.53711 13.6191 9.28788 13.6191 8.98047C13.6191 8.67305 13.8684 8.42383 14.1758 8.42383C14.4832 8.42383 14.7324 8.67305 14.7324 8.98047C14.7324 9.28788 14.4832 9.53711 14.1758 9.53711Z" fill="#A3A6B0"/>
</svg>
