<?xml version="1.0" encoding="UTF-8"?>
<svg width="24px" height="24px" viewBox="0 0 24 24" version="1.1" xmlns="http://www.w3.org/2000/svg" xmlns:xlink="http://www.w3.org/1999/xlink">
    <!-- Generator: Sketch 64 (93537) - https://sketch.com -->
    <title>buy</title>
    <desc>Created with Sketch.</desc>
    <g id="Page-1" stroke="none" stroke-width="1" fill="none" fill-rule="evenodd">
        <g id="Group-14" transform="translate(-257.000000, -625.000000)" fill="#792831" fill-rule="nonzero">
            <path d="M269,625 C275.6165,625 281,630.3835 281,637 C281,637.594 280.9535,638.1685 280.8545,638.758 C280.829,638.911 280.7555,639.0535 280.6445,639.1645 L280.6445,639.1645 L271.1645,648.6445 C271.0535,648.757 270.9125,648.829 270.758,648.8545 C270.1685,648.9535 269.594,649 269,649 C262.3835,649 257,643.6165 257,637 C257,630.3835 262.3835,625 269,625 Z M278.513,639.178 C276.566,639.106 274.631,639.829 273.23,641.23 C271.829,642.6295 271.106,644.5645 271.178,646.5115 L271.178,646.5115 Z M262.25,632.5 L260.75,632.5 C260.336,632.5 260,632.836 260,633.25 L260,633.25 L260,639.25 C260,639.664 260.336,640 260.75,640 L260.75,640 L262.25,640 C263.4905,640 264.5,638.9905 264.5,637.75 C264.5,637.171 264.275,636.649 263.915,636.25 C264.275,635.851 264.5,635.329 264.5,634.75 C264.5,633.5095 263.4905,632.5 262.25,632.5 L262.25,632.5 Z M269.75,632.5 C269.336,632.5 269,632.836 269,633.25 L269,633.25 L269,637.75 C269,638.164 268.664,638.5 268.25,638.5 C267.836,638.5 267.5,638.164 267.5,637.75 L267.5,637.75 L267.5,633.25 C267.5,632.836 267.164,632.5 266.75,632.5 C266.336,632.5 266,632.836 266,633.25 L266,633.25 L266,637.75 C266,638.9905 267.0095,640 268.25,640 C269.4905,640 270.5,638.9905 270.5,637.75 L270.5,637.75 L270.5,633.25 C270.5,632.836 270.164,632.5 269.75,632.5 Z M273.4205,632.9155 C273.2345,632.5435 272.7845,632.395 272.414,632.5795 C272.0435,632.764 271.895,633.2155 272.0795,633.5845 L272.0795,633.5845 L273.5,636.427 L273.5,639.25 C273.5,639.664 273.836,640 274.25,640 C274.664,640 275,639.664 275,639.25 L275,639.25 L275,636.427 L276.422,633.586 C276.6065,633.2155 276.4565,632.7655 276.086,632.5795 C275.7155,632.398 275.2655,632.5435 275.0795,632.9155 L275.0795,632.9155 L274.25,634.573 Z M262.25,637 C262.664,637 263,637.336 263,637.75 C263,638.164 262.664,638.5 262.25,638.5 L262.25,638.5 L261.5,638.5 L261.5,637 Z M262.25,634 C262.664,634 263,634.336 263,634.75 C263,635.164 262.664,635.5 262.25,635.5 L262.25,635.5 L261.5,635.5 L261.5,634 Z" id="buy"></path>
        </g>
    </g>
</svg>