<svg width="24" height="24" viewBox="0 0 24 24" fill="none" xmlns="http://www.w3.org/2000/svg">
<path d="M21.7298 21.4051H2.2703C1.84038 21.4046 1.42821 21.2336 1.12421 20.9296C0.820211 20.6256 0.649197 20.2134 0.648682 19.7835V2.59428C0.649197 2.16436 0.820211 1.75219 1.12421 1.44819C1.42821 1.14419 1.84038 0.973171 2.2703 0.972656H21.7298C22.1597 0.973171 22.5719 1.14419 22.8759 1.44819C23.1799 1.75219 23.3509 2.16436 23.3514 2.59428V19.7835C23.3509 20.2134 23.1799 20.6256 22.8759 20.9296C22.5719 21.2336 22.1597 21.4046 21.7298 21.4051ZM2.2703 1.62131C2.01225 1.62131 1.76478 1.72381 1.58231 1.90628C1.39984 2.08875 1.29733 2.33623 1.29733 2.59428V19.7835C1.29733 20.0415 1.39984 20.289 1.58231 20.4715C1.76478 20.6539 2.01225 20.7564 2.2703 20.7564H21.7298C21.9878 20.7564 22.2353 20.6539 22.4178 20.4715C22.6002 20.289 22.7027 20.0415 22.7027 19.7835V2.59428C22.7027 2.33623 22.6002 2.08875 22.4178 1.90628C22.2353 1.72381 21.9878 1.62131 21.7298 1.62131H2.2703Z" fill="black"/>
<path d="M3.89195 13.4595C3.80594 13.4595 3.72344 13.4253 3.66262 13.3645C3.6018 13.3037 3.56763 13.2212 3.56763 13.1352V9.24327C3.56763 9.15725 3.6018 9.07476 3.66262 9.01394C3.72344 8.95311 3.80594 8.91895 3.89195 8.91895C3.97797 8.91895 4.06046 8.95311 4.12128 9.01394C4.18211 9.07476 4.21628 9.15725 4.21628 9.24327V13.1352C4.21628 13.2212 4.18211 13.3037 4.12128 13.3645C4.06046 13.4253 3.97797 13.4595 3.89195 13.4595Z" fill="black"/>
<path d="M20.1082 18.4862H3.89195C3.80594 18.4862 3.72344 18.452 3.66262 18.3912C3.6018 18.3304 3.56763 18.2479 3.56763 18.1619V15.7295C3.56763 15.6434 3.6018 15.5609 3.66262 15.5001C3.72344 15.4393 3.80594 15.4051 3.89195 15.4051C3.97797 15.4051 4.06046 15.4393 4.12128 15.5001C4.18211 15.5609 4.21628 15.6434 4.21628 15.7295V17.8376H19.7838V4.54025H4.21628V6.64836C4.21628 6.73438 4.18211 6.81687 4.12128 6.87769C4.06046 6.93852 3.97797 6.97269 3.89195 6.97269C3.80594 6.97269 3.72344 6.93852 3.66262 6.87769C3.6018 6.81687 3.56763 6.73438 3.56763 6.64836V4.21593C3.56763 4.12991 3.6018 4.04742 3.66262 3.98659C3.72344 3.92577 3.80594 3.8916 3.89195 3.8916H20.1082C20.1942 3.8916 20.2767 3.92577 20.3375 3.98659C20.3983 4.04742 20.4325 4.12991 20.4325 4.21593V18.1619C20.4325 18.2479 20.3983 18.3304 20.3375 18.3912C20.2767 18.452 20.1942 18.4862 20.1082 18.4862Z" fill="black"/>
<path d="M6.81076 23.0271H4.21617C4.13015 23.0271 4.04766 22.9929 3.98684 22.9321C3.92602 22.8713 3.89185 22.7888 3.89185 22.7028V21.0812C3.89185 20.9951 3.92602 20.9127 3.98684 20.8518C4.04766 20.791 4.13015 20.7568 4.21617 20.7568H6.81076C6.89678 20.7568 6.97927 20.791 7.0401 20.8518C7.10092 20.9127 7.13509 20.9951 7.13509 21.0812V22.7028C7.13509 22.7888 7.10092 22.8713 7.0401 22.9321C6.97927 22.9929 6.89678 23.0271 6.81076 23.0271ZM4.54049 22.3785H6.48644V21.4055H4.54049V22.3785Z" fill="black"/>
<path d="M19.7838 23.0271H17.1892C17.1032 23.0271 17.0207 22.9929 16.9599 22.9321C16.899 22.8713 16.8649 22.7888 16.8649 22.7028V21.0812C16.8649 20.9951 16.899 20.9127 16.9599 20.8518C17.0207 20.791 17.1032 20.7568 17.1892 20.7568H19.7838C19.8698 20.7568 19.9523 20.791 20.0131 20.8518C20.074 20.9127 20.1081 20.9951 20.1081 21.0812V22.7028C20.1081 22.7888 20.074 22.8713 20.0131 22.9321C19.9523 22.9929 19.8698 23.0271 19.7838 23.0271ZM17.5135 22.3785H19.4595V21.4055H17.5135V22.3785Z" fill="black"/>
<path d="M4.36476 9.56746H3.41903C3.247 9.56746 3.08202 9.49912 2.96037 9.37748C2.83873 9.25583 2.77039 9.09085 2.77039 8.91881V6.97287C2.77039 6.80084 2.83873 6.63585 2.96037 6.5142C3.08202 6.39256 3.247 6.32422 3.41903 6.32422H4.36509C4.53712 6.32422 4.7021 6.39256 4.82375 6.5142C4.94539 6.63585 5.01373 6.80084 5.01373 6.97287V8.91881C5.01373 9.00402 4.99695 9.0884 4.96433 9.16712C4.93171 9.24583 4.8839 9.31736 4.82363 9.37759C4.76337 9.43783 4.69182 9.4856 4.61309 9.51818C4.53435 9.55076 4.44997 9.56751 4.36476 9.56746ZM4.36476 6.97287H3.41903V8.91881H4.36509L4.36476 6.97287Z" fill="black"/>
<path d="M4.36476 16.0538H3.41903C3.247 16.0538 3.08202 15.9854 2.96037 15.8638C2.83873 15.7421 2.77039 15.5772 2.77039 15.4051V13.4592C2.77039 13.2872 2.83873 13.1222 2.96037 13.0005C3.08202 12.8789 3.247 12.8105 3.41903 12.8105H4.36509C4.53712 12.8105 4.7021 12.8789 4.82375 13.0005C4.94539 13.1222 5.01373 13.2872 5.01373 13.4592V15.4051C5.01373 15.4903 4.99695 15.5747 4.96433 15.6534C4.93171 15.7321 4.8839 15.8037 4.82363 15.8639C4.76337 15.9241 4.69182 15.9719 4.61309 16.0045C4.53435 16.0371 4.44997 16.0538 4.36476 16.0538ZM4.36476 13.4592H3.41903V15.4051H4.36509L4.36476 13.4592Z" fill="black"/>
<path d="M13.2068 14.7472C12.5031 14.7472 11.8152 14.5385 11.23 14.1475C10.6449 13.7566 10.1888 13.2008 9.91953 12.5507C9.65022 11.9005 9.57976 11.1851 9.71705 10.4949C9.85434 9.80464 10.1932 9.17064 10.6908 8.67302C11.1885 8.1754 11.8225 7.83652 12.5127 7.69923C13.2029 7.56194 13.9183 7.6324 14.5685 7.90171C15.2187 8.17102 15.7744 8.62708 16.1653 9.21221C16.5563 9.79735 16.765 10.4853 16.765 11.189C16.7639 12.1324 16.3887 13.0367 15.7216 13.7038C15.0546 14.3708 14.1502 14.7461 13.2068 14.7472ZM13.2068 8.27951C12.6314 8.27951 12.0689 8.45015 11.5904 8.76985C11.1119 9.08955 10.739 9.54396 10.5188 10.0756C10.2986 10.6072 10.241 11.1923 10.3532 11.7566C10.4655 12.321 10.7426 12.8395 11.1495 13.2464C11.5564 13.6533 12.0748 13.9304 12.6392 14.0426C13.2036 14.1549 13.7886 14.0973 14.3203 13.8771C14.8519 13.6568 15.3063 13.2839 15.626 12.8055C15.9457 12.327 16.1164 11.7645 16.1164 11.189C16.1155 10.4176 15.8087 9.67809 15.2632 9.13263C14.7178 8.58718 13.9782 8.28037 13.2068 8.27951Z" fill="black"/>
<path d="M13.2068 12.9324C12.862 12.9323 12.525 12.8298 12.2384 12.6381C11.9518 12.4464 11.7285 12.1741 11.5967 11.8554C11.4649 11.5368 11.4305 11.1863 11.4979 10.8481C11.5652 10.51 11.7314 10.1994 11.9753 9.95565C12.2191 9.7119 12.5298 9.54594 12.868 9.47874C13.2062 9.41155 13.5567 9.44613 13.8753 9.57813C14.1938 9.71012 14.466 9.9336 14.6576 10.2203C14.8491 10.507 14.9514 10.8441 14.9514 11.1889C14.9508 11.6513 14.7668 12.0946 14.4398 12.4215C14.1127 12.7484 13.6693 12.9322 13.2068 12.9324ZM13.2068 10.094C12.9903 10.0942 12.7787 10.1585 12.5988 10.279C12.4189 10.3994 12.2787 10.5705 12.1959 10.7705C12.1132 10.9706 12.0917 11.1908 12.134 11.4031C12.1764 11.6154 12.2808 11.8104 12.4339 11.9634C12.5871 12.1165 12.7822 12.2207 12.9945 12.2628C13.2069 12.305 13.427 12.2833 13.627 12.2004C13.827 12.1175 13.998 11.9771 14.1183 11.7971C14.2385 11.617 14.3027 11.4054 14.3027 11.1889C14.3024 10.8984 14.1868 10.62 13.9813 10.4147C13.7758 10.2094 13.4973 10.094 13.2068 10.094Z" fill="black"/>
<path d="M13.2068 10.0947C13.1208 10.0947 13.0383 10.0606 12.9774 9.99976C12.9166 9.93893 12.8824 9.85644 12.8824 9.77042V7.95421C12.8824 7.86819 12.9166 7.7857 12.9774 7.72487C13.0383 7.66405 13.1208 7.62988 13.2068 7.62988C13.2928 7.62988 13.3753 7.66405 13.4361 7.72487C13.4969 7.7857 13.5311 7.86819 13.5311 7.95421V9.77042C13.5311 9.85644 13.4969 9.93893 13.4361 9.99976C13.3753 10.0606 13.2928 10.0947 13.2068 10.0947Z" fill="black"/>
<path d="M13.2068 14.7471C13.1208 14.7471 13.0383 14.7129 12.9774 14.6521C12.9166 14.5913 12.8824 14.5088 12.8824 14.4228V12.6066C12.8824 12.5205 12.9166 12.438 12.9774 12.3772C13.0383 12.3164 13.1208 12.2822 13.2068 12.2822C13.2928 12.2822 13.3753 12.3164 13.4361 12.3772C13.4969 12.438 13.5311 12.5205 13.5311 12.6066V14.4228C13.5311 14.5088 13.4969 14.5913 13.4361 14.6521C13.3753 14.7129 13.2928 14.7471 13.2068 14.7471Z" fill="black"/>
<path d="M12.2033 10.51C12.1173 10.51 12.0348 10.4758 11.974 10.415L10.6907 9.13167C10.6316 9.0705 10.5989 8.98857 10.5996 8.90354C10.6004 8.8185 10.6345 8.73716 10.6946 8.67702C10.7547 8.61689 10.8361 8.58278 10.9211 8.58204C11.0061 8.5813 11.0881 8.61399 11.1492 8.67307L12.4326 9.95675C12.4779 10.0021 12.5088 10.0599 12.5213 10.1228C12.5338 10.1857 12.5274 10.2509 12.5029 10.3101C12.4783 10.3694 12.4368 10.42 12.3834 10.4557C12.3301 10.4913 12.2674 10.5104 12.2033 10.5104V10.51Z" fill="black"/>
<path d="M15.4936 13.8004C15.4076 13.8004 15.3251 13.7662 15.2643 13.7054L13.9809 12.4217C13.9219 12.3605 13.8892 12.2786 13.8899 12.1936C13.8906 12.1085 13.9248 12.0272 13.9849 11.9671C14.045 11.9069 14.1264 11.8728 14.2114 11.8721C14.2964 11.8713 14.3784 11.904 14.4395 11.9631L15.7229 13.2465C15.7682 13.2918 15.7991 13.3496 15.8116 13.4125C15.8241 13.4754 15.8177 13.5406 15.7932 13.5999C15.7686 13.6591 15.7271 13.7098 15.6737 13.7454C15.6204 13.781 15.5577 13.8001 15.4936 13.8001V13.8004Z" fill="black"/>
<path d="M11.7875 11.5139H9.9713C9.88528 11.5139 9.80279 11.4797 9.74197 11.4189C9.68114 11.3581 9.64697 11.2756 9.64697 11.1896C9.64697 11.1035 9.68114 11.021 9.74197 10.9602C9.80279 10.8994 9.88528 10.8652 9.9713 10.8652H11.7875C11.8735 10.8652 11.956 10.8994 12.0169 10.9602C12.0777 11.021 12.1119 11.1035 12.1119 11.1896C12.1119 11.2756 12.0777 11.3581 12.0169 11.4189C11.956 11.4797 11.8735 11.5139 11.7875 11.5139Z" fill="black"/>
<path d="M16.4407 11.5139H14.6271C14.541 11.5139 14.4586 11.4797 14.3977 11.4189C14.3369 11.3581 14.3027 11.2756 14.3027 11.1896C14.3027 11.1035 14.3369 11.021 14.3977 10.9602C14.4586 10.8994 14.541 10.8652 14.6271 10.8652H16.4433C16.5293 10.8652 16.6118 10.8994 16.6726 10.9602C16.7334 11.021 16.7676 11.1035 16.7676 11.1896C16.7676 11.2756 16.7334 11.3581 16.6726 11.4189C16.6118 11.4797 16.5293 11.5139 16.4433 11.5139H16.4407Z" fill="black"/>
<path d="M10.92 13.7999C10.8558 13.7999 10.7931 13.7808 10.7398 13.7452C10.6865 13.7096 10.6449 13.6589 10.6204 13.5997C10.5958 13.5404 10.5894 13.4752 10.6019 13.4123C10.6144 13.3494 10.6453 13.2916 10.6907 13.2463L11.974 11.9629C12.0354 11.9052 12.1169 11.8737 12.2011 11.875C12.2853 11.8763 12.3657 11.9104 12.4253 11.9699C12.4849 12.0295 12.519 12.1098 12.5203 12.1941C12.5217 12.2783 12.4902 12.3597 12.4326 12.4212L11.1493 13.7045C11.1192 13.7347 11.0834 13.7587 11.0441 13.775C11.0048 13.7914 10.9626 13.7998 10.92 13.7999Z" fill="black"/>
<path d="M14.2102 10.51C14.1461 10.51 14.0834 10.491 14.0301 10.4554C13.9768 10.4197 13.9352 10.3691 13.9107 10.3098C13.8861 10.2506 13.8797 10.1854 13.8922 10.1225C13.9047 10.0596 13.9356 10.0018 13.9809 9.95642L15.2643 8.67307C15.3255 8.61399 15.4074 8.5813 15.4924 8.58204C15.5775 8.58278 15.6588 8.61689 15.7189 8.67702C15.7791 8.73716 15.8132 8.8185 15.8139 8.90354C15.8147 8.98857 15.782 9.0705 15.7229 9.13167L14.4395 10.415C14.3787 10.4758 14.2962 10.51 14.2102 10.51Z" fill="black"/>
</svg>
