<svg width="24" height="24" viewBox="0 0 24 24" fill="none" xmlns="http://www.w3.org/2000/svg">
<path d="M21.7295 21.4054H2.27006C1.84014 21.4049 1.42797 21.2339 1.12397 20.9299C0.819967 20.6259 0.648952 20.2137 0.648438 19.7838V2.59458C0.648952 2.16466 0.819967 1.75249 1.12397 1.44849C1.42797 1.14449 1.84014 0.973476 2.27006 0.972961H21.7295C22.1594 0.973476 22.5716 1.14449 22.8756 1.44849C23.1796 1.75249 23.3506 2.16466 23.3511 2.59458V19.7838C23.3506 20.2137 23.1796 20.6259 22.8756 20.9299C22.5716 21.2339 22.1594 21.4049 21.7295 21.4054ZM2.27006 1.62161C2.01201 1.62161 1.76453 1.72412 1.58206 1.90659C1.3996 2.08906 1.29709 2.33653 1.29709 2.59458V19.7838C1.29709 20.0418 1.3996 20.2893 1.58206 20.4718C1.76453 20.6542 2.01201 20.7568 2.27006 20.7568H21.7295C21.9876 20.7568 22.2351 20.6542 22.4175 20.4718C22.6 20.2893 22.7025 20.0418 22.7025 19.7838V2.59458C22.7025 2.33653 22.6 2.08906 22.4175 1.90659C22.2351 1.72412 21.9876 1.62161 21.7295 1.62161H2.27006Z" fill="#862633"/>
<path d="M3.89171 13.4595C3.80569 13.4595 3.7232 13.4253 3.66238 13.3645C3.60155 13.3036 3.56738 13.2211 3.56738 13.1351V9.24324C3.56738 9.15722 3.60155 9.07473 3.66238 9.01391C3.7232 8.95308 3.80569 8.91891 3.89171 8.91891C3.97772 8.91891 4.06022 8.95308 4.12104 9.01391C4.18186 9.07473 4.21603 9.15722 4.21603 9.24324V13.1351C4.21603 13.2211 4.18186 13.3036 4.12104 13.3645C4.06022 13.4253 3.97772 13.4595 3.89171 13.4595Z" fill="#862633"/>
<path d="M20.1079 18.4865H3.89171C3.80569 18.4865 3.7232 18.4523 3.66238 18.3915C3.60155 18.3307 3.56738 18.2482 3.56738 18.1622V15.7298C3.56738 15.6437 3.60155 15.5612 3.66238 15.5004C3.7232 15.4396 3.80569 15.4054 3.89171 15.4054C3.97772 15.4054 4.06022 15.4396 4.12104 15.5004C4.18186 15.5612 4.21603 15.6437 4.21603 15.7298V17.8379H19.7836V4.54056H4.21603V6.64867C4.21603 6.73468 4.18186 6.81718 4.12104 6.878C4.06022 6.93882 3.97772 6.97299 3.89171 6.97299C3.80569 6.97299 3.7232 6.93882 3.66238 6.878C3.60155 6.81718 3.56738 6.73468 3.56738 6.64867V4.21623C3.56738 4.13022 3.60155 4.04772 3.66238 3.9869C3.7232 3.92608 3.80569 3.89191 3.89171 3.89191H20.1079C20.1939 3.89191 20.2764 3.92608 20.3373 3.9869C20.3981 4.04772 20.4323 4.13022 20.4323 4.21623V18.1622C20.4323 18.2482 20.3981 18.3307 20.3373 18.3915C20.2764 18.4523 20.1939 18.4865 20.1079 18.4865Z" fill="#862633"/>
<path d="M6.81101 23.027H4.21641C4.1304 23.027 4.0479 22.9928 3.98708 22.932C3.92626 22.8712 3.89209 22.7887 3.89209 22.7027V21.0811C3.89209 20.9951 3.92626 20.9126 3.98708 20.8517C4.0479 20.7909 4.1304 20.7567 4.21641 20.7567H6.81101C6.89703 20.7567 6.97952 20.7909 7.04034 20.8517C7.10116 20.9126 7.13533 20.9951 7.13533 21.0811V22.7027C7.13533 22.7887 7.10116 22.8712 7.04034 22.932C6.97952 22.9928 6.89703 23.027 6.81101 23.027ZM4.54074 22.3784H6.48668V21.4054H4.54074V22.3784Z" fill="#862633"/>
<path d="M19.7837 23.027H17.1891C17.1031 23.027 17.0206 22.9928 16.9597 22.932C16.8989 22.8712 16.8647 22.7887 16.8647 22.7027V21.0811C16.8647 20.9951 16.8989 20.9126 16.9597 20.8517C17.0206 20.7909 17.1031 20.7567 17.1891 20.7567H19.7837C19.8697 20.7567 19.9522 20.7909 20.013 20.8517C20.0738 20.9126 20.108 20.9951 20.108 21.0811V22.7027C20.108 22.7887 20.0738 22.8712 20.013 22.932C19.9522 22.9928 19.8697 23.027 19.7837 23.027ZM17.5134 22.3784H19.4594V21.4054H17.5134V22.3784Z" fill="#862633"/>
<path d="M4.36488 9.56755H3.41916C3.24712 9.56755 3.08214 9.49921 2.96049 9.37757C2.83885 9.25592 2.77051 9.09094 2.77051 8.91891V6.97296C2.77051 6.80093 2.83885 6.63594 2.96049 6.5143C3.08214 6.39265 3.24712 6.32431 3.41916 6.32431H4.36521C4.53724 6.32431 4.70223 6.39265 4.82387 6.5143C4.94552 6.63594 5.01386 6.80093 5.01386 6.97296V8.91891C5.01386 9.00411 4.99707 9.08849 4.96445 9.16721C4.93183 9.24593 4.88402 9.31745 4.82376 9.37768C4.76349 9.43792 4.69194 9.48569 4.61321 9.51827C4.53447 9.55085 4.45009 9.5676 4.36488 9.56755ZM4.36488 6.97296H3.41916V8.91891H4.36521L4.36488 6.97296Z" fill="#862633"/>
<path d="M4.36488 16.054H3.41916C3.24712 16.054 3.08214 15.9857 2.96049 15.8641C2.83885 15.7424 2.77051 15.5774 2.77051 15.4054V13.4595C2.77051 13.2874 2.83885 13.1224 2.96049 13.0008C3.08214 12.8792 3.24712 12.8108 3.41916 12.8108H4.36521C4.53724 12.8108 4.70223 12.8792 4.82387 13.0008C4.94552 13.1224 5.01386 13.2874 5.01386 13.4595V15.4054C5.01386 15.4906 4.99707 15.575 4.96445 15.6537C4.93183 15.7324 4.88402 15.8039 4.82376 15.8642C4.76349 15.9244 4.69194 15.9722 4.61321 16.0048C4.53447 16.0373 4.45009 16.0541 4.36488 16.054ZM4.36488 13.4595H3.41916V15.4054H4.36521L4.36488 13.4595Z" fill="#862633"/>
<path d="M13.2066 14.7473C12.5029 14.7473 11.8149 14.5387 11.2298 14.1477C10.6447 13.7567 10.1886 13.201 9.91929 12.5508C9.64998 11.9007 9.57952 11.1852 9.71681 10.495C9.8541 9.8048 10.193 9.17079 10.6906 8.67317C11.1882 8.17556 11.8222 7.83668 12.5124 7.69938C13.2027 7.56209 13.9181 7.63255 14.5683 7.90186C15.2184 8.17117 15.7741 8.62723 16.1651 9.21237C16.5561 9.7975 16.7648 10.4854 16.7648 11.1892C16.7636 12.1325 16.3884 13.0369 15.7214 13.7039C15.0543 14.371 14.1499 14.7462 13.2066 14.7473ZM13.2066 8.27966C12.6312 8.27966 12.0686 8.4503 11.5902 8.77C11.1117 9.0897 10.7388 9.54411 10.5186 10.0758C10.2983 10.6074 10.2407 11.1924 10.353 11.7568C10.4653 12.3212 10.7424 12.8396 11.1493 13.2465C11.5562 13.6534 12.0746 13.9305 12.639 14.0428C13.2034 14.155 13.7884 14.0974 14.32 13.8772C14.8517 13.657 15.3061 13.2841 15.6258 12.8056C15.9455 12.3271 16.1161 11.7646 16.1161 11.1892C16.1153 10.4178 15.8084 9.67824 15.263 9.13279C14.7175 8.58733 13.978 8.28052 13.2066 8.27966Z" fill="#862633"/>
<path d="M13.2069 12.9328C12.8621 12.9326 12.5251 12.8301 12.2385 12.6384C11.9519 12.4467 11.7286 12.1744 11.5968 11.8557C11.465 11.5371 11.4306 11.1866 11.498 10.8484C11.5654 10.5103 11.7315 10.1997 11.9754 9.95595C12.2193 9.71221 12.5299 9.54625 12.8681 9.47905C13.2063 9.41185 13.5568 9.44644 13.8754 9.57843C14.1939 9.71043 14.4662 9.93391 14.6577 10.2206C14.8492 10.5073 14.9515 10.8444 14.9515 11.1892C14.951 11.6516 14.767 12.095 14.4399 12.4218C14.1128 12.7487 13.6694 12.9325 13.2069 12.9328ZM13.2069 10.0943C12.9904 10.0945 12.7788 10.1588 12.5989 10.2793C12.419 10.3997 12.2788 10.5708 12.1961 10.7709C12.1133 10.9709 12.0918 11.1911 12.1342 11.4034C12.1765 11.6157 12.2809 11.8107 12.434 11.9638C12.5872 12.1168 12.7823 12.221 12.9947 12.2631C13.207 12.3053 13.4271 12.2836 13.6271 12.2007C13.8272 12.1178 13.9981 11.9774 14.1184 11.7974C14.2386 11.6174 14.3028 11.4057 14.3028 11.1892C14.3025 10.8987 14.1869 10.6203 13.9814 10.415C13.7759 10.2097 13.4974 10.0944 13.2069 10.0943Z" fill="#862633"/>
<path d="M13.2067 10.0943C13.1206 10.0943 13.0381 10.0601 12.9773 9.99927C12.9165 9.93844 12.8823 9.85595 12.8823 9.76994V7.95372C12.8823 7.8677 12.9165 7.78521 12.9773 7.72439C13.0381 7.66356 13.1206 7.62939 13.2067 7.62939C13.2927 7.62939 13.3752 7.66356 13.436 7.72439C13.4968 7.78521 13.531 7.8677 13.531 7.95372V9.76994C13.531 9.85595 13.4968 9.93844 13.436 9.99927C13.3752 10.0601 13.2927 10.0943 13.2067 10.0943Z" fill="#862633"/>
<path d="M13.2067 14.7473C13.1206 14.7473 13.0381 14.7132 12.9773 14.6523C12.9165 14.5915 12.8823 14.509 12.8823 14.423V12.6068C12.8823 12.5208 12.9165 12.4383 12.9773 12.3775C13.0381 12.3166 13.1206 12.2825 13.2067 12.2825C13.2927 12.2825 13.3752 12.3166 13.436 12.3775C13.4968 12.4383 13.531 12.5208 13.531 12.6068V14.423C13.531 14.509 13.4968 14.5915 13.436 14.6523C13.3752 14.7132 13.2927 14.7473 13.2067 14.7473Z" fill="#862633"/>
<path d="M12.2033 10.51C12.1173 10.51 12.0348 10.4758 11.974 10.415L10.6907 9.13167C10.6316 9.0705 10.5989 8.98857 10.5996 8.90354C10.6004 8.8185 10.6345 8.73716 10.6946 8.67702C10.7547 8.61689 10.8361 8.58278 10.9211 8.58204C11.0061 8.5813 11.0881 8.61399 11.1492 8.67307L12.4326 9.95675C12.4779 10.0021 12.5088 10.0599 12.5213 10.1228C12.5338 10.1857 12.5274 10.2509 12.5029 10.3101C12.4783 10.3694 12.4368 10.42 12.3834 10.4557C12.3301 10.4913 12.2674 10.5104 12.2033 10.5104V10.51Z" fill="#862633"/>
<path d="M15.4938 13.8003C15.4078 13.8003 15.3253 13.7661 15.2645 13.7053L13.9812 12.4216C13.9221 12.3604 13.8894 12.2785 13.8901 12.1935C13.8909 12.1084 13.925 12.0271 13.9851 11.967C14.0453 11.9068 14.1266 11.8727 14.2116 11.872C14.2967 11.8713 14.3786 11.9039 14.4398 11.963L15.7231 13.2464C15.7685 13.2917 15.7993 13.3495 15.8119 13.4124C15.8244 13.4753 15.8179 13.5405 15.7934 13.5998C15.7689 13.659 15.7273 13.7097 15.674 13.7453C15.6207 13.7809 15.558 13.8 15.4938 13.8V13.8003Z" fill="#862633"/>
<path d="M11.7875 11.5135H9.9713C9.88528 11.5135 9.80279 11.4793 9.74197 11.4185C9.68114 11.3577 9.64697 11.2752 9.64697 11.1892C9.64697 11.1032 9.68114 11.0207 9.74197 10.9599C9.80279 10.899 9.88528 10.8649 9.9713 10.8649H11.7875C11.8735 10.8649 11.956 10.899 12.0169 10.9599C12.0777 11.0207 12.1119 11.1032 12.1119 11.1892C12.1119 11.2752 12.0777 11.3577 12.0169 11.4185C11.956 11.4793 11.8735 11.5135 11.7875 11.5135Z" fill="#862633"/>
<path d="M16.4407 11.5135H14.6271C14.541 11.5135 14.4586 11.4793 14.3977 11.4185C14.3369 11.3577 14.3027 11.2752 14.3027 11.1892C14.3027 11.1032 14.3369 11.0207 14.3977 10.9599C14.4586 10.899 14.541 10.8649 14.6271 10.8649H16.4433C16.5293 10.8649 16.6118 10.899 16.6726 10.9599C16.7334 11.0207 16.7676 11.1032 16.7676 11.1892C16.7676 11.2752 16.7334 11.3577 16.6726 11.4185C16.6118 11.4793 16.5293 11.5135 16.4433 11.5135H16.4407Z" fill="#862633"/>
<path d="M10.92 13.8003C10.8558 13.8003 10.7931 13.7813 10.7398 13.7457C10.6865 13.71 10.6449 13.6594 10.6204 13.6001C10.5958 13.5409 10.5894 13.4757 10.6019 13.4128C10.6144 13.3499 10.6453 13.2921 10.6907 13.2467L11.974 11.9634C12.0354 11.9057 12.1169 11.8742 12.2011 11.8755C12.2853 11.8768 12.3657 11.9108 12.4253 11.9704C12.4849 12.0299 12.519 12.1103 12.5203 12.1945C12.5217 12.2787 12.4902 12.3602 12.4326 12.4216L11.1493 13.705C11.1192 13.7352 11.0834 13.7591 11.0441 13.7755C11.0048 13.7918 10.9626 13.8003 10.92 13.8003Z" fill="#862633"/>
<path d="M14.2105 10.51C14.1463 10.51 14.0837 10.491 14.0303 10.4554C13.977 10.4197 13.9355 10.3691 13.9109 10.3098C13.8864 10.2506 13.88 10.1854 13.8925 10.1225C13.905 10.0596 13.9358 10.0018 13.9812 9.95642L15.2645 8.67307C15.3257 8.61399 15.4076 8.5813 15.4927 8.58204C15.5777 8.58278 15.659 8.61689 15.7192 8.67702C15.7793 8.73716 15.8134 8.8185 15.8142 8.90354C15.8149 8.98857 15.7822 9.0705 15.7231 9.13167L14.4398 10.415C14.379 10.4758 14.2965 10.51 14.2105 10.51Z" fill="#862633"/>
</svg>
