<svg width="20" height="20" viewBox="0 0 20 20" fill="none" xmlns="http://www.w3.org/2000/svg">
<path d="M7.77775 4.44444V5H6.66664C6.35983 5 6.11108 5.24875 6.11108 5.55555C6.11108 5.86236 6.35983 6.11111 6.66664 6.11111H7.2222V13.8889H6.66664C6.35983 13.8889 6.11108 14.1376 6.11108 14.4444C6.11108 14.7512 6.35983 15 6.66664 15H7.77775V15.5556C7.77775 15.8624 8.0265 16.1111 8.33331 16.1111C8.64011 16.1111 8.88886 15.8624 8.88886 15.5556V15H9.99997V15.5556C9.99997 15.8624 10.2487 16.1111 10.5555 16.1111C10.8623 16.1111 11.1111 15.8624 11.1111 15.5556V15C12.6406 15.0044 13.8841 13.7681 13.8885 12.2385C13.8911 11.3551 13.4721 10.5235 12.7605 10C13.9925 9.09347 14.2562 7.35986 13.3496 6.12798C12.826 5.41645 11.9944 4.99743 11.1111 5V4.44444C11.1111 4.13764 10.8623 3.88889 10.5555 3.88889C10.2487 3.88889 9.99997 4.13764 9.99997 4.44444V5H8.88886V4.44444C8.88886 4.13764 8.64011 3.88889 8.33331 3.88889C8.0265 3.88889 7.77775 4.13764 7.77775 4.44444ZM8.33331 6.11111H11.1111C12.0316 6.11111 12.7778 6.85729 12.7778 7.77777C12.7778 8.69826 12.0316 9.44444 11.1111 9.44444H8.33331V6.11111ZM8.33331 10.5556H11.1111C12.0316 10.5556 12.7778 11.3017 12.7778 12.2222C12.7778 13.1427 12.0316 13.8889 11.1111 13.8889H8.33331V10.5556Z" fill="#862633"/>
<path d="M9.25386 17.1856C8.75213 17.1339 8.2572 17.0298 7.7772 16.875C7.5031 16.8024 7.21838 16.9479 7.1165 17.2126C7.00629 17.499 7.14914 17.8204 7.43553 17.9306C7.98977 18.1093 8.56122 18.2294 9.14053 18.2889C9.159 18.2911 9.17754 18.2922 9.19608 18.2922L9.19831 18.2967C9.50511 18.312 9.76629 18.0757 9.78164 17.7689C9.79699 17.4621 9.56067 17.2009 9.25386 17.1856Z" fill="#862633"/>
<path d="M16.2777 5.96056C16.2771 5.96056 16.2765 5.96042 16.2758 5.96042C16.2753 5.96042 16.2749 5.96056 16.2744 5.96056H16.2777Z" fill="#862633"/>
<path d="M16.5889 7.03723C16.796 7.49688 16.9542 7.97716 17.0606 8.47001C17.1157 8.72556 17.3416 8.90806 17.6031 8.90834C17.6428 8.9082 17.6824 8.9039 17.7212 8.89556C18.0208 8.8307 18.2113 8.53529 18.1467 8.23556C18.0236 7.6664 17.8411 7.11167 17.6023 6.58056C17.4762 6.30077 17.1471 6.17612 16.8673 6.30223C16.5874 6.42834 16.4628 6.75744 16.5889 7.03723Z" fill="#862633"/>
<path d="M14.815 4.61556C15.191 4.95216 15.531 5.32695 15.8294 5.7339C15.9338 5.87605 16.0996 5.96001 16.2758 5.96043C16.3932 5.96008 16.5076 5.92258 16.6023 5.85313C16.8498 5.67181 16.9035 5.32417 16.7221 5.07667C16.3788 4.60792 15.9878 4.17598 15.5555 3.78779C15.5481 3.78077 15.5405 3.77404 15.5328 3.76744C15.2986 3.56924 14.948 3.59834 14.7498 3.83258C14.5516 4.06681 14.5807 4.4173 14.815 4.61556Z" fill="#862633"/>
<path d="M14.8411 15.3667C14.4659 15.7048 14.0562 16.0027 13.6189 16.2556C13.4479 16.3548 13.3425 16.5374 13.3421 16.7351C13.3415 17.0419 13.5899 17.2911 13.8967 17.2917L13.8945 17.29C13.994 17.2918 14.0921 17.2665 14.1784 17.2167C14.6819 16.925 15.1536 16.5815 15.5856 16.1917C15.8134 15.9861 15.8314 15.6348 15.6259 15.4069C15.4203 15.1791 15.0689 15.1611 14.8411 15.3667Z" fill="#862633"/>
<path d="M12.2394 16.8706C11.7601 17.0264 11.2657 17.1316 10.7644 17.1844C10.4846 17.2151 10.272 17.4502 10.2694 17.7317C10.2667 18.0385 10.5131 18.2894 10.82 18.2922V18.2906C10.8389 18.2906 10.8583 18.2894 10.88 18.2883C11.4589 18.2275 12.0298 18.1061 12.5833 17.9261C12.598 17.9219 12.6126 17.9172 12.627 17.9119C12.9146 17.8049 13.0609 17.485 12.9539 17.1974C12.8469 16.9099 12.527 16.7635 12.2394 16.8706Z" fill="#862633"/>
<path d="M17.2222 10C17.2221 10.5046 17.1698 11.0078 17.0661 11.5017C17.0661 11.5017 17.0661 11.5017 17.0661 11.5017C17.0028 11.8019 17.1948 12.0967 17.495 12.16C17.5328 12.1677 17.5714 12.1716 17.61 12.1717H17.6111C17.8731 12.171 18.0991 11.9874 18.1533 11.7311C18.2731 11.1619 18.3334 10.5817 18.3333 10V9.96777C18.3333 9.96416 18.3332 9.96062 18.3332 9.95708C18.3258 9.6577 18.0771 9.42097 17.7778 9.42833C17.468 9.43618 17.2212 9.69013 17.2222 10Z" fill="#862633"/>
<path d="M17.3345 12.655C17.0542 12.53 16.7256 12.6558 16.6006 12.9361C16.395 13.397 16.1417 13.8351 15.845 14.2433C15.7761 14.3381 15.7389 14.4523 15.7388 14.5695C15.7386 14.8763 15.9871 15.1253 16.2939 15.1255C16.472 15.1256 16.6393 15.0403 16.7439 14.8961C17.0862 14.4255 17.3783 13.9203 17.6156 13.3889C17.7406 13.1086 17.6147 12.78 17.3345 12.655Z" fill="#862633"/>
<path d="M6.39665 16.265C5.9595 16.0119 5.54991 15.714 5.17443 15.3761C5.17026 15.3722 5.16596 15.3684 5.16165 15.3646C4.93019 15.1632 4.57929 15.1876 4.37783 15.419C4.17637 15.6505 4.20075 16.0014 4.43221 16.2028C4.86519 16.5915 5.33734 16.934 5.84109 17.2251C5.92547 17.274 6.0213 17.2997 6.11887 17.2995V17.3017C6.31734 17.3017 6.50075 17.1958 6.59998 17.024C6.75339 16.7582 6.66234 16.4184 6.39665 16.265Z" fill="#862633"/>
<path d="M2.39335 12.1889C2.43259 12.189 2.47169 12.1848 2.51009 12.1766C2.81016 12.1125 3.00141 11.8172 2.93724 11.5172C2.8321 11.0241 2.7787 10.5214 2.7778 10.0172C2.7778 9.71042 2.52905 9.46167 2.22224 9.46167C1.91544 9.46167 1.66669 9.71042 1.66669 10.0172C1.66752 10.5989 1.72919 11.1789 1.85058 11.7478C1.90509 12.0041 2.13127 12.1875 2.39335 12.1878V12.1889Z" fill="#862633"/>
<path d="M4.04247 15.0302C4.29018 14.8492 4.34428 14.5016 4.16324 14.2539C3.86574 13.8467 3.61178 13.4095 3.40546 12.9494C3.27803 12.6807 2.96157 12.5599 2.68747 12.6756C2.40476 12.7948 2.27227 13.1207 2.39157 13.4033C2.62949 13.9345 2.92233 14.4393 3.26546 14.9094C3.37025 15.0528 3.53727 15.1375 3.7149 15.1372C3.83275 15.1371 3.9474 15.0997 4.04247 15.0302Z" fill="#862633"/>
<path d="M2.27386 8.94333C2.31136 8.95103 2.34949 8.95492 2.38775 8.95499H2.38886C2.65122 8.9543 2.87733 8.77013 2.93108 8.51333C3.03456 8.01999 3.18949 7.53881 3.39331 7.07777C3.39532 7.07333 3.39733 7.06888 3.39928 7.06437C3.51997 6.78228 3.38914 6.45576 3.10713 6.33506C2.82504 6.21437 2.49851 6.3452 2.37782 6.62728C2.14206 7.15999 1.96296 7.71603 1.84338 8.28617C1.78067 8.58652 1.97345 8.88076 2.27386 8.94333Z" fill="#862633"/>
<path d="M12.2083 3.12055C12.6884 3.27506 13.1508 3.47992 13.5878 3.73166C13.6722 3.78041 13.7681 3.8059 13.8656 3.80555L13.8639 3.80388C14.0631 3.80423 14.2472 3.69791 14.3465 3.52513C14.4995 3.25909 14.4077 2.91951 14.1417 2.76666C13.6365 2.47708 13.1025 2.24096 12.5483 2.06221C12.2561 1.96833 11.9431 2.12916 11.8492 2.42138C11.7553 2.7136 11.9161 3.02666 12.2083 3.12055Z" fill="#862633"/>
<path d="M9.16276 2.82221C9.18408 2.82235 9.20547 2.82124 9.22665 2.81888C9.72832 2.76631 10.2341 2.76478 10.7361 2.81443C11.0414 2.84513 11.3137 2.62249 11.3444 2.31721C11.3751 2.01193 11.1525 1.73957 10.8472 1.70888C10.2685 1.65131 9.68547 1.65318 9.10721 1.71443C8.82741 1.74513 8.61478 1.9802 8.61221 2.26165C8.60943 2.56846 8.85596 2.81943 9.16276 2.82221Z" fill="#862633"/>
<path d="M3.69554 6C3.87387 6.00028 4.04144 5.91493 4.1461 5.77055C4.442 5.36166 4.77971 4.98486 5.15387 4.64611C5.15457 4.64548 5.15526 4.64486 5.15596 4.64423C5.38283 4.43764 5.39922 4.08625 5.19262 3.85944C4.98603 3.63257 4.63464 3.61618 4.40783 3.82278C3.97665 4.21333 3.58735 4.64771 3.24616 5.11889C3.17783 5.2134 3.14096 5.32708 3.14075 5.44375C3.14026 5.75055 3.38866 5.99958 3.69554 6Z" fill="#862633"/>
<path d="M6.09279 3.82943C6.19154 3.82971 6.28856 3.8036 6.3739 3.75388C6.80995 3.50027 7.27134 3.29305 7.75057 3.13555C7.75495 3.13416 7.75939 3.1327 7.76377 3.13124C8.05404 3.03187 8.20884 2.71596 8.10946 2.42568C8.01009 2.13541 7.69418 1.98062 7.4039 2.07999C6.85078 2.26152 6.31821 2.50062 5.81502 2.79332C5.64397 2.89256 5.53856 3.0752 5.53821 3.27291C5.53765 3.57971 5.78592 3.82888 6.09279 3.82943Z" fill="#862633"/>
<path d="M10 20C15.5202 19.9935 19.9935 15.5202 20 10C20 4.47715 15.5228 0 10 0C4.47715 0 0 4.47715 0 10C0 15.5228 4.47715 20 10 20ZM10 1.11111C14.9068 1.11694 18.8831 5.09319 18.8889 10C18.8889 14.9092 14.9092 18.8889 10 18.8889C5.09083 18.8889 1.11111 14.9092 1.11111 10C1.11111 5.09083 5.09076 1.11111 10 1.11111Z" fill="#862633"/>
</svg>
