<svg width="21" height="21" viewBox="0 0 21 21" fill="none" xmlns="http://www.w3.org/2000/svg">
<path d="M19.5008 5.10333C18.0666 2.70293 15.7835 1.00476 13.0721 0.321544C10.3606 -0.361674 7.54549 0.051854 5.14509 1.48608C3.94979 2.20026 2.91308 3.14299 2.09259 4.25336L1.61887 2.4286L0.426575 2.73812L1.44682 6.66838L5.37712 5.64813L5.06761 4.4558L3.09749 4.96721C3.81922 3.99558 4.72864 3.1698 5.7769 2.54349C7.89484 1.27811 10.3788 0.913196 12.7711 1.51602C15.1635 2.11884 17.1779 3.6172 18.4433 5.7351C19.3045 7.17652 19.7571 8.82086 19.7522 10.4903L20.9841 10.4939C20.9896 8.60081 20.4767 6.73675 19.5008 5.10333Z" fill="#862633"/>
<path d="M20.5518 18.2692L19.5344 14.3382L15.6034 15.3556L15.912 16.5481L17.8825 16.0381C17.1601 17.0092 16.2501 17.8343 15.2014 18.4599C13.0825 19.7237 10.5984 20.0869 8.20641 19.4822C5.81451 18.8776 3.80115 17.3778 2.53733 15.2589C1.67718 13.8169 1.22579 12.1722 1.23191 10.5028L6.96739e-05 10.4983C-0.00686968 12.3914 0.504671 14.2559 1.47938 15.89C2.91181 18.2914 5.19362 19.9913 7.90457 20.6765C8.76086 20.893 9.62737 20.9999 10.4881 20.9999C12.3526 20.9999 14.1895 20.4978 15.8324 19.5178C17.0282 18.8045 18.0656 17.8625 18.8869 16.7527L19.3593 18.5778L20.5518 18.2692Z" fill="#862633"/>
<path d="M10.0576 10.9712V12.3837H11.2126C11.6021 12.3837 11.9189 12.0669 11.9189 11.6775C11.9189 11.288 11.6021 10.9712 11.2126 10.9712H10.0576Z" fill="#862633"/>
<path d="M10.4946 4.30042C7.07113 4.30042 4.28595 7.0856 4.28595 10.509C4.28595 13.9325 7.07113 16.7177 10.4946 16.7177C13.918 16.7177 16.7032 13.9325 16.7032 10.509C16.7032 7.0856 13.918 4.30042 10.4946 4.30042ZM11.2127 13.6155H11.1108V14.3989H9.87894V13.6155H8.08674V12.3837H8.82581V8.5781H8.08674V7.34626H9.87894V6.56293H11.1108V7.35936C12.0094 7.46579 12.7089 8.23187 12.7089 9.1587C12.7089 9.52641 12.5985 9.86869 12.4096 10.1547C12.8604 10.5099 13.1508 11.0602 13.1508 11.6774C13.1508 12.7461 12.2814 13.6155 11.2127 13.6155Z" fill="#862633"/>
<path d="M11.477 9.15873C11.477 8.83858 11.2166 8.57812 10.8964 8.57812H10.0576V9.73934H10.8964C11.2166 9.7393 11.477 9.47884 11.477 9.15873Z" fill="#862633"/>
</svg>
