<svg width="25" height="29" viewBox="0 0 25 29" fill="none" xmlns="http://www.w3.org/2000/svg">
<path d="M7.44102 8.20643V6.50875H12.6777C14.4277 6.50875 15.9944 7.64565 16.5763 9.33783C16.777 9.92159 17.3754 9.91078 17.356 9.9041C17.706 9.9041 18.018 9.67784 18.1352 9.33925C19.202 6.25425 16.9236 2.54752 12.6777 2.54752H7.44113V0.849847C7.44113 0.180408 6.71903 -0.225703 6.16954 0.134285L0.381618 3.92573C-0.135135 4.26416 -0.125543 5.04486 0.401022 5.36914L6.18889 8.93427C6.7391 9.27332 7.44102 8.86528 7.44102 8.20643Z" fill="#842933"/>
<path d="M24.599 22.9328L18.8112 19.3676C18.2609 19.0286 17.5589 19.4366 17.5589 20.0955V21.7932H12.3223C10.5723 21.7932 9.0056 20.6563 8.42374 18.9641C8.22303 18.3803 7.62458 18.3911 7.64404 18.3978C7.29404 18.3978 6.98197 18.6241 6.86483 18.9627C5.79797 22.0476 8.07645 25.7544 12.3223 25.7544H17.5589V27.4521C17.5589 28.1215 18.281 28.5276 18.8305 28.1676L24.6183 24.3762C25.1351 24.0377 25.1255 23.2571 24.599 22.9328Z" fill="#842933"/>
<path d="M13.2281 12.2854C13.2281 12.2854 13.2337 12.2912 13.2453 12.3013L13.2281 12.2854Z" fill="#842933"/>
<path fill-rule="evenodd" clip-rule="evenodd" d="M12.2797 20.4824C11.2312 20.4824 10.2927 19.8173 9.9444 18.8274C9.16914 16.6241 6.05705 16.6155 5.27563 18.8232C4.72865 20.369 4.827 22.0785 5.51591 23.5849C0.784677 19.9732 -0.361066 13.5159 2.48191 8.57147L5.44745 10.3566C7.09614 11.349 9.19798 10.1537 9.19798 8.22634H12.7749C13.8234 8.22634 14.7619 8.89148 15.1102 9.88143C15.8854 12.0847 18.9975 12.0933 19.7789 9.88562C20.3181 8.36194 20.2302 6.67919 19.5678 5.18869C24.1821 8.77824 25.3633 15.1705 22.5311 20.1123L19.6071 18.3522C17.9749 17.3697 15.8566 18.5416 15.8566 20.4824H12.2797ZM11.3746 16.1495C10.993 15.8991 10.4814 16.0064 10.2319 16.3891C9.98226 16.7719 10.0892 17.2851 10.4708 17.5355C10.9238 17.8327 11.2796 17.975 11.6744 18.0391V18.4949C11.6744 18.9522 12.044 19.323 12.4999 19.323C12.9558 19.323 13.3253 18.9522 13.3253 18.4949V17.9263C15.2921 17.177 15.5399 14.3066 13.3778 13.5398C12.8517 13.3533 12.2719 13.1295 11.9605 12.8845C11.8692 12.8126 11.9094 12.3594 12.2203 12.2654C12.7289 12.1117 13.0576 12.3521 13.11 12.3942L13.1741 12.4535C13.5093 12.7635 14.0315 12.7422 14.3405 12.4061C14.6495 12.0698 14.6284 11.546 14.2933 11.2359L14.2188 11.167C14.0392 11.0008 13.7282 10.8011 13.3252 10.6772V10.2137C13.3252 9.75632 12.9557 9.38557 12.4998 9.38557C12.0439 9.38557 11.6743 9.75632 11.6743 10.2137V10.7034C10.1589 11.2229 9.79619 13.2864 10.9416 14.1877C11.4397 14.5796 12.1424 14.8585 12.8276 15.1014C13.2367 15.2465 13.2784 15.5408 13.2413 15.7622C13.2 16.0087 12.9884 16.4269 12.4574 16.4303C11.9071 16.4337 11.7768 16.4134 11.3746 16.1495Z" fill="#842933"/>
</svg>
