<svg width="28" height="17" viewBox="0 0 28 17" fill="none" xmlns="http://www.w3.org/2000/svg">
<path fill-rule="evenodd" clip-rule="evenodd" d="M19 12.3C21.3748 12.3 23.3 10.3748 23.3 8C23.3 5.62518 21.3748 3.7 19 3.7C16.6252 3.7 14.7 5.62518 14.7 8C14.7 10.3748 16.6252 12.3 19 12.3ZM19 13C21.7614 13 24 10.7614 24 8C24 5.23858 21.7614 3 19 3C16.2386 3 14 5.23858 14 8C14 10.7614 16.2386 13 19 13Z" fill="#862633"/>
<path d="M26.7131 0H1.28691C0.577336 0 0 0.577336 0 1.28702V5.14615C0 5.51152 0.188125 5.8549 0.491039 6.04226C1.2816 6.53122 1.75355 7.37565 1.75355 8.30113C1.75355 9.2266 1.2816 10.071 0.490984 10.56C0.188125 10.7473 0 11.0907 0 11.456V15.3152C0 16.0248 0.577336 16.6021 1.28691 16.6021H26.7131C27.4227 16.6021 28 16.0247 28 15.3152V1.28702C28 0.577336 27.4227 0 26.7131 0ZM27.1797 15.3152C27.1797 15.5725 26.9704 15.7818 26.7131 15.7818H6.5193V15.7536C6.5193 15.527 6.33571 15.3434 6.10914 15.3434C5.88257 15.3434 5.69898 15.527 5.69898 15.7536V15.7818H1.28691C1.0296 15.7818 0.820312 15.5724 0.820312 15.3152V11.456C0.820312 11.3726 0.859523 11.2966 0.922523 11.2576C1.9565 10.6181 2.57381 9.51284 2.57381 8.30107C2.57381 7.0893 1.9565 5.98407 0.922523 5.34455C0.859523 5.30551 0.820312 5.22949 0.820312 5.14604V1.28691C0.820312 1.0296 1.0296 0.820312 1.28691 0.820312H5.69898V0.848531C5.69898 1.07505 5.88257 1.25869 6.10914 1.25869C6.33571 1.25869 6.5193 1.07505 6.5193 0.848531V0.820312H26.7131C26.9704 0.820312 27.1797 1.02966 27.1797 1.28691V15.3152Z" fill="#862633"/>
<path d="M6.10889 7.45258C5.88232 7.45258 5.69873 7.63622 5.69873 7.86273V8.73948C5.69873 8.966 5.88232 9.14964 6.10889 9.14964C6.33546 9.14964 6.51904 8.966 6.51904 8.73948V7.86273C6.51904 7.63616 6.33546 7.45258 6.10889 7.45258Z" fill="#862633"/>
<path d="M6.10889 2.19202C5.88232 2.19202 5.69873 2.37566 5.69873 2.60217V3.47892C5.69873 3.70544 5.88232 3.88908 6.10889 3.88908C6.33546 3.88908 6.51904 3.70544 6.51904 3.47892V2.60217C6.51904 2.3756 6.33546 2.19202 6.10889 2.19202Z" fill="#862633"/>
<path d="M6.10889 4.82227C5.88232 4.82227 5.69873 5.00591 5.69873 5.23242V6.10917C5.69873 6.33569 5.88232 6.51933 6.10889 6.51933C6.33546 6.51933 6.51904 6.33569 6.51904 6.10917V5.23242C6.51904 5.00591 6.33546 4.82227 6.10889 4.82227Z" fill="#862633"/>
<path d="M6.10889 10.0828C5.88232 10.0828 5.69873 10.2665 5.69873 10.493V11.3697C5.69873 11.5962 5.88232 11.7799 6.10889 11.7799C6.33546 11.7799 6.51904 11.5962 6.51904 11.3697V10.493C6.51904 10.2664 6.33546 10.0828 6.10889 10.0828Z" fill="#862633"/>
<path d="M6.10889 12.7131C5.88232 12.7131 5.69873 12.8968 5.69873 13.1233V14C5.69873 14.2266 5.88232 14.4102 6.10889 14.4102C6.33546 14.4102 6.51904 14.2266 6.51904 14V13.1233C6.51904 12.8968 6.33546 12.7131 6.10889 12.7131Z" fill="#862633"/>
</svg>
