<svg width="26" height="19" viewBox="0 0 26 19" fill="none" xmlns="http://www.w3.org/2000/svg">
<path d="M22.6809 0H1.65957C0.743017 0 0 0.743017 0 1.65957V16.5957C0 17.5123 0.743017 18.2553 1.65957 18.2553H22.6809C23.5974 18.2553 24.3404 17.5123 24.3404 16.5957V16.0426C25.257 16.0426 26 15.2995 26 14.383V11.617C26 10.7005 25.257 9.95745 24.3404 9.95745V8.29787C25.257 8.29787 26 7.55486 26 6.6383V3.87234C26 2.95578 25.257 2.21277 24.3404 2.21277V1.65957C24.3404 0.743017 23.5974 0 22.6809 0ZM3.07021 13.0885L1.10638 13.65V4.60532L3.06966 5.16681C3.54383 5.30371 3.87082 5.73706 3.87234 6.2306V12.0247C3.87107 12.5182 3.54428 12.9516 3.07021 13.0885ZM24.8936 11.617V14.383C24.8936 14.6885 24.6459 14.9362 24.3404 14.9362H23.234C22.9285 14.9362 22.6809 14.6885 22.6809 14.383V11.617C22.6809 11.3115 22.9285 11.0638 23.234 11.0638H24.3404C24.6459 11.0638 24.8936 11.3115 24.8936 11.617ZM24.8936 3.87234V6.6383C24.8936 6.94382 24.6459 7.19149 24.3404 7.19149H23.234C22.9285 7.19149 22.6809 6.94382 22.6809 6.6383V3.87234C22.6809 3.56682 22.9285 3.31915 23.234 3.31915H24.3404C24.6459 3.31915 24.8936 3.56682 24.8936 3.87234ZM21.5745 3.87234V6.6383C21.5745 7.55486 22.3175 8.29787 23.234 8.29787V9.95745C22.3175 9.95745 21.5745 10.7005 21.5745 11.617V14.383C21.5745 15.2995 22.3175 16.0426 23.234 16.0426V16.5957C23.234 16.9013 22.9864 17.1489 22.6809 17.1489H1.65957C1.35406 17.1489 1.10638 16.9013 1.10638 16.5957V14.8006L3.37447 14.1529C4.32235 13.8783 4.97569 13.0116 4.97872 12.0247V6.2306C4.97569 5.24374 4.32235 4.37705 3.37447 4.10247L1.10638 3.45468V1.65957C1.10638 1.35406 1.35406 1.10638 1.65957 1.10638H22.6809C22.9864 1.10638 23.234 1.35406 23.234 1.65957V2.21277C22.3175 2.21277 21.5745 2.95578 21.5745 3.87234Z" fill="black"/>
<path d="M18.2554 3.87231H12.7234C12.1124 3.87231 11.6171 4.36766 11.6171 4.9787V6.63827C11.6171 7.24931 12.1124 7.74465 12.7234 7.74465H18.2554C18.8664 7.74465 19.3617 7.24931 19.3617 6.63827V4.9787C19.3617 4.36766 18.8664 3.87231 18.2554 3.87231ZM12.7234 6.63827V4.9787H18.2554V6.63827H12.7234Z" fill="black"/>
<path d="M13.2766 9.9574C13.5821 9.9574 13.8298 9.70972 13.8298 9.4042C13.8298 9.09869 13.5821 8.85101 13.2766 8.85101C12.9711 8.85101 12.7234 9.09869 12.7234 9.4042C12.7234 9.70972 12.9711 9.9574 13.2766 9.9574Z" fill="black"/>
<path d="M15.4893 9.9574C15.7949 9.9574 16.0425 9.70972 16.0425 9.4042C16.0425 9.09869 15.7949 8.85101 15.4893 8.85101C15.1838 8.85101 14.9362 9.09869 14.9362 9.4042C14.9362 9.70972 15.1838 9.9574 15.4893 9.9574Z" fill="black"/>
<path d="M17.7021 9.9574C18.0077 9.9574 18.2553 9.70972 18.2553 9.4042C18.2553 9.09869 18.0077 8.85101 17.7021 8.85101C17.3966 8.85101 17.149 9.09869 17.149 9.4042C17.149 9.70972 17.3966 9.9574 17.7021 9.9574Z" fill="black"/>
<path d="M13.2766 12.1702C13.5821 12.1702 13.8298 11.9226 13.8298 11.617C13.8298 11.3115 13.5821 11.0638 13.2766 11.0638C12.9711 11.0638 12.7234 11.3115 12.7234 11.617C12.7234 11.9226 12.9711 12.1702 13.2766 12.1702Z" fill="black"/>
<path d="M15.4893 12.1702C15.7949 12.1702 16.0425 11.9226 16.0425 11.617C16.0425 11.3115 15.7949 11.0638 15.4893 11.0638C15.1838 11.0638 14.9362 11.3115 14.9362 11.617C14.9362 11.9226 15.1838 12.1702 15.4893 12.1702Z" fill="black"/>
<path d="M17.7021 12.1702C18.0077 12.1702 18.2553 11.9226 18.2553 11.617C18.2553 11.3115 18.0077 11.0638 17.7021 11.0638C17.3966 11.0638 17.149 11.3115 17.149 11.617C17.149 11.9226 17.3966 12.1702 17.7021 12.1702Z" fill="black"/>
<path d="M13.2766 14.383C13.5821 14.383 13.8298 14.1353 13.8298 13.8298C13.8298 13.5243 13.5821 13.2766 13.2766 13.2766C12.9711 13.2766 12.7234 13.5243 12.7234 13.8298C12.7234 14.1353 12.9711 14.383 13.2766 14.383Z" fill="black"/>
<path d="M15.4893 14.383C15.7949 14.383 16.0425 14.1353 16.0425 13.8298C16.0425 13.5243 15.7949 13.2766 15.4893 13.2766C15.1838 13.2766 14.9362 13.5243 14.9362 13.8298C14.9362 14.1353 15.1838 14.383 15.4893 14.383Z" fill="black"/>
<path d="M17.7021 14.383C18.0077 14.383 18.2553 14.1353 18.2553 13.8298C18.2553 13.5243 18.0077 13.2766 17.7021 13.2766C17.3966 13.2766 17.149 13.5243 17.149 13.8298C17.149 14.1353 17.3966 14.383 17.7021 14.383Z" fill="black"/>
</svg>
