<svg width="21" height="10" viewBox="0 0 21 10" fill="none" xmlns="http://www.w3.org/2000/svg">
<path d="M20.7594 4.42915C20.7591 4.42891 20.7589 4.42863 20.7587 4.42839L16.4724 0.234836C16.1512 -0.0793172 15.6319 -0.0781481 15.3122 0.237578C14.9926 0.553264 14.9939 1.06387 15.315 1.37806L18.1928 4.19355H0.820312C0.367254 4.19355 0 4.5546 0 5C0 5.4454 0.367254 5.80645 0.820312 5.80645H18.1928L15.315 8.62194C14.9939 8.93613 14.9927 9.44674 15.3123 9.76242C15.6319 10.0782 16.1513 10.0793 16.4724 9.76516L20.7587 5.57161C20.7589 5.57137 20.7591 5.57109 20.7594 5.57085C21.0807 5.25561 21.0797 4.74335 20.7594 4.42915Z" fill="#862633"/>
</svg>
